<?xml version="1.0" encoding="UTF-8"?><svg id="Camada_1" xmlns="http://www.w3.org/2000/svg" viewBox="0 0 402.5 345"><defs><style>.cls-1{fill:#00a99d;}.cls-2{fill:#0071bc;}.cls-3{fill:#f7931e;}.cls-4{fill:#fff;}.cls-5{fill:#4d4d4d;}.cls-6{opacity:.7;}</style></defs><g><g class="cls-6"><circle class="cls-2" cx="198.95" cy="126.5" r="126.5"/></g><g class="cls-6"><circle class="cls-3" cx="126.5" cy="218.5" r="126.5"/></g><g class="cls-6"><circle class="cls-1" cx="276" cy="218.5" r="126.5"/></g><path class="cls-4" d="M200.95,115.92c-31.38,23.02-51.75,60.15-51.75,102.05,0,8.74,.89,17.28,2.58,25.53,14.5,5.79,30.31,8.97,46.87,8.97,18.49,0,36.05-3.97,51.88-11.1,1.42-7.59,2.17-15.41,2.17-23.4,0-41.9-20.37-79.03-51.75-102.05Z"/></g><g><path class="cls-5" d="M158.95,195.42v1.84h3.6v2.38h-3.6v2.03h4.08v2.51h-7.22v-11.28h7.22v2.51h-4.08Z"/><path class="cls-5" d="M172.16,193.62c.89,.47,1.58,1.14,2.06,1.99,.48,.85,.72,1.83,.72,2.93s-.24,2.06-.73,2.91-1.17,1.52-2.06,2.01c-.89,.48-1.92,.73-3.1,.73h-4.46v-11.28h4.46c1.18,0,2.22,.24,3.11,.71Zm-1.19,7.05c.52-.5,.78-1.21,.78-2.13s-.26-1.65-.78-2.15c-.52-.51-1.24-.76-2.16-.76h-1.09v5.79h1.09c.92,0,1.64-.25,2.16-.75Z"/><path class="cls-5" d="M179.42,192.91v6.54c0,.61,.14,1.08,.42,1.41,.28,.33,.71,.5,1.29,.5s1.01-.17,1.3-.5,.44-.8,.44-1.4v-6.54h3.14v6.54c0,1.03-.22,1.92-.66,2.65s-1.03,1.28-1.78,1.65c-.75,.37-1.59,.55-2.5,.55s-1.74-.18-2.46-.55c-.72-.37-1.29-.91-1.7-1.64s-.62-1.61-.62-2.66v-6.54h3.12Z"/><path class="cls-5" d="M188.05,195.56c.46-.87,1.12-1.55,1.98-2.03,.85-.49,1.83-.73,2.94-.73,1.41,0,2.59,.38,3.55,1.13s1.58,1.77,1.86,3.06h-3.38c-.2-.43-.48-.75-.84-.98s-.77-.34-1.24-.34c-.73,0-1.3,.26-1.74,.78-.43,.52-.65,1.21-.65,2.07s.22,1.57,.65,2.09c.43,.52,1.01,.78,1.74,.78,.47,0,.88-.11,1.24-.34,.36-.22,.64-.55,.84-.98h3.38c-.28,1.29-.9,2.31-1.86,3.06s-2.14,1.13-3.55,1.13c-1.11,0-2.09-.24-2.94-.73-.85-.49-1.51-1.16-1.98-2.03-.46-.87-.7-1.86-.7-2.98s.23-2.1,.7-2.97Z"/><path class="cls-5" d="M207,202.35h-4l-.61,1.84h-3.3l4.11-11.28h3.62l4.1,11.28h-3.31l-.61-1.84Zm-.78-2.4l-1.22-3.65-1.2,3.65h2.42Z"/><path class="cls-5" d="M218.37,201.05c.36-.22,.64-.55,.84-.98h3.38c-.25,1.13-.75,2.06-1.53,2.78s-1.74,1.17-2.89,1.34v.58c.52,0,1,.16,1.43,.46,.43,.31,.65,.78,.65,1.42s-.23,1.13-.69,1.44-1,.46-1.63,.46h-2.61v-1.65h2.24c.35,0,.53-.11,.53-.34s-.18-.34-.53-.34h-1.25v-2.03c-.96-.12-1.8-.43-2.51-.94-.71-.51-1.27-1.18-1.66-1.99-.39-.82-.58-1.74-.58-2.76,0-1.11,.23-2.1,.7-2.97s1.12-1.55,1.98-2.03,1.83-.73,2.94-.73c1.41,0,2.59,.38,3.55,1.13,.96,.75,1.58,1.77,1.86,3.06h-3.38c-.2-.43-.48-.75-.84-.98s-.77-.34-1.24-.34c-.73,0-1.3,.26-1.74,.78s-.65,1.21-.65,2.07,.22,1.57,.65,2.09c.43,.52,1.01,.78,1.74,.78,.47,0,.88-.11,1.24-.34Z"/><path class="cls-5" d="M231.21,202.35h-4l-.61,1.84h-3.3l4.11-11.28h3.62l4.1,11.28h-3.31l-.61-1.84Zm-3.07-12.77c.25,0,.47,.04,.66,.11,.2,.08,.42,.18,.68,.32,.18,.1,.34,.17,.46,.22,.13,.05,.26,.08,.38,.08,.39,0,.63-.25,.71-.74h1.58c-.15,.91-.43,1.57-.84,1.98-.41,.41-.93,.62-1.56,.62-.23,0-.45-.03-.64-.1-.19-.07-.43-.17-.7-.31-.18-.1-.34-.17-.46-.22-.13-.05-.26-.08-.38-.08-.38,0-.62,.24-.72,.74h-1.57c.3-1.74,1.1-2.61,2.4-2.61Zm2.29,10.37l-1.22-3.65-1.2,3.65h2.42Z"/><path class="cls-5" d="M238.65,203.56c-.89-.5-1.59-1.18-2.1-2.06-.52-.88-.78-1.87-.78-2.98s.26-2.1,.78-2.98c.52-.88,1.22-1.57,2.1-2.06,.88-.49,1.86-.74,2.91-.74s2.04,.25,2.92,.74,1.58,1.18,2.09,2.06,.77,1.88,.77,2.98-.26,2.1-.77,2.98c-.51,.88-1.21,1.57-2.1,2.06-.89,.5-1.86,.74-2.91,.74s-2.03-.25-2.91-.74Zm4.81-2.95c.46-.52,.7-1.22,.7-2.1s-.23-1.6-.7-2.12c-.46-.52-1.1-.78-1.9-.78s-1.45,.26-1.9,.78-.69,1.22-.69,2.12,.23,1.59,.69,2.1c.46,.52,1.09,.78,1.9,.78s1.43-.26,1.9-.78Z"/></g><g><path class="cls-4" d="M161.86,53.15v2.27h3.66v2.11h-3.66v2.46h4.14v2.19h-6.88v-11.23h6.88v2.19h-4.14Z"/><path class="cls-4" d="M167.75,55.29c.35-.69,.82-1.23,1.42-1.6,.6-.37,1.26-.56,2-.56,.59,0,1.12,.12,1.61,.37,.48,.25,.87,.58,1.14,.99v-4.14h2.74v11.84h-2.74v-1.28c-.26,.43-.62,.77-1.1,1.02-.47,.26-1.03,.38-1.66,.38-.74,0-1.4-.19-2-.57-.6-.38-1.07-.92-1.42-1.62-.35-.7-.52-1.51-.52-2.42s.17-1.72,.52-2.42Zm5.6,.82c-.38-.39-.84-.59-1.38-.59s-1.01,.19-1.38,.58c-.38,.39-.57,.93-.57,1.61s.19,1.22,.57,1.62c.38,.4,.84,.6,1.38,.6s1.01-.2,1.38-.59c.38-.39,.57-.93,.57-1.62s-.19-1.22-.57-1.62Z"/><path class="cls-4" d="M187.46,53.26v8.93h-2.74v-1.22c-.28,.39-.65,.71-1.13,.95-.47,.24-1,.36-1.58,.36-.68,0-1.29-.15-1.81-.46-.52-.3-.93-.74-1.22-1.32-.29-.58-.43-1.25-.43-2.03v-5.22h2.72v4.85c0,.6,.15,1.06,.46,1.39,.31,.33,.73,.5,1.25,.5s.95-.17,1.26-.5,.46-.79,.46-1.39v-4.85h2.74Z"/><path class="cls-4" d="M189.45,55.29c.38-.69,.91-1.23,1.58-1.6,.68-.37,1.45-.56,2.33-.56,1.12,0,2.06,.29,2.81,.88,.75,.59,1.25,1.41,1.48,2.48h-2.91c-.25-.68-.72-1.02-1.42-1.02-.5,0-.9,.19-1.2,.58-.3,.39-.45,.95-.45,1.67s.15,1.28,.45,1.67c.3,.39,.7,.58,1.2,.58,.7,0,1.18-.34,1.42-1.02h2.91c-.23,1.05-.73,1.87-1.49,2.46-.76,.6-1.69,.9-2.8,.9-.88,0-1.65-.19-2.33-.56-.68-.37-1.21-.91-1.58-1.6-.38-.69-.57-1.5-.57-2.43s.19-1.74,.57-2.43Z"/><path class="cls-4" d="M199.08,55.29c.35-.69,.82-1.23,1.42-1.6,.6-.37,1.26-.56,2-.56,.63,0,1.18,.13,1.66,.38,.47,.26,.84,.59,1.1,1.01v-1.26h2.74v8.93h-2.74v-1.26c-.27,.42-.64,.75-1.11,1.01-.47,.26-1.03,.38-1.66,.38-.73,0-1.39-.19-1.98-.57-.6-.38-1.07-.92-1.42-1.62-.35-.7-.52-1.51-.52-2.42s.17-1.72,.52-2.42Zm5.6,.82c-.38-.39-.84-.59-1.38-.59s-1,.19-1.38,.58c-.38,.39-.57,.93-.57,1.61s.19,1.22,.57,1.62c.38,.4,.84,.6,1.38,.6s1.01-.2,1.38-.59c.38-.39,.57-.93,.57-1.62s-.19-1.22-.57-1.62Z"/><path class="cls-4" d="M215.28,58.96h2.91c-.2,.91-.61,1.65-1.22,2.22-.61,.58-1.37,.93-2.27,1.07v.59c.55,0,1.04,.15,1.46,.46,.42,.3,.62,.76,.62,1.37s-.22,1.07-.66,1.38c-.44,.31-.96,.47-1.57,.47h-2.46v-1.5h2.1c.21,0,.37-.03,.48-.1s.16-.17,.16-.32-.05-.25-.16-.31-.27-.09-.48-.09h-1.14v-1.95c-1.1-.17-1.98-.66-2.64-1.46s-.99-1.83-.99-3.06c0-.93,.19-1.74,.57-2.43,.38-.69,.91-1.23,1.58-1.6,.68-.37,1.45-.56,2.33-.56,1.12,0,2.06,.29,2.81,.88,.75,.59,1.25,1.41,1.48,2.48h-2.91c-.25-.68-.72-1.02-1.42-1.02-.5,0-.9,.19-1.2,.58-.3,.39-.45,.95-.45,1.67s.15,1.28,.45,1.67c.3,.39,.7,.58,1.2,.58,.7,0,1.18-.34,1.42-1.02Z"/><path class="cls-4" d="M219.63,55.29c.35-.69,.82-1.23,1.42-1.6,.6-.37,1.26-.56,2-.56,.63,0,1.18,.13,1.66,.38,.47,.26,.84,.59,1.1,1.01v-1.26h2.74v8.93h-2.74v-1.26c-.27,.42-.64,.75-1.11,1.01-.47,.26-1.03,.38-1.66,.38-.73,0-1.39-.19-1.98-.57-.6-.38-1.07-.92-1.42-1.62-.35-.7-.52-1.51-.52-2.42s.17-1.72,.52-2.42Zm3.53-5.15c.23,0,.44,.03,.62,.1s.39,.17,.65,.31c.19,.11,.35,.18,.46,.23,.12,.05,.24,.07,.37,.07,.39,0,.62-.24,.69-.72h1.41c-.26,1.58-.99,2.37-2.21,2.37-.23,0-.44-.03-.62-.1-.18-.07-.39-.17-.65-.31-.19-.11-.35-.18-.46-.23-.12-.05-.24-.07-.37-.07-.39,0-.63,.24-.7,.72h-1.39c.26-1.58,.99-2.37,2.21-2.37Zm2.07,5.97c-.38-.39-.84-.59-1.38-.59s-1.01,.19-1.38,.58-.57,.93-.57,1.61,.19,1.22,.57,1.62,.84,.6,1.38,.6,1-.2,1.38-.59c.38-.39,.57-.93,.57-1.62s-.19-1.22-.57-1.62Z"/><path class="cls-4" d="M232.22,61.76c-.7-.37-1.25-.91-1.65-1.6-.4-.69-.6-1.5-.6-2.43s.2-1.73,.61-2.42c.41-.7,.96-1.23,1.66-1.61,.7-.37,1.49-.56,2.37-.56s1.66,.19,2.37,.56c.7,.37,1.26,.91,1.66,1.61,.41,.7,.61,1.51,.61,2.42s-.21,1.73-.62,2.42c-.41,.7-.97,1.23-1.68,1.61-.71,.37-1.5,.56-2.38,.56s-1.66-.19-2.36-.56Zm3.7-2.38c.37-.38,.55-.93,.55-1.65s-.18-1.26-.54-1.65c-.36-.38-.8-.58-1.32-.58s-.98,.19-1.33,.57c-.35,.38-.53,.93-.53,1.66s.17,1.26,.52,1.65c.35,.38,.78,.58,1.3,.58s.97-.19,1.34-.58Z"/><path class="cls-4" d="M167.23,70.16v11.23h-2.74v-11.23h2.74Z"/><path class="cls-4" d="M177.16,73.38c.62,.68,.94,1.61,.94,2.79v5.22h-2.72v-4.85c0-.6-.15-1.06-.46-1.39-.31-.33-.73-.5-1.25-.5s-.94,.17-1.25,.5c-.31,.33-.46,.79-.46,1.39v4.85h-2.74v-8.93h2.74v1.18c.28-.39,.65-.71,1.12-.94,.47-.23,1-.34,1.58-.34,1.04,0,1.88,.34,2.5,1.02Z"/><path class="cls-4" d="M184.48,74.73h-1.47v6.66h-2.74v-6.66h-.99v-2.27h.99v-.26c0-1.1,.31-1.93,.94-2.5,.63-.57,1.55-.86,2.77-.86,.2,0,.35,0,.45,.02v2.32c-.52-.03-.89,.04-1.1,.22s-.32,.51-.32,.98v.08h1.47v2.27Z"/><path class="cls-4" d="M187.47,80.96c-.7-.37-1.25-.91-1.65-1.6-.4-.69-.6-1.5-.6-2.43s.2-1.73,.61-2.42c.41-.7,.96-1.23,1.66-1.61,.7-.37,1.49-.56,2.37-.56s1.66,.19,2.37,.56c.7,.37,1.26,.91,1.66,1.61,.41,.7,.61,1.51,.61,2.42s-.21,1.73-.62,2.42c-.41,.7-.97,1.23-1.68,1.61-.71,.37-1.5,.56-2.38,.56s-1.66-.19-2.36-.56Zm3.7-2.38c.37-.38,.55-.93,.55-1.65s-.18-1.26-.54-1.65c-.36-.38-.8-.58-1.32-.58s-.98,.19-1.33,.57c-.35,.38-.53,.93-.53,1.66s.17,1.26,.52,1.65c.35,.38,.78,.58,1.3,.58s.97-.19,1.34-.58Z"/><path class="cls-4" d="M199.89,72.79c.48-.28,1.01-.42,1.6-.42v2.9h-.75c-.68,0-1.19,.15-1.54,.44-.34,.29-.51,.81-.51,1.54v4.14h-2.74v-8.93h2.74v1.49c.32-.49,.72-.88,1.2-1.16Z"/><path class="cls-4" d="M216.84,73.37c.66,.67,.98,1.61,.98,2.8v5.22h-2.72v-4.85c0-.58-.15-1.02-.46-1.34-.3-.31-.72-.47-1.26-.47s-.95,.16-1.26,.47c-.3,.31-.46,.76-.46,1.34v4.85h-2.72v-4.85c0-.58-.15-1.02-.46-1.34-.3-.31-.72-.47-1.26-.47s-.95,.16-1.26,.47c-.3,.31-.46,.76-.46,1.34v4.85h-2.74v-8.93h2.74v1.12c.28-.37,.64-.67,1.09-.89,.45-.22,.96-.33,1.52-.33,.67,0,1.27,.14,1.8,.43,.53,.29,.94,.7,1.24,1.23,.31-.49,.73-.89,1.26-1.2,.53-.31,1.12-.46,1.74-.46,1.11,0,1.99,.34,2.65,1.01Z"/><path class="cls-4" d="M219.72,74.49c.35-.69,.82-1.23,1.42-1.6,.6-.37,1.26-.56,2-.56,.63,0,1.18,.13,1.66,.38,.47,.26,.84,.59,1.1,1.01v-1.26h2.74v8.93h-2.74v-1.26c-.27,.42-.64,.75-1.11,1.01-.47,.26-1.03,.38-1.66,.38-.73,0-1.39-.19-1.98-.57-.6-.38-1.07-.92-1.42-1.62-.35-.7-.52-1.51-.52-2.42s.17-1.72,.52-2.42Zm5.6,.82c-.38-.39-.84-.59-1.38-.59s-1.01,.19-1.38,.58-.57,.93-.57,1.61,.19,1.22,.57,1.62,.84,.6,1.38,.6,1-.2,1.38-.59c.38-.39,.57-.93,.57-1.62s-.19-1.22-.57-1.62Z"/><path class="cls-4" d="M233.35,69.55v11.84h-2.74v-11.84h2.74Z"/></g><g><path class="cls-4" d="M281.86,229.15v2.27h3.66v2.11h-3.66v2.46h4.14v2.19h-6.88v-11.23h6.88v2.19h-4.14Z"/><path class="cls-4" d="M287.75,231.29c.35-.69,.82-1.23,1.42-1.6,.6-.37,1.26-.56,2-.56,.59,0,1.12,.12,1.61,.37,.49,.25,.87,.58,1.14,.99v-4.14h2.74v11.84h-2.74v-1.28c-.26,.43-.62,.77-1.1,1.02-.47,.26-1.03,.38-1.66,.38-.74,0-1.4-.19-2-.57-.6-.38-1.07-.92-1.42-1.62-.35-.7-.52-1.51-.52-2.42s.17-1.72,.52-2.42Zm5.6,.82c-.38-.39-.84-.59-1.38-.59s-1,.19-1.38,.58-.57,.92-.57,1.61,.19,1.22,.57,1.62c.38,.4,.84,.6,1.38,.6s1-.2,1.38-.59c.38-.39,.57-.93,.57-1.62s-.19-1.22-.57-1.62Z"/><path class="cls-4" d="M307.46,229.26v8.93h-2.74v-1.22c-.28,.39-.65,.71-1.13,.95-.47,.24-1,.36-1.58,.36-.68,0-1.29-.15-1.81-.46-.52-.3-.93-.74-1.21-1.32-.29-.58-.43-1.25-.43-2.03v-5.22h2.72v4.85c0,.6,.15,1.06,.46,1.39,.31,.33,.72,.5,1.25,.5s.95-.17,1.26-.5c.31-.33,.46-.79,.46-1.39v-4.85h2.74Z"/><path class="cls-4" d="M309.45,231.29c.38-.69,.91-1.23,1.58-1.6,.68-.37,1.45-.56,2.33-.56,1.12,0,2.06,.29,2.81,.88s1.25,1.41,1.48,2.48h-2.91c-.25-.68-.72-1.02-1.42-1.02-.5,0-.9,.19-1.2,.58-.3,.39-.45,.95-.45,1.67s.15,1.28,.45,1.67c.3,.39,.7,.58,1.2,.58,.7,0,1.18-.34,1.42-1.02h2.91c-.23,1.04-.73,1.87-1.49,2.46-.76,.6-1.69,.9-2.8,.9-.88,0-1.65-.19-2.33-.56-.68-.37-1.21-.91-1.58-1.6s-.57-1.5-.57-2.43,.19-1.74,.57-2.43Z"/><path class="cls-4" d="M319.08,231.29c.35-.69,.82-1.23,1.42-1.6,.6-.37,1.26-.56,2-.56,.63,0,1.18,.13,1.66,.38,.47,.26,.84,.59,1.1,1.01v-1.26h2.74v8.93h-2.74v-1.26c-.27,.42-.64,.75-1.11,1.01-.47,.26-1.03,.38-1.66,.38-.73,0-1.39-.19-1.98-.57-.6-.38-1.07-.92-1.42-1.62-.35-.7-.52-1.51-.52-2.42s.17-1.72,.52-2.42Zm5.6,.82c-.38-.39-.84-.59-1.38-.59s-1,.19-1.38,.58c-.38,.39-.57,.92-.57,1.61s.19,1.22,.57,1.62c.38,.4,.84,.6,1.38,.6s1.01-.2,1.38-.59c.38-.39,.57-.93,.57-1.62s-.19-1.22-.57-1.62Z"/><path class="cls-4" d="M335.28,234.96h2.91c-.2,.91-.61,1.65-1.22,2.22-.61,.58-1.37,.93-2.27,1.07v.59c.55,0,1.04,.15,1.46,.46,.42,.3,.62,.76,.62,1.37s-.22,1.07-.66,1.38-.96,.47-1.57,.47h-2.46v-1.5h2.1c.21,0,.37-.03,.48-.1,.11-.06,.16-.17,.16-.32s-.05-.25-.16-.31-.27-.09-.48-.09h-1.14v-1.95c-1.1-.17-1.98-.66-2.64-1.46-.66-.81-.99-1.83-.99-3.06,0-.93,.19-1.74,.57-2.43,.38-.69,.91-1.23,1.58-1.6,.68-.37,1.45-.56,2.33-.56,1.12,0,2.06,.29,2.81,.88s1.25,1.41,1.48,2.48h-2.91c-.25-.68-.72-1.02-1.42-1.02-.5,0-.9,.19-1.2,.58-.3,.39-.45,.95-.45,1.67s.15,1.28,.45,1.67c.3,.39,.7,.58,1.2,.58,.7,0,1.18-.34,1.42-1.02Z"/><path class="cls-4" d="M339.63,231.29c.35-.69,.82-1.23,1.42-1.6,.6-.37,1.26-.56,2-.56,.63,0,1.18,.13,1.66,.38,.47,.26,.84,.59,1.1,1.01v-1.26h2.74v8.93h-2.74v-1.26c-.27,.42-.64,.75-1.11,1.01-.47,.26-1.03,.38-1.66,.38-.73,0-1.39-.19-1.98-.57-.6-.38-1.07-.92-1.42-1.62-.35-.7-.52-1.51-.52-2.42s.17-1.72,.52-2.42Zm3.53-5.15c.23,0,.44,.04,.62,.1,.18,.07,.39,.17,.65,.31,.19,.11,.35,.18,.46,.23,.12,.05,.24,.07,.37,.07,.39,0,.62-.24,.69-.72h1.41c-.26,1.58-.99,2.37-2.21,2.37-.23,0-.44-.03-.62-.1-.18-.07-.39-.17-.65-.31-.19-.11-.35-.18-.46-.23-.12-.05-.24-.07-.37-.07-.39,0-.63,.24-.7,.72h-1.39c.26-1.58,.99-2.37,2.21-2.37Zm2.07,5.97c-.38-.39-.84-.59-1.38-.59s-1.01,.19-1.38,.58-.57,.92-.57,1.61,.19,1.22,.57,1.62c.38,.4,.84,.6,1.38,.6s1-.2,1.38-.59c.38-.39,.57-.93,.57-1.62s-.19-1.22-.57-1.62Z"/><path class="cls-4" d="M352.22,237.76c-.7-.37-1.25-.91-1.65-1.6s-.6-1.5-.6-2.43,.2-1.73,.61-2.42c.41-.7,.96-1.23,1.66-1.61,.7-.37,1.49-.56,2.37-.56s1.66,.19,2.37,.56c.7,.37,1.26,.91,1.66,1.61,.41,.7,.61,1.51,.61,2.42s-.21,1.73-.62,2.42c-.41,.7-.97,1.23-1.68,1.61-.71,.37-1.5,.56-2.38,.56s-1.66-.19-2.36-.56Zm3.7-2.38c.37-.38,.55-.93,.55-1.65s-.18-1.26-.54-1.65c-.36-.38-.8-.58-1.32-.58s-.98,.19-1.33,.57c-.35,.38-.53,.93-.53,1.66s.17,1.26,.52,1.65c.35,.38,.78,.58,1.3,.58s.97-.19,1.34-.58Z"/><path class="cls-4" d="M282.56,257.39h-2.74l-4.58-6.93v6.93h-2.74v-11.23h2.74l4.58,6.96v-6.96h2.74v11.23Z"/><path class="cls-4" d="M284.52,250.49c.35-.69,.82-1.23,1.42-1.6s1.26-.56,2-.56c.63,0,1.18,.13,1.66,.38s.84,.59,1.1,1.01v-1.26h2.74v8.93h-2.74v-1.26c-.27,.42-.64,.75-1.11,1.01s-1.03,.38-1.66,.38c-.73,0-1.39-.19-1.98-.57s-1.07-.92-1.42-1.62c-.35-.7-.52-1.51-.52-2.42s.17-1.72,.52-2.42Zm3.53-5.15c.23,0,.44,.03,.62,.1,.18,.07,.39,.17,.65,.31,.19,.11,.35,.18,.46,.23,.12,.05,.24,.07,.37,.07,.39,0,.62-.24,.69-.72h1.41c-.26,1.58-.99,2.37-2.21,2.37-.23,0-.44-.04-.62-.1s-.39-.17-.65-.31c-.19-.11-.35-.18-.46-.23-.12-.05-.24-.07-.37-.07-.39,0-.63,.24-.7,.72h-1.39c.26-1.58,.99-2.37,2.21-2.37Zm2.07,5.97c-.38-.39-.84-.59-1.38-.59s-1.01,.2-1.38,.58-.57,.93-.57,1.61,.19,1.22,.57,1.62c.38,.4,.84,.6,1.38,.6s1-.2,1.38-.59c.38-.39,.57-.93,.57-1.62s-.19-1.22-.57-1.62Z"/><path class="cls-4" d="M297.11,256.96c-.7-.37-1.25-.91-1.65-1.6-.4-.69-.6-1.5-.6-2.43s.2-1.73,.61-2.42c.4-.7,.96-1.23,1.66-1.61,.7-.37,1.49-.56,2.37-.56s1.66,.19,2.37,.56,1.26,.91,1.66,1.61c.41,.7,.61,1.51,.61,2.42s-.21,1.73-.62,2.42c-.41,.7-.97,1.24-1.68,1.61s-1.5,.56-2.38,.56-1.66-.19-2.36-.56Zm3.7-2.38c.37-.38,.55-.93,.55-1.65s-.18-1.26-.54-1.65c-.36-.38-.8-.58-1.32-.58s-.98,.19-1.33,.57c-.35,.38-.53,.93-.53,1.66s.17,1.26,.52,1.65c.35,.38,.78,.58,1.3,.58s.97-.19,1.34-.58Z"/><path class="cls-4" d="M316.31,246.16v2.19h-4.58v2.37h3.42v2.13h-3.42v4.54h-2.74v-11.23h7.31Z"/><path class="cls-4" d="M319.45,256.96c-.7-.37-1.25-.91-1.65-1.6-.4-.69-.6-1.5-.6-2.43s.2-1.73,.61-2.42c.41-.7,.96-1.23,1.66-1.61s1.49-.56,2.37-.56,1.66,.19,2.37,.56c.71,.37,1.26,.91,1.66,1.61,.41,.7,.61,1.51,.61,2.42s-.21,1.73-.62,2.42-.97,1.24-1.68,1.61-1.5,.56-2.38,.56-1.66-.19-2.36-.56Zm3.7-2.38c.37-.38,.55-.93,.55-1.65s-.18-1.26-.54-1.65c-.36-.38-.8-.58-1.32-.58s-.98,.19-1.33,.57c-.35,.38-.53,.93-.53,1.66s.17,1.26,.52,1.65c.35,.38,.78,.58,1.3,.58s.97-.19,1.34-.58Z"/><path class="cls-4" d="M331.87,248.79c.48-.28,1.01-.42,1.6-.42v2.9h-.75c-.68,0-1.19,.15-1.54,.44-.34,.29-.51,.81-.51,1.54v4.14h-2.74v-8.93h2.74v1.49c.32-.49,.72-.88,1.2-1.16Z"/><path class="cls-4" d="M348.83,249.37c.66,.67,.98,1.61,.98,2.8v5.22h-2.72v-4.85c0-.58-.15-1.02-.46-1.34-.3-.31-.72-.47-1.26-.47s-.95,.16-1.26,.47c-.3,.31-.46,.76-.46,1.34v4.85h-2.72v-4.85c0-.58-.15-1.02-.46-1.34-.3-.31-.72-.47-1.26-.47s-.95,.16-1.26,.47c-.3,.31-.46,.76-.46,1.34v4.85h-2.74v-8.93h2.74v1.12c.28-.37,.64-.67,1.09-.89,.45-.22,.95-.33,1.52-.33,.67,0,1.27,.14,1.8,.43,.53,.29,.94,.7,1.24,1.23,.31-.49,.73-.89,1.26-1.2,.53-.31,1.11-.46,1.74-.46,1.11,0,1.99,.34,2.65,1.01Z"/><path class="cls-4" d="M351.71,250.49c.35-.69,.82-1.23,1.42-1.6s1.26-.56,2-.56c.63,0,1.18,.13,1.66,.38s.84,.59,1.1,1.01v-1.26h2.74v8.93h-2.74v-1.26c-.27,.42-.64,.75-1.11,1.01s-1.03,.38-1.66,.38c-.73,0-1.39-.19-1.98-.57s-1.07-.92-1.42-1.62c-.35-.7-.52-1.51-.52-2.42s.17-1.72,.52-2.42Zm5.6,.82c-.38-.39-.84-.59-1.38-.59s-1.01,.2-1.38,.58-.57,.93-.57,1.61,.19,1.22,.57,1.62c.38,.4,.84,.6,1.38,.6s1-.2,1.38-.59c.38-.39,.57-.93,.57-1.62s-.19-1.22-.57-1.62Z"/><path class="cls-4" d="M365.33,245.55v11.84h-2.74v-11.84h2.74Z"/></g><g><path class="cls-4" d="M46.86,229.15v2.27h3.66v2.11h-3.66v2.46h4.14v2.19h-6.88v-11.23h6.88v2.19h-4.14Z"/><path class="cls-4" d="M52.75,231.29c.35-.69,.82-1.23,1.42-1.6,.6-.37,1.26-.56,2-.56,.59,0,1.12,.12,1.61,.37,.48,.25,.87,.58,1.14,.99v-4.14h2.74v11.84h-2.74v-1.28c-.26,.43-.62,.77-1.1,1.02-.47,.26-1.03,.38-1.66,.38-.74,0-1.4-.19-2-.57-.6-.38-1.07-.92-1.42-1.62-.35-.7-.52-1.51-.52-2.42s.17-1.72,.52-2.42Zm5.6,.82c-.38-.39-.84-.59-1.38-.59s-1.01,.19-1.38,.58c-.38,.39-.57,.92-.57,1.61s.19,1.22,.57,1.62c.38,.4,.84,.6,1.38,.6s1.01-.2,1.38-.59c.38-.39,.57-.93,.57-1.62s-.19-1.22-.57-1.62Z"/><path class="cls-4" d="M72.46,229.26v8.93h-2.74v-1.22c-.28,.39-.65,.71-1.13,.95-.47,.24-1,.36-1.58,.36-.68,0-1.29-.15-1.81-.46-.52-.3-.93-.74-1.22-1.32-.29-.58-.43-1.25-.43-2.03v-5.22h2.72v4.85c0,.6,.15,1.06,.46,1.39,.31,.33,.73,.5,1.25,.5s.95-.17,1.26-.5c.31-.33,.46-.79,.46-1.39v-4.85h2.74Z"/><path class="cls-4" d="M74.45,231.29c.38-.69,.91-1.23,1.58-1.6,.68-.37,1.45-.56,2.33-.56,1.12,0,2.06,.29,2.81,.88s1.25,1.41,1.48,2.48h-2.91c-.25-.68-.72-1.02-1.42-1.02-.5,0-.9,.19-1.2,.58-.3,.39-.45,.95-.45,1.67s.15,1.28,.45,1.67c.3,.39,.7,.58,1.2,.58,.7,0,1.18-.34,1.42-1.02h2.91c-.23,1.04-.73,1.87-1.49,2.46-.76,.6-1.69,.9-2.8,.9-.88,0-1.65-.19-2.33-.56-.68-.37-1.21-.91-1.58-1.6-.38-.69-.57-1.5-.57-2.43s.19-1.74,.57-2.43Z"/><path class="cls-4" d="M84.08,231.29c.35-.69,.82-1.23,1.42-1.6,.6-.37,1.26-.56,2-.56,.63,0,1.18,.13,1.66,.38,.47,.26,.84,.59,1.1,1.01v-1.26h2.74v8.93h-2.74v-1.26c-.27,.42-.64,.75-1.11,1.01-.47,.26-1.03,.38-1.66,.38-.73,0-1.39-.19-1.98-.57-.6-.38-1.07-.92-1.42-1.62-.35-.7-.52-1.51-.52-2.42s.17-1.72,.52-2.42Zm5.6,.82c-.38-.39-.84-.59-1.38-.59s-1.01,.19-1.38,.58c-.38,.39-.57,.92-.57,1.61s.19,1.22,.57,1.62c.38,.4,.84,.6,1.38,.6s1.01-.2,1.38-.59c.38-.39,.57-.93,.57-1.62s-.19-1.22-.57-1.62Z"/><path class="cls-4" d="M100.28,234.96h2.91c-.2,.91-.61,1.65-1.22,2.22-.61,.58-1.37,.93-2.27,1.07v.59c.55,0,1.04,.15,1.46,.46,.42,.3,.62,.76,.62,1.37s-.22,1.07-.66,1.38-.96,.47-1.57,.47h-2.46v-1.5h2.1c.21,0,.37-.03,.48-.1,.11-.06,.16-.17,.16-.32s-.05-.25-.16-.31c-.11-.06-.27-.09-.48-.09h-1.14v-1.95c-1.1-.17-1.98-.66-2.64-1.46-.66-.81-.99-1.83-.99-3.06,0-.93,.19-1.74,.57-2.43,.38-.69,.91-1.23,1.58-1.6,.68-.37,1.45-.56,2.33-.56,1.12,0,2.06,.29,2.81,.88s1.25,1.41,1.48,2.48h-2.91c-.25-.68-.72-1.02-1.42-1.02-.5,0-.9,.19-1.2,.58-.3,.39-.45,.95-.45,1.67s.15,1.28,.45,1.67c.3,.39,.7,.58,1.2,.58,.7,0,1.18-.34,1.42-1.02Z"/><path class="cls-4" d="M104.63,231.29c.35-.69,.82-1.23,1.42-1.6,.6-.37,1.26-.56,2-.56,.63,0,1.18,.13,1.66,.38,.47,.26,.84,.59,1.1,1.01v-1.26h2.74v8.93h-2.74v-1.26c-.27,.42-.64,.75-1.11,1.01-.47,.26-1.03,.38-1.66,.38-.73,0-1.39-.19-1.98-.57-.6-.38-1.07-.92-1.42-1.62-.35-.7-.52-1.51-.52-2.42s.17-1.72,.52-2.42Zm3.53-5.15c.23,0,.44,.04,.62,.1,.18,.07,.39,.17,.65,.31,.19,.11,.35,.18,.46,.23,.12,.05,.24,.07,.37,.07,.39,0,.62-.24,.69-.72h1.41c-.26,1.58-.99,2.37-2.21,2.37-.23,0-.44-.03-.62-.1-.18-.07-.39-.17-.65-.31-.19-.11-.35-.18-.46-.23-.12-.05-.24-.07-.37-.07-.39,0-.63,.24-.7,.72h-1.39c.26-1.58,.99-2.37,2.21-2.37Zm2.07,5.97c-.38-.39-.84-.59-1.38-.59s-1.01,.19-1.38,.58c-.38,.39-.57,.92-.57,1.61s.19,1.22,.57,1.62c.38,.4,.84,.6,1.38,.6s1.01-.2,1.38-.59c.38-.39,.57-.93,.57-1.62s-.19-1.22-.57-1.62Z"/><path class="cls-4" d="M117.22,237.76c-.7-.37-1.25-.91-1.65-1.6-.4-.69-.6-1.5-.6-2.43s.2-1.73,.61-2.42c.41-.7,.96-1.23,1.66-1.61,.7-.37,1.49-.56,2.37-.56s1.66,.19,2.37,.56c.7,.37,1.26,.91,1.66,1.61,.41,.7,.61,1.51,.61,2.42s-.21,1.73-.62,2.42c-.41,.7-.97,1.23-1.68,1.61-.71,.37-1.5,.56-2.38,.56s-1.66-.19-2.36-.56Zm3.7-2.38c.37-.38,.55-.93,.55-1.65s-.18-1.26-.54-1.65c-.36-.38-.8-.58-1.32-.58s-.98,.19-1.33,.57c-.35,.38-.53,.93-.53,1.66s.17,1.26,.52,1.65c.35,.38,.78,.58,1.3,.58s.97-.19,1.34-.58Z"/><path class="cls-4" d="M63.07,246.16v2.19h-4.58v2.37h3.42v2.13h-3.42v4.54h-2.74v-11.23h7.31Z"/><path class="cls-4" d="M66.21,256.96c-.7-.37-1.25-.91-1.65-1.6-.4-.69-.6-1.5-.6-2.43s.2-1.73,.61-2.42c.41-.7,.96-1.23,1.66-1.61,.7-.37,1.49-.56,2.37-.56s1.66,.19,2.37,.56,1.26,.91,1.66,1.61c.41,.7,.61,1.51,.61,2.42s-.21,1.73-.62,2.42-.97,1.24-1.68,1.61c-.71,.37-1.5,.56-2.38,.56s-1.66-.19-2.36-.56Zm3.7-2.38c.37-.38,.55-.93,.55-1.65s-.18-1.26-.54-1.65c-.36-.38-.8-.58-1.32-.58s-.98,.19-1.33,.57c-.35,.38-.53,.93-.53,1.66s.17,1.26,.52,1.65c.35,.38,.78,.58,1.3,.58s.97-.19,1.34-.58Z"/><path class="cls-4" d="M78.63,248.79c.48-.28,1.01-.42,1.6-.42v2.9h-.75c-.68,0-1.19,.15-1.54,.44-.34,.29-.51,.81-.51,1.54v4.14h-2.74v-8.93h2.74v1.49c.32-.49,.72-.88,1.2-1.16Z"/><path class="cls-4" d="M95.59,249.37c.66,.67,.98,1.61,.98,2.8v5.22h-2.72v-4.85c0-.58-.15-1.02-.46-1.34-.3-.31-.72-.47-1.26-.47s-.95,.16-1.26,.47c-.3,.31-.46,.76-.46,1.34v4.85h-2.72v-4.85c0-.58-.15-1.02-.46-1.34-.3-.31-.72-.47-1.26-.47s-.95,.16-1.26,.47c-.3,.31-.46,.76-.46,1.34v4.85h-2.74v-8.93h2.74v1.12c.28-.37,.64-.67,1.09-.89,.45-.22,.95-.33,1.52-.33,.67,0,1.27,.14,1.8,.43,.53,.29,.94,.7,1.24,1.23,.31-.49,.73-.89,1.26-1.2,.53-.31,1.11-.46,1.74-.46,1.11,0,1.99,.34,2.65,1.01Z"/><path class="cls-4" d="M98.47,250.49c.35-.69,.82-1.23,1.42-1.6,.6-.37,1.26-.56,2-.56,.63,0,1.18,.13,1.66,.38s.84,.59,1.1,1.01v-1.26h2.74v8.93h-2.74v-1.26c-.27,.42-.64,.75-1.11,1.01s-1.03,.38-1.66,.38c-.73,0-1.39-.19-1.98-.57-.6-.38-1.07-.92-1.42-1.62-.35-.7-.52-1.51-.52-2.42s.17-1.72,.52-2.42Zm5.6,.82c-.38-.39-.84-.59-1.38-.59s-1.01,.2-1.38,.58c-.38,.39-.57,.93-.57,1.61s.19,1.22,.57,1.62c.38,.4,.84,.6,1.38,.6s1.01-.2,1.38-.59,.57-.93,.57-1.62-.19-1.22-.57-1.62Z"/><path class="cls-4" d="M112.09,245.55v11.84h-2.74v-11.84h2.74Z"/></g></svg>