<?xml version="1.0" encoding="utf-8"?>
<!-- Generator: Adobe Illustrator 26.3.1, SVG Export Plug-In . SVG Version: 6.00 Build 0)  -->
<svg version="1.1" id="Camada_1" xmlns="http://www.w3.org/2000/svg" xmlns:xlink="http://www.w3.org/1999/xlink" x="0px" y="0px"
	 viewBox="0 0 274.4 179.2" style="enable-background:new 0 0 274.4 179.2;" xml:space="preserve">
<style type="text/css">
	.st0{clip-path:url(#SVGID_00000183207580394843929190000004955420057776936350_);}
	.st1{fill:#6DAFCC;}
	.st2{enable-background:new    ;}
	.st3{fill:#FFFFFF;}
	.st4{clip-path:url(#SVGID_00000147205936116840087440000010072585678725723810_);}
	.st5{fill:#1B8992;}
	.st6{clip-path:url(#SVGID_00000044862635365625511760000011487399050687357589_);}
	.st7{fill:#108141;}
	.st8{clip-path:url(#SVGID_00000101083457070349187280000007537178627760464538_);}
	.st9{fill:#F4BB2A;}
	.st10{fill:#3E6D93;}
</style>
<g>
	<g id="img-slide-40_00000026865040036651295820000007933789537419229320_" transform="translate(-111 -237.333)">
		<g id="Grupo_1889_00000121270145577045935970000002284710498821138851_" transform="translate(307 237.333)">
			<g id="Grupo_1880_00000017516275560472660340000003100691074908105349_">
				<g>
					<g>
						<defs>
							<rect id="SVGID_1_" x="-196" width="274.4" height="179.2"/>
						</defs>
						<clipPath id="SVGID_00000026122952030190472440000002975768323580338560_">
							<use xlink:href="#SVGID_1_"  style="overflow:visible;"/>
						</clipPath>
						
							<g id="Grupo_1879_00000003093543932524124090000003529608185591470752_" style="clip-path:url(#SVGID_00000026122952030190472440000002975768323580338560_);">
							<path id="Caminho_2162_00000049924540264328120990000007525563920286185874_" class="st1" d="M37.2,82.5H-5.9
								c-22.8,0-41.2-18.5-41.2-41.2S-28.7,0-5.9,0h43.1C60,0,78.5,18.5,78.5,41.2S60,82.5,37.2,82.5"/>
						</g>
					</g>
				</g>
			</g>
			<g class="st2">
				<path class="st3" d="M0.7,40.8c-0.2-0.4-0.5-0.6-0.8-0.8s-0.7-0.3-1.2-0.3s-0.9,0.1-1.3,0.3c-0.4,0.2-0.7,0.5-0.9,1
					c-0.2,0.4-0.3,0.9-0.3,1.4c0,0.6,0.1,1,0.3,1.5c0.2,0.4,0.5,0.7,0.9,1c0.4,0.2,0.8,0.3,1.4,0.3c0.6,0,1.2-0.2,1.6-0.5
					s0.7-0.8,0.8-1.4h-2.9V42h4.5v1.5c-0.1,0.6-0.4,1.1-0.7,1.6c-0.4,0.5-0.8,0.9-1.4,1.2s-1.2,0.5-2,0.5s-1.5-0.2-2.2-0.5
					c-0.7-0.4-1.2-0.9-1.5-1.5c-0.4-0.6-0.6-1.4-0.6-2.2S-5.4,41-5,40.4c0.4-0.7,0.9-1.2,1.5-1.5c0.7-0.4,1.4-0.5,2.2-0.5
					c0.9,0,1.8,0.2,2.5,0.7s1.2,1.1,1.4,1.9H0.7V40.8z"/>
				<path class="st3" d="M5.7,39.6v2.1h2.8V43H5.7v2.2h3.2v1.4H4v-8.4h4.9v1.4H5.7z"/>
				<path class="st3" d="M11.7,46.4c-0.5-0.2-0.8-0.5-1.1-0.9s-0.4-0.8-0.4-1.3H12c0,0.3,0.1,0.6,0.4,0.8c0.2,0.2,0.5,0.3,0.9,0.3
					s0.7-0.1,0.9-0.3s0.3-0.4,0.3-0.7c0-0.2-0.1-0.5-0.2-0.6s-0.3-0.3-0.6-0.4c-0.2-0.1-0.5-0.2-0.9-0.3c-0.5-0.2-1-0.3-1.3-0.5
					s-0.6-0.4-0.9-0.7s-0.4-0.7-0.4-1.3c0-0.5,0.1-0.9,0.4-1.3c0.2-0.4,0.6-0.6,1-0.8s1-0.3,1.5-0.3c0.9,0,1.6,0.2,2.1,0.6
					c0.5,0.4,0.8,1,0.9,1.8h-1.8c0-0.3-0.1-0.5-0.4-0.7c-0.2-0.2-0.5-0.3-0.9-0.3c-0.3,0-0.6,0.1-0.8,0.3s-0.3,0.4-0.3,0.7
					c0,0.2,0.1,0.4,0.2,0.6c0.1,0.1,0.3,0.3,0.6,0.4c0.2,0.1,0.5,0.2,0.9,0.3c0.5,0.2,1,0.3,1.3,0.5s0.6,0.4,0.9,0.7
					c0.2,0.3,0.4,0.7,0.4,1.3c0,0.4-0.1,0.9-0.3,1.2s-0.6,0.7-1,0.9s-1,0.3-1.6,0.3C12.7,46.7,12.2,46.6,11.7,46.4z"/>
				<path class="st3" d="M23.4,38.3v1.4h-2.2v7h-1.7v-7h-2.2v-1.4H23.4z"/>
				<path class="st3" d="M29.8,45h-3.3l-0.6,1.6h-1.8l3-8.4h2l3,8.4h-1.8L29.8,45z M26.5,36.4c0.3-0.3,0.6-0.4,1-0.4
					c0.2,0,0.3,0,0.4,0.1c0.1,0.1,0.3,0.1,0.4,0.2c0.2,0.2,0.4,0.2,0.6,0.2c0.3,0,0.5-0.2,0.5-0.5h0.9c-0.1,0.5-0.2,0.9-0.5,1.2
					s-0.6,0.4-1,0.4c-0.2,0-0.3,0-0.4-0.1c-0.1-0.1-0.3-0.1-0.4-0.2c-0.2-0.2-0.4-0.2-0.6-0.2c-0.3,0-0.5,0.2-0.5,0.5H26
					C26,37.1,26.2,36.7,26.5,36.4z M29.3,43.7l-1.2-3.5l-1.2,3.5H29.3z"/>
				<path class="st3" d="M35,46.2c-0.7-0.4-1.2-0.9-1.6-1.5c-0.4-0.7-0.6-1.4-0.6-2.2s0.2-1.5,0.6-2.2c0.4-0.7,0.9-1.2,1.6-1.5
					c0.7-0.4,1.4-0.6,2.2-0.6s1.5,0.2,2.2,0.6c0.7,0.4,1.2,0.9,1.5,1.5c0.4,0.7,0.6,1.4,0.6,2.2s-0.2,1.6-0.6,2.2
					c-0.4,0.7-0.9,1.2-1.6,1.5c-0.7,0.4-1.4,0.6-2.2,0.6S35.6,46.5,35,46.2z M38.5,44.9c0.4-0.2,0.7-0.6,0.9-1s0.3-0.9,0.3-1.5
					s-0.1-1-0.3-1.5s-0.5-0.7-0.9-1c-0.4-0.2-0.8-0.3-1.3-0.3s-1,0.1-1.3,0.3c-0.4,0.2-0.7,0.5-0.9,1c-0.2,0.4-0.3,0.9-0.3,1.5
					s0.1,1.1,0.3,1.5s0.5,0.8,0.9,1s0.8,0.3,1.3,0.3C37.6,45.2,38.1,45.1,38.5,44.9z"/>
			</g>
			<g id="Grupo_1882_00000113326782446596648900000016199674889760937115_">
				<g>
					<g>
						<defs>
							<rect id="SVGID_00000172402995674940124220000006997024652020119973_" x="-196" width="274.4" height="179.2"/>
						</defs>
						<clipPath id="SVGID_00000078002894808836673980000013722273239695767989_">
							<use xlink:href="#SVGID_00000172402995674940124220000006997024652020119973_"  style="overflow:visible;"/>
						</clipPath>
						
							<g id="Grupo_1881_00000182507272542206669340000017296693567342503588_" style="clip-path:url(#SVGID_00000078002894808836673980000013722273239695767989_);">
							<path id="Caminho_2163_00000147933552168658291310000012072544840587260075_" class="st5" d="M-111.7,82.5h-43.1
								c-22.7,0-41.2-18.5-41.2-41.3S-177.5,0-154.8,0h43.1c22.8,0,41.2,18.5,41.2,41.2S-88.9,82.5-111.7,82.5"/>
						</g>
					</g>
				</g>
			</g>
			<g class="st2">
				<path class="st3" d="M-149.5,38.3v2.1h2.8v1.3h-2.8v2.2h3.2v1.4h-4.9v-8.4h4.9v1.4C-146.3,38.3-149.5,38.3-149.5,38.3z"/>
				<path class="st3" d="M-137.7,45.3h-1.7l-3.8-5.7v5.7h-1.7v-8.4h1.7l3.8,5.8v-5.8h1.7V45.3z"/>
				<path class="st3" d="M-134.7,45.1c-0.5-0.2-0.8-0.5-1.1-0.9s-0.4-0.8-0.4-1.3h1.8c0,0.3,0.1,0.6,0.4,0.8
					c0.2,0.2,0.5,0.3,0.9,0.3c0.4,0,0.7-0.1,0.9-0.3s0.3-0.4,0.3-0.7c0-0.2-0.1-0.5-0.2-0.6c-0.1-0.1-0.3-0.3-0.6-0.4
					s-0.5-0.2-0.9-0.3c-0.5-0.2-1-0.3-1.3-0.5s-0.6-0.4-0.9-0.7c-0.3-0.3-0.4-0.7-0.4-1.3c0-0.5,0.1-0.9,0.4-1.3
					c0.2-0.4,0.6-0.6,1-0.8c0.4-0.2,1-0.3,1.5-0.3c0.9,0,1.6,0.2,2.1,0.6s0.8,1,0.9,1.8h-1.8c0-0.3-0.1-0.5-0.4-0.7
					c-0.2-0.2-0.5-0.3-0.9-0.3c-0.3,0-0.6,0.1-0.8,0.3s-0.3,0.4-0.3,0.7c0,0.2,0.1,0.4,0.2,0.6c0.1,0.1,0.3,0.3,0.6,0.4
					c0.2,0.1,0.5,0.2,0.9,0.3c0.5,0.2,1,0.3,1.3,0.5c0.3,0.2,0.6,0.4,0.9,0.7c0.2,0.3,0.4,0.7,0.4,1.3c0,0.4-0.1,0.9-0.3,1.2
					c-0.2,0.3-0.6,0.7-1,0.9c-0.4,0.2-1,0.3-1.6,0.3C-133.7,45.4-134.2,45.3-134.7,45.1z"/>
				<path class="st3" d="M-127,36.9v8.4h-1.7v-8.4H-127z"/>
				<path class="st3" d="M-118.2,45.3h-1.7l-3.8-5.7v5.7h-1.7v-8.4h1.7l3.8,5.8v-5.8h1.7V45.3z"/>
				<path class="st3" d="M-114.8,44.8c-0.7-0.4-1.2-0.9-1.6-1.5c-0.4-0.7-0.6-1.4-0.6-2.2s0.2-1.5,0.6-2.2s0.9-1.2,1.6-1.5
					c0.7-0.4,1.4-0.6,2.2-0.6c0.8,0,1.5,0.2,2.2,0.6c0.7,0.4,1.2,0.9,1.5,1.5c0.4,0.7,0.6,1.4,0.6,2.2s-0.2,1.6-0.6,2.2
					c-0.4,0.7-0.9,1.2-1.6,1.5c-0.7,0.4-1.4,0.6-2.2,0.6S-114.2,45.2-114.8,44.8z M-111.3,43.5c0.4-0.2,0.7-0.6,0.9-1
					c0.2-0.4,0.3-0.9,0.3-1.5s-0.1-1-0.3-1.5c-0.2-0.4-0.5-0.7-0.9-1c-0.4-0.2-0.8-0.3-1.3-0.3s-0.9,0.1-1.3,0.3s-0.7,0.5-0.9,1
					c-0.2,0.4-0.3,0.9-0.3,1.5s0.1,1.1,0.3,1.5c0.2,0.4,0.5,0.8,0.9,1s0.8,0.3,1.3,0.3C-112.2,43.9-111.7,43.8-111.3,43.5z"/>
			</g>
			<g id="Grupo_1884_00000173158745021757698450000002617282654363542163_">
				<g>
					<g>
						<defs>
							<rect id="SVGID_00000145025300086369379530000015840938827794508460_" x="-196" width="274.4" height="179.2"/>
						</defs>
						<clipPath id="SVGID_00000165222402228812104640000017624667194148114319_">
							<use xlink:href="#SVGID_00000145025300086369379530000015840938827794508460_"  style="overflow:visible;"/>
						</clipPath>
						
							<g id="Grupo_1883_00000023267885970235834800000008860663433470223233_" style="clip-path:url(#SVGID_00000165222402228812104640000017624667194148114319_);">
							<path id="Caminho_2164_00000069382731429666918360000011299837090274900152_" class="st7" d="M37.2,179.2H-5.9
								c-22.8,0-41.2-18.5-41.2-41.2c0-22.8,18.5-41.3,41.2-41.3h43.1c22.8,0,41.3,18.5,41.3,41.3C78.4,160.8,60,179.2,37.2,179.2"
								/>
						</g>
					</g>
				</g>
			</g>
			<g class="st2">
				<path class="st3" d="M-0.6,138h-3.3l-0.6,1.6h-1.8l3-8.4h2l3,8.4H0L-0.6,138z M-1,136.7l-1.2-3.5l-1.2,3.5H-1z"/>
				<path class="st3" d="M8.6,131.2v1.4H6.4v7H4.7v-7H2.5v-1.4H8.6z"/>
				<path class="st3" d="M11.5,132.6v2.1h2.8v1.3h-2.8v2.2h3.2v1.4H9.8v-8.4h4.9v1.4H11.5z"/>
				<path class="st3" d="M23.4,139.6h-1.7l-3.8-5.7v5.7h-1.7v-8.4h1.7l3.8,5.8v-5.8h1.7V139.6z"/>
				<path class="st3" d="M30.1,137.9c0.3-0.2,0.6-0.5,0.8-0.9h1.9c-0.2,0.8-0.7,1.4-1.3,1.9s-1.3,0.7-2.1,0.8v0.5
					c0.4,0,0.8,0.1,1.1,0.3s0.4,0.5,0.4,1c0,0.4-0.2,0.8-0.5,1s-0.7,0.3-1.1,0.3h-1.7v-1H29c0.2,0,0.3,0,0.4-0.1
					c0.1-0.1,0.2-0.2,0.2-0.3s-0.1-0.2-0.2-0.3c-0.1-0.1-0.2-0.1-0.4-0.1h-0.7v-1.4c-0.7-0.1-1.4-0.3-1.9-0.7
					c-0.6-0.4-1-0.9-1.3-1.5s-0.5-1.3-0.5-2.1s0.2-1.6,0.6-2.2s0.9-1.2,1.5-1.5c0.6-0.4,1.4-0.5,2.2-0.5c0.9,0,1.8,0.2,2.5,0.7
					s1.2,1.1,1.5,2H31c-0.2-0.4-0.5-0.7-0.8-0.9s-0.8-0.3-1.2-0.3c-0.5,0-0.9,0.1-1.3,0.3c-0.4,0.2-0.7,0.5-0.9,1s-0.3,0.9-0.3,1.5
					s0.1,1,0.3,1.5s0.5,0.7,0.9,1c0.4,0.2,0.8,0.3,1.3,0.3C29.3,138.2,29.7,138.1,30.1,137.9z"/>
				<path class="st3" d="M39.4,138H36l-0.6,1.6h-1.8l3-8.4h2l3,8.4h-1.8L39.4,138z M36,129.4c0.3-0.3,0.6-0.4,1-0.4
					c0.2,0,0.3,0,0.4,0.1c0.1,0.1,0.3,0.1,0.4,0.2c0.2,0.2,0.4,0.2,0.6,0.2c0.3,0,0.5-0.2,0.5-0.5h0.9c-0.1,0.5-0.2,0.9-0.5,1.2
					s-0.6,0.4-1,0.4c-0.2,0-0.3,0-0.4-0.1s-0.3-0.1-0.4-0.2c-0.2-0.2-0.4-0.2-0.6-0.2c-0.3,0-0.5,0.2-0.5,0.5h-0.9
					C35.6,130,35.8,129.7,36,129.4z M38.9,136.7l-1.2-3.5l-1.2,3.5H38.9z"/>
				<path class="st3" d="M44.6,139.1c-0.7-0.4-1.2-0.9-1.6-1.5s-0.6-1.4-0.6-2.2s0.2-1.5,0.6-2.2s0.9-1.2,1.6-1.5
					c0.7-0.4,1.4-0.6,2.2-0.6s1.5,0.2,2.2,0.6c0.7,0.4,1.2,0.9,1.5,1.5c0.4,0.7,0.6,1.4,0.6,2.2s-0.2,1.6-0.6,2.2
					c-0.4,0.7-0.9,1.2-1.6,1.5s-1.4,0.6-2.2,0.6S45.2,139.5,44.6,139.1z M48,137.8c0.4-0.2,0.7-0.6,0.9-1s0.3-0.9,0.3-1.5
					s-0.1-1-0.3-1.5s-0.5-0.7-0.9-1c-0.4-0.2-0.8-0.3-1.3-0.3s-0.9,0.1-1.3,0.3c-0.4,0.2-0.7,0.5-0.9,1c-0.2,0.4-0.3,0.9-0.3,1.5
					s0.1,1.1,0.3,1.5s0.5,0.8,0.9,1s0.8,0.3,1.3,0.3C47.2,138.2,47.7,138.1,48,137.8z"/>
			</g>
			<g id="Grupo_1886_00000004545888548161126520000012080083107583253410_">
				<g>
					<g>
						<defs>
							<rect id="SVGID_00000171692916045682535750000007609945753199317897_" x="-196" width="274.4" height="179.2"/>
						</defs>
						<clipPath id="SVGID_00000052093209552925296310000009856363267566284436_">
							<use xlink:href="#SVGID_00000171692916045682535750000007609945753199317897_"  style="overflow:visible;"/>
						</clipPath>
						
							<g id="Grupo_1885_00000100375250778719750810000011559106463691064452_" style="clip-path:url(#SVGID_00000052093209552925296310000009856363267566284436_);">
							<path id="Caminho_2165_00000080889495700943720840000011154505249190158494_" class="st9" d="M-111.7,179.2h-43.1
								c-22.7,0-41.2-18.4-41.2-41.2s18.5-41.3,41.2-41.3h43.1c22.8,0,41.2,18.5,41.2,41.3C-70.4,160.8-88.9,179.2-111.7,179.2"/>
						</g>
					</g>
				</g>
			</g>
			<g class="st2">
				<path class="st3" d="M-163.3,132c0.4-0.7,0.9-1.2,1.5-1.5c0.6-0.4,1.4-0.5,2.2-0.5c0.9,0,1.8,0.2,2.5,0.7c0.7,0.5,1.2,1.1,1.5,2
					h-1.9c-0.2-0.4-0.5-0.7-0.8-0.9c-0.3-0.2-0.8-0.3-1.2-0.3c-0.5,0-0.9,0.1-1.3,0.3c-0.4,0.2-0.7,0.5-0.9,1s-0.3,0.9-0.3,1.5
					c0,0.6,0.1,1,0.3,1.5s0.5,0.7,0.9,1c0.4,0.2,0.8,0.3,1.3,0.3s0.9-0.1,1.2-0.3s0.6-0.5,0.8-0.9h1.9c-0.3,0.9-0.8,1.5-1.5,2
					c-0.7,0.5-1.5,0.7-2.5,0.7c-0.8,0-1.5-0.2-2.2-0.5c-0.6-0.4-1.2-0.9-1.5-1.5c-0.4-0.6-0.6-1.4-0.6-2.2
					C-163.9,133.4-163.7,132.7-163.3,132z"/>
				<path class="st3" d="M-152.5,138c-0.7-0.4-1.2-0.9-1.6-1.5c-0.4-0.7-0.6-1.4-0.6-2.2s0.2-1.5,0.6-2.2c0.4-0.7,0.9-1.2,1.6-1.5
					c0.7-0.4,1.4-0.6,2.2-0.6s1.5,0.2,2.2,0.6c0.7,0.4,1.2,0.9,1.5,1.5c0.4,0.7,0.6,1.4,0.6,2.2s-0.2,1.6-0.6,2.2
					c-0.4,0.7-0.9,1.2-1.6,1.5c-0.7,0.4-1.4,0.6-2.2,0.6C-151.2,138.6-151.9,138.3-152.5,138z M-149,136.7c0.4-0.2,0.7-0.6,0.9-1
					c0.2-0.4,0.3-0.9,0.3-1.5s-0.1-1-0.3-1.5c-0.2-0.4-0.5-0.7-0.9-1c-0.4-0.2-0.8-0.3-1.3-0.3s-0.9,0.1-1.3,0.3
					c-0.4,0.2-0.7,0.5-0.9,1c-0.2,0.4-0.3,0.9-0.3,1.5s0.1,1.1,0.3,1.5s0.5,0.8,0.9,1c0.4,0.2,0.8,0.3,1.3,0.3
					S-149.4,136.9-149,136.7z"/>
				<path class="st3" d="M-137.7,138.4h-1.7l-3.8-5.7v5.7h-1.7V130h1.7l3.8,5.8V130h1.7V138.4z"/>
				<path class="st3" d="M-130.3,130.1v1.4h-2.2v7h-1.7v-7h-2.2v-1.4H-130.3z"/>
				<path class="st3" d="M-124.8,138.4l-1.8-3.3h-0.8v3.3h-1.7V130h3.1c0.6,0,1.2,0.1,1.7,0.3c0.5,0.2,0.8,0.5,1,0.9
					s0.3,0.8,0.3,1.3c0,0.6-0.2,1-0.5,1.5c-0.3,0.4-0.8,0.8-1.4,0.9l2,3.4h-1.9V138.4z M-127.4,133.9h1.4c0.5,0,0.8-0.1,1-0.3
					s0.3-0.5,0.3-0.9c0-0.4-0.1-0.7-0.3-0.9c-0.2-0.2-0.6-0.3-1-0.3h-1.4V133.9z"/>
				<path class="st3" d="M-119.7,138c-0.7-0.4-1.2-0.9-1.6-1.5c-0.4-0.7-0.6-1.4-0.6-2.2s0.2-1.5,0.6-2.2s0.9-1.2,1.6-1.5
					c0.7-0.4,1.4-0.6,2.2-0.6c0.8,0,1.5,0.2,2.2,0.6s1.2,0.9,1.5,1.5c0.4,0.7,0.6,1.4,0.6,2.2s-0.2,1.6-0.6,2.2
					c-0.4,0.7-0.9,1.2-1.6,1.5c-0.7,0.4-1.4,0.6-2.2,0.6S-119,138.3-119.7,138z M-116.2,136.7c0.4-0.2,0.7-0.6,0.9-1
					c0.2-0.4,0.3-0.9,0.3-1.5s-0.1-1-0.3-1.5c-0.2-0.4-0.5-0.7-0.9-1c-0.4-0.2-0.8-0.3-1.3-0.3s-0.9,0.1-1.3,0.3s-0.7,0.5-0.9,1
					c-0.2,0.4-0.3,0.9-0.3,1.5s0.1,1.1,0.3,1.5c0.2,0.4,0.5,0.8,0.9,1s0.8,0.3,1.3,0.3S-116.5,136.9-116.2,136.7z"/>
				<path class="st3" d="M-110.3,137.1h2.8v1.3h-4.5V130h1.7V137.1z"/>
				<path class="st3" d="M-104.8,131.4v2.1h2.8v1.3h-2.8v2.2h3.2v1.4h-4.9V130h4.9v1.4C-101.6,131.4-104.8,131.4-104.8,131.4z"/>
			</g>
			<g class="st2">
				<path class="st3" d="M-153.6,150.5c-0.5-0.2-0.8-0.5-1.1-0.9s-0.4-0.8-0.4-1.3h1.8c0,0.3,0.1,0.6,0.4,0.8
					c0.2,0.2,0.5,0.3,0.9,0.3c0.4,0,0.7-0.1,0.9-0.3s0.3-0.4,0.3-0.7c0-0.2-0.1-0.5-0.2-0.6s-0.3-0.3-0.6-0.4s-0.5-0.2-0.9-0.3
					c-0.5-0.2-1-0.3-1.3-0.5c-0.3-0.2-0.6-0.4-0.9-0.7s-0.4-0.7-0.4-1.3c0-0.5,0.1-0.9,0.4-1.3c0.2-0.4,0.6-0.6,1-0.8s1-0.3,1.5-0.3
					c0.9,0,1.6,0.2,2.1,0.6s0.8,1,0.9,1.8h-1.8c0-0.3-0.1-0.5-0.4-0.7c-0.2-0.2-0.5-0.3-0.9-0.3c-0.3,0-0.6,0.1-0.8,0.3
					c-0.2,0.2-0.3,0.4-0.3,0.7c0,0.2,0.1,0.4,0.2,0.6c0.1,0.1,0.3,0.3,0.6,0.4c0.2,0.1,0.5,0.2,0.9,0.3c0.5,0.2,1,0.3,1.3,0.5
					c0.3,0.2,0.6,0.4,0.9,0.7c0.2,0.3,0.4,0.7,0.4,1.3c0,0.4-0.1,0.9-0.3,1.2c-0.2,0.3-0.6,0.7-1,0.9c-0.4,0.2-1,0.3-1.6,0.3
					S-153.1,150.7-153.6,150.5z"/>
				<path class="st3" d="M-145.9,150.3c-0.7-0.4-1.2-0.9-1.6-1.5c-0.4-0.7-0.6-1.4-0.6-2.2s0.2-1.5,0.6-2.2s0.9-1.2,1.6-1.5
					c0.7-0.4,1.4-0.6,2.2-0.6s1.5,0.2,2.2,0.6c0.7,0.4,1.2,0.9,1.5,1.5c0.4,0.7,0.6,1.4,0.6,2.2s-0.2,1.6-0.6,2.2
					c-0.4,0.7-0.9,1.2-1.6,1.5c-0.7,0.4-1.4,0.6-2.2,0.6S-145.2,150.7-145.9,150.3z M-142.4,149c0.4-0.2,0.7-0.6,0.9-1
					s0.3-0.9,0.3-1.5s-0.1-1-0.3-1.5c-0.2-0.4-0.5-0.7-0.9-1c-0.4-0.2-0.8-0.3-1.3-0.3s-0.9,0.1-1.3,0.3s-0.7,0.5-0.9,1
					c-0.2,0.4-0.3,0.9-0.3,1.5s0.1,1.1,0.3,1.5c0.2,0.4,0.5,0.8,0.9,1s0.8,0.3,1.3,0.3S-142.8,149.2-142.4,149z"/>
				<path class="st3" d="M-138,144.3c0.4-0.7,0.9-1.2,1.5-1.5c0.6-0.4,1.4-0.5,2.2-0.5c0.9,0,1.8,0.2,2.5,0.7s1.2,1.1,1.5,2h-1.9
					c-0.2-0.4-0.5-0.7-0.8-0.9c-0.3-0.2-0.8-0.3-1.2-0.3c-0.5,0-0.9,0.1-1.3,0.3c-0.4,0.2-0.7,0.5-0.9,1s-0.3,0.9-0.3,1.5
					s0.1,1,0.3,1.5s0.5,0.7,0.9,1c0.4,0.2,0.8,0.3,1.3,0.3s0.9-0.1,1.2-0.3c0.3-0.2,0.6-0.5,0.8-0.9h1.9c-0.3,0.9-0.8,1.5-1.5,2
					s-1.5,0.7-2.5,0.7c-0.8,0-1.5-0.2-2.2-0.5c-0.6-0.4-1.2-0.9-1.5-1.5c-0.4-0.6-0.6-1.4-0.6-2.2C-138.6,145.7-138.4,145-138,144.3
					z"/>
				<path class="st3" d="M-127.3,142.4v8.4h-1.7v-8.4H-127.3z"/>
				<path class="st3" d="M-120.5,149.2h-3.3l-0.6,1.6h-1.8l3-8.4h2l3,8.4h-1.8L-120.5,149.2z M-121,147.8l-1.2-3.5l-1.2,3.5H-121z"
					/>
				<path class="st3" d="M-115.4,149.4h2.8v1.3h-4.4v-8.4h1.7L-115.4,149.4L-115.4,149.4z"/>
			</g>
			<g id="Grupo_1888_00000176735181934268505690000004448765225065053858_">
				<g>
					<g>
						<defs>
							<rect id="SVGID_00000168800494537200530790000011748412402820530564_" x="-196" width="274.4" height="179.2"/>
						</defs>
						<clipPath id="SVGID_00000101791621930545869580000003620339698294558596_">
							<use xlink:href="#SVGID_00000168800494537200530790000011748412402820530564_"  style="overflow:visible;"/>
						</clipPath>
					</g>
				</g>
			</g>
		</g>
	</g>
	<path class="st3" d="M179.9,124.2h-75.4c-19.6,0-35.5-15.9-35.5-35.5v0c0-19.6,15.9-35.5,35.5-35.5h75.4
		c19.6,0,35.5,15.9,35.5,35.5v0C215.4,108.3,199.5,124.2,179.9,124.2z"/>
	<path class="st10" d="M177.3,120.8h-75.4c-19.6,0-35.5-15.9-35.5-35.5v0c0-19.6,15.9-35.5,35.5-35.5h75.4
		c19.6,0,35.5,15.9,35.5,35.5v0C212.8,104.9,196.9,120.8,177.3,120.8z"/>
	<g>
		<path class="st3" d="M91.8,83.2l-1.4-1.8c-0.4,0.1-0.8,0.1-1.2,0.1c-1,0-1.9-0.2-2.7-0.7s-1.5-1.1-2-1.9c-0.5-0.8-0.7-1.8-0.7-2.8
			s0.2-2,0.7-2.8c0.5-0.8,1.1-1.5,2-1.9s1.7-0.7,2.7-0.7c1,0,1.9,0.2,2.7,0.7c0.8,0.5,1.5,1.1,2,1.9c0.5,0.8,0.7,1.7,0.7,2.8
			c0,0.9-0.2,1.7-0.5,2.5c-0.4,0.7-0.9,1.4-1.5,1.9l2.3,2.8H91.8z M87.3,78.4c0.5,0.6,1.2,0.8,2,0.8c0.8,0,1.5-0.3,2-0.8
			c0.5-0.6,0.8-1.3,0.8-2.2c0-0.9-0.3-1.7-0.8-2.2c-0.5-0.6-1.2-0.8-2-0.8c-0.9,0-1.5,0.3-2,0.8c-0.5,0.6-0.8,1.3-0.8,2.2
			C86.5,77.1,86.8,77.8,87.3,78.4z"/>
		<path class="st3" d="M98.7,70.9v6.3c0,0.6,0.2,1.1,0.5,1.5c0.3,0.3,0.8,0.5,1.4,0.5c0.6,0,1.1-0.2,1.4-0.5
			c0.3-0.3,0.5-0.8,0.5-1.5v-6.3h2.6v6.3c0,0.9-0.2,1.7-0.6,2.4c-0.4,0.7-0.9,1.1-1.6,1.5c-0.7,0.3-1.4,0.5-2.3,0.5
			s-1.6-0.2-2.2-0.5c-0.7-0.3-1.2-0.8-1.6-1.5c-0.4-0.7-0.6-1.5-0.6-2.4v-6.3H98.7z"/>
		<path class="st3" d="M113.3,79.6h-3.9l-0.6,1.9H106l3.8-10.5h3l3.8,10.5h-2.7L113.3,79.6z M112.6,77.6l-1.3-3.9l-1.3,3.9H112.6z"
			/>
		<path class="st3" d="M124.6,71.6c0.8,0.4,1.5,1.1,1.9,1.9s0.7,1.7,0.7,2.8c0,1-0.2,1.9-0.7,2.7c-0.5,0.8-1.1,1.4-1.9,1.9
			c-0.8,0.4-1.8,0.7-2.9,0.7h-3.9V70.9h3.9C122.8,70.9,123.8,71.1,124.6,71.6z M123.8,78.4c0.5-0.5,0.8-1.3,0.8-2.2
			s-0.3-1.7-0.8-2.3s-1.3-0.8-2.3-0.8h-1.2v6.1h1.2C122.5,79.2,123.3,78.9,123.8,78.4z"/>
		<path class="st3" d="M134.1,81.4l-2.2-4h-0.6v4h-2.6V70.9h4.3c0.8,0,1.5,0.1,2.1,0.4s1,0.7,1.3,1.2s0.4,1.1,0.4,1.7
			c0,0.7-0.2,1.3-0.6,1.9c-0.4,0.5-1,0.9-1.7,1.2l2.4,4.2H134.1z M131.2,75.6h1.6c0.5,0,0.8-0.1,1.1-0.3c0.2-0.2,0.4-0.6,0.4-1
			c0-0.4-0.1-0.7-0.4-0.9c-0.2-0.2-0.6-0.3-1.1-0.3h-1.6V75.6z"/>
		<path class="st3" d="M141,70.9v10.5h-2.6V70.9H141z"/>
		<path class="st3" d="M145.5,79.4h3.4v2h-5.9V70.9h2.6V79.4z"/>
		<path class="st3" d="M156.6,79.6h-3.9l-0.6,1.9h-2.7l3.8-10.5h3l3.8,10.5h-2.7L156.6,79.6z M156.4,68.8l-3.6,1.5v-1.8l3.6-1.7
			V68.8z M155.9,77.6l-1.3-3.9l-1.3,3.9H155.9z"/>
		<path class="st3" d="M168.7,70.9v2.1h-2.8v8.5h-2.6v-8.5h-2.8v-2.1H168.7z"/>
		<path class="st3" d="M172.5,72.9v2.1h3.4v2h-3.4v2.3h3.9v2.1H170V70.9h6.5v2.1H172.5z"/>
		<path class="st3" d="M183.4,81.4l-2.2-4h-0.6v4h-2.6V70.9h4.3c0.8,0,1.5,0.1,2.1,0.4s1,0.7,1.3,1.2s0.4,1.1,0.4,1.7
			c0,0.7-0.2,1.3-0.6,1.9c-0.4,0.5-1,0.9-1.7,1.2l2.4,4.2H183.4z M180.6,75.6h1.6c0.5,0,0.8-0.1,1.1-0.3c0.2-0.2,0.4-0.6,0.4-1
			c0-0.4-0.1-0.7-0.4-0.9c-0.2-0.2-0.6-0.3-1.1-0.3h-1.6V75.6z"/>
		<path class="st3" d="M190.1,80.8c-0.8-0.5-1.5-1.1-2-1.9c-0.5-0.8-0.7-1.8-0.7-2.8s0.2-2,0.7-2.8c0.5-0.8,1.1-1.5,2-1.9
			s1.7-0.7,2.7-0.7s1.9,0.2,2.7,0.7c0.8,0.5,1.5,1.1,1.9,1.9c0.5,0.8,0.7,1.7,0.7,2.8s-0.2,2-0.7,2.8c-0.5,0.8-1.1,1.5-2,1.9
			s-1.7,0.7-2.7,0.7S190.9,81.3,190.1,80.8z M194.9,78.3c0.5-0.6,0.8-1.3,0.8-2.2c0-0.9-0.3-1.7-0.8-2.2s-1.2-0.8-2-0.8
			c-0.9,0-1.5,0.3-2,0.8c-0.5,0.6-0.8,1.3-0.8,2.2c0,0.9,0.3,1.7,0.8,2.2c0.5,0.6,1.2,0.8,2,0.8C193.7,79.2,194.4,78.9,194.9,78.3z"
			/>
		<path class="st3" d="M91.2,89.6c0.8,0.4,1.5,1.1,1.9,1.9s0.7,1.7,0.7,2.8c0,1-0.2,1.9-0.7,2.7c-0.5,0.8-1.1,1.4-1.9,1.9
			c-0.8,0.4-1.8,0.7-2.9,0.7h-3.9V88.9h3.9C89.4,88.9,90.4,89.1,91.2,89.6z M90.4,96.4c0.5-0.5,0.8-1.3,0.8-2.2s-0.3-1.7-0.8-2.3
			s-1.3-0.8-2.3-0.8h-1.2v6.1h1.2C89.1,97.2,89.8,96.9,90.4,96.4z"/>
		<path class="st3" d="M101.8,97.6h-3.9l-0.6,1.9h-2.7l3.8-10.5h3l3.8,10.5h-2.7L101.8,97.6z M101.1,95.6l-1.3-3.9l-1.3,3.9H101.1z"
			/>
		<path class="st3" d="M116.3,88.9v2.1H112v2.2h3.2v2H112v4.3h-2.6V88.9H116.3z"/>
		<path class="st3" d="M119.9,98.8c-0.8-0.5-1.5-1.1-2-1.9c-0.5-0.8-0.7-1.8-0.7-2.8s0.2-2,0.7-2.8c0.5-0.8,1.1-1.5,2-1.9
			s1.7-0.7,2.7-0.7c1,0,1.9,0.2,2.7,0.7c0.8,0.5,1.5,1.1,2,1.9c0.5,0.8,0.7,1.7,0.7,2.8s-0.2,2-0.7,2.8s-1.1,1.5-2,1.9
			c-0.8,0.5-1.7,0.7-2.7,0.7C121.7,99.5,120.8,99.3,119.9,98.8z M124.7,96.3c0.5-0.6,0.8-1.3,0.8-2.2c0-0.9-0.3-1.7-0.8-2.2
			c-0.5-0.6-1.2-0.8-2-0.8c-0.9,0-1.5,0.3-2,0.8c-0.5,0.6-0.8,1.3-0.8,2.2c0,0.9,0.3,1.7,0.8,2.2s1.2,0.8,2,0.8
			C123.5,97.2,124.2,96.9,124.7,96.3z"/>
		<path class="st3" d="M134.8,99.4l-2.2-4H132v4h-2.6V88.9h4.3c0.8,0,1.5,0.1,2.1,0.4s1,0.7,1.3,1.2s0.4,1.1,0.4,1.7
			c0,0.7-0.2,1.3-0.6,1.9c-0.4,0.5-1,0.9-1.7,1.2l2.4,4.2H134.8z M132,93.6h1.6c0.5,0,0.8-0.1,1.1-0.3c0.2-0.2,0.4-0.6,0.4-1
			c0-0.4-0.1-0.7-0.4-0.9c-0.2-0.2-0.6-0.3-1.1-0.3H132V93.6z"/>
		<path class="st3" d="M151.2,88.9v10.5h-2.6v-6.3l-2.4,6.3h-2.1l-2.4-6.3v6.3h-2.6V88.9h3l3,7.3l2.9-7.3H151.2z"/>
		<path class="st3" d="M159.6,97.6h-3.9l-0.6,1.9h-2.7l3.8-10.5h3l3.8,10.5h-2.7L159.6,97.6z M158.9,95.6l-1.3-3.9l-1.3,3.9H158.9z"
			/>
		<path class="st3" d="M170.2,96.8c0.4-0.2,0.7-0.6,0.9-1h2.8c-0.3,1-0.8,1.8-1.5,2.5c-0.7,0.6-1.6,1-2.7,1.2v0.6
			c0.5,0,1,0.1,1.4,0.4c0.4,0.3,0.6,0.7,0.6,1.3c0,0.6-0.2,1-0.6,1.3s-0.9,0.4-1.5,0.4h-2.3v-1.4h2c0.2,0,0.3,0,0.5-0.1
			c0.1-0.1,0.1-0.2,0.1-0.3c0-0.1,0-0.2-0.1-0.3c-0.1-0.1-0.2-0.1-0.5-0.1h-1.1v-1.9c-0.9-0.1-1.7-0.4-2.4-0.9
			c-0.7-0.5-1.2-1.1-1.6-1.9c-0.4-0.8-0.6-1.6-0.6-2.6c0-1,0.2-2,0.7-2.8c0.5-0.8,1.1-1.5,1.9-1.9c0.8-0.5,1.7-0.7,2.7-0.7
			c1.2,0,2.3,0.3,3.2,1c0.9,0.7,1.5,1.6,1.8,2.7h-2.8c-0.2-0.4-0.5-0.8-0.9-1s-0.8-0.3-1.3-0.3c-0.8,0-1.4,0.3-1.9,0.8
			c-0.5,0.6-0.7,1.3-0.7,2.2c0,0.9,0.2,1.7,0.7,2.2s1.1,0.8,1.9,0.8C169.4,97.2,169.8,97.1,170.2,96.8z"/>
		<path class="st3" d="M182.1,97.6h-3.9l-0.6,1.9h-2.7l3.8-10.5h3l3.8,10.5h-2.7L182.1,97.6z M179.2,85.9c0.2,0,0.4,0,0.6,0.1
			c0.2,0.1,0.4,0.2,0.6,0.3c0.2,0.1,0.3,0.2,0.4,0.2c0.1,0,0.2,0.1,0.3,0.1c0.4,0,0.6-0.2,0.6-0.7h1.3c-0.2,1.5-0.9,2.2-2.1,2.2
			c-0.2,0-0.4,0-0.6-0.1s-0.4-0.2-0.6-0.3c-0.2-0.1-0.3-0.2-0.4-0.2c-0.1,0-0.2-0.1-0.3-0.1c-0.4,0-0.6,0.2-0.7,0.7h-1.3
			C177.3,86.7,178,85.9,179.2,85.9z M181.4,95.6l-1.3-3.9l-1.3,3.9H181.4z"/>
		<path class="st3" d="M188.8,98.8c-0.8-0.5-1.5-1.1-2-1.9c-0.5-0.8-0.7-1.8-0.7-2.8s0.2-2,0.7-2.8c0.5-0.8,1.1-1.5,2-1.9
			s1.7-0.7,2.7-0.7s1.9,0.2,2.7,0.7c0.8,0.5,1.5,1.1,1.9,1.9c0.5,0.8,0.7,1.7,0.7,2.8s-0.2,2-0.7,2.8c-0.5,0.8-1.1,1.5-2,1.9
			s-1.7,0.7-2.7,0.7S189.6,99.3,188.8,98.8z M193.6,96.3c0.5-0.6,0.8-1.3,0.8-2.2c0-0.9-0.3-1.7-0.8-2.2s-1.2-0.8-2-0.8
			c-0.9,0-1.5,0.3-2,0.8c-0.5,0.6-0.8,1.3-0.8,2.2c0,0.9,0.3,1.7,0.8,2.2c0.5,0.6,1.2,0.8,2,0.8C192.4,97.2,193,96.9,193.6,96.3z"/>
	</g>
</g>
</svg>
