<?xml version="1.0" encoding="UTF-8"?><svg id="Camada_1" xmlns="http://www.w3.org/2000/svg" viewBox="0 0 175.97 125.72"><defs><style>.cls-1,.cls-2{fill:none;}.cls-2,.cls-3,.cls-4{opacity:.3;}.cls-5{opacity:.1;}.cls-6{fill:#007cff;}.cls-7{fill:#f0f0f0;}.cls-8{fill:#f5f5f5;}.cls-9{fill:#e7e7e7;}.cls-10,.cls-11,.cls-12,.cls-13,.cls-14,.cls-15,.cls-4,.cls-16{fill:#fff;}.cls-17{fill:#ececec;}.cls-18{fill:#e67b62;}.cls-19{fill:#d54c38;}.cls-20{fill:#e1e1e1;}.cls-21{fill:#1a2e35;}.cls-11,.cls-22{opacity:.2;}.cls-23,.cls-16{opacity:.4;}.cls-24,.cls-12{opacity:.6;}.cls-25,.cls-15{opacity:.7;}.cls-13{opacity:.5;}.cls-14{opacity:.8;}</style></defs><g><rect class="cls-17" x="146.68" y="120.91" width="11.66" height=".09"/><rect class="cls-17" x="113.51" y="121.86" width="3.06" height=".09"/><rect class="cls-17" x="139.58" y="117.64" width="6.75" height=".09"/><rect class="cls-17" x="18.46" y="118.23" width="15.2" height=".09"/><rect class="cls-17" x="36.8" y="118.23" width="2.23" height=".09"/><rect class="cls-17" x="46.27" y="119.72" width="32.97" height=".09"/><path class="cls-17" d="M83.42,99.55H15.46c-1.11,0-2.01-.9-2.01-2.01V2.01c0-1.11,.9-2.01,2.01-2.01H83.42c1.11,0,2.01,.9,2.01,2.01V97.54c0,1.11-.9,2.01-2.01,2.01ZM15.46,.09c-1.06,0-1.92,.86-1.92,1.92V97.54c0,1.06,.86,1.92,1.92,1.92H83.42c1.06,0,1.92-.86,1.92-1.92V2.01c0-1.06-.86-1.92-1.92-1.92H15.46Z"/><path class="cls-17" d="M159.54,99.55H91.58c-1.11,0-2.01-.9-2.01-2.01V2.01c0-1.11,.9-2.01,2.01-2.01h67.96c1.11,0,2.01,.9,2.01,2.01V97.54c0,1.11-.9,2.01-2.01,2.01ZM91.58,.09c-1.06,0-1.92,.86-1.92,1.92V97.54c0,1.06,.86,1.92,1.92,1.92h67.96c1.06,0,1.92-.86,1.92-1.92V2.01c0-1.06-.86-1.92-1.92-1.92H91.58Z"/><rect class="cls-17" y="115.24" width="175.97" height=".09"/></g><g><path class="cls-7" d="M87.51,72.29h-1.06v-12.64c0-2.79-2.14-5.2-4.93-5.34-2.9-.14-5.31,2.1-5.45,4.94,0,.14-.12,.25-.25,.25h-.54c-.14,0-.26-.12-.26-.26,.14-3.29,2.83-5.93,6.14-5.98,3.49-.06,6.35,2.92,6.35,6.41v12.62Z"/><g><rect class="cls-9" x="148.3" y="73.67" width="7.5" height="41.56"/><rect class="cls-8" x="69.05" y="73.67" width="81.3" height="41.56"/><polygon class="cls-20" points="150.35 82.32 69.05 82.32 69.05 83.03 89.02 83.03 89.02 115.23 89.72 115.23 89.72 83.03 109.15 83.03 109.15 115.23 109.86 115.23 109.86 83.03 129.29 83.03 129.29 115.23 129.99 115.23 129.99 83.03 150.35 83.03 150.35 82.32"/><g><path class="cls-9" d="M87,100.8h0c-.39,0-.7-.32-.7-.7v-3.17c0-.39,.32-.7,.7-.7h0c.39,0,.7,.32,.7,.7v3.17c0,.39-.32,.7-.7,.7Z"/><path class="cls-9" d="M91.75,100.8h0c-.39,0-.7-.32-.7-.7v-3.17c0-.39,.32-.7,.7-.7h0c.39,0,.7,.32,.7,.7v3.17c0,.39-.32,.7-.7,.7Z"/><path class="cls-9" d="M127.26,100.8h0c-.39,0-.7-.32-.7-.7v-3.17c0-.39,.32-.7,.7-.7h0c.39,0,.7,.32,.7,.7v3.17c0,.39-.32,.7-.7,.7Z"/><path class="cls-9" d="M132.01,100.8h0c-.39,0-.7-.32-.7-.7v-3.17c0-.39,.32-.7,.7-.7h0c.39,0,.7,.32,.7,.7v3.17c0,.39-.32,.7-.7,.7Z"/></g><rect class="cls-20" x="148.24" y="72.76" width="9.33" height="1.82"/><rect class="cls-17" x="67.29" y="72.76" width="83.76" height="1.82"/></g><path class="cls-9" d="M97.21,72.96h-27.77c-.37,0-.68-.3-.68-.68h0c0-.37,.3-.68,.68-.68h27.77c.37,0,.68,.3,.68,.68h0c0,.37-.3,.68-.68,.68Z"/><g><rect class="cls-20" x="89.11" y="70.48" width="1.05" height="1.34"/><polygon class="cls-7" points="90.61 70.81 88.65 70.81 89.04 68.47 90.23 68.47 90.61 70.81"/><rect class="cls-20" x="83.79" y="70.48" width="1.05" height="1.34"/><polygon class="cls-7" points="85.29 70.81 83.33 70.81 83.71 68.47 84.91 68.47 85.29 70.81"/></g></g><g><g><rect class="cls-20" x="106.52" y="6.15" width=".63" height="49.4"/><rect class="cls-20" x="145.96" y="6.15" width=".63" height="49.4"/></g><polygon class="cls-17" points="149.07 9.25 104.04 9.25 103.09 7.03 150.03 7.03 149.07 9.25"/><polygon class="cls-17" points="149.07 12.3 104.04 12.3 103.09 10.08 150.03 10.08 149.07 12.3"/><polygon class="cls-17" points="149.07 15.34 104.04 15.34 103.09 13.12 150.03 13.12 149.07 15.34"/><polygon class="cls-17" points="149.07 18.38 104.04 18.38 103.09 16.17 150.03 16.17 149.07 18.38"/><polygon class="cls-17" points="149.07 21.43 104.04 21.43 103.09 19.21 150.03 19.21 149.07 21.43"/><polygon class="cls-17" points="149.07 24.47 104.04 24.47 103.09 22.26 150.03 22.26 149.07 24.47"/><polygon class="cls-17" points="149.07 27.52 104.04 27.52 103.09 25.3 150.03 25.3 149.07 27.52"/><polygon class="cls-17" points="149.07 30.56 104.04 30.56 103.09 28.34 150.03 28.34 149.07 30.56"/><polygon class="cls-17" points="149.07 33.6 104.04 33.6 103.09 31.39 150.03 31.39 149.07 33.6"/><polygon class="cls-17" points="149.07 36.65 104.04 36.65 103.09 34.43 150.03 34.43 149.07 36.65"/><polygon class="cls-17" points="149.07 39.69 104.04 39.69 103.09 37.48 150.03 37.48 149.07 39.69"/><polygon class="cls-17" points="149.07 42.74 104.04 42.74 103.09 40.52 150.03 40.52 149.07 42.74"/><polygon class="cls-17" points="149.07 45.78 104.04 45.78 103.09 43.56 150.03 43.56 149.07 45.78"/><polygon class="cls-17" points="149.07 48.83 104.04 48.83 103.09 46.61 150.03 46.61 149.07 48.83"/><polygon class="cls-17" points="149.07 51.87 104.04 51.87 103.09 49.65 150.03 49.65 149.07 51.87"/><polygon class="cls-17" points="149.07 54.91 104.04 54.91 103.09 52.7 150.03 52.7 149.07 54.91"/><rect class="cls-20" x="103.09" y="54.91" width="46.93" height="1.27"/><rect class="cls-20" x="101.46" y="4.26" width="50.21" height="2.96"/><path class="cls-20" d="M101.97,34.02h0c-.28,0-.51-.23-.51-.51V16.26c0-.28,.23-.51,.51-.51h0c.28,0,.51,.23,.51,.51v17.24c0,.28-.23,.51-.51,.51Z"/><rect class="cls-20" x="101.79" y="6.62" width=".37" height="10.24"/></g><g><rect class="cls-20" x="42.95" y="90.33" width="14.87" height="2.29" transform="translate(100.76 182.94) rotate(180)"/><path class="cls-7" d="M42.51,91.65h16.19v20.31c0,1.81-1.47,3.27-3.27,3.27h-9.64c-1.81,0-3.27-1.47-3.27-3.27v-20.31h0Z" transform="translate(101.2 206.88) rotate(180)"/><rect class="cls-7" x="42.51" y="87.51" width="16.19" height="3.52" rx="1.53" ry="1.53" transform="translate(101.2 178.54) rotate(180)"/><polygon class="cls-20" points="53.94 115.23 61.51 115.23 61.51 114.17 53.94 113.47 53.94 115.23"/></g><g><path class="cls-20" d="M143.63,58.83h-6.55c-1.34,0-2.42,1.09-2.42,2.42v.81h1.3v-.81c0-.62,.5-1.12,1.12-1.12h6.55c.62,0,1.12,.5,1.12,1.12v.81h1.3v-.81c0-1.34-1.09-2.42-2.42-2.42Z"/><g><path class="cls-9" d="M133.7,62.07h15.92c.98,0,1.77,.79,1.77,1.77v7.34c0,.98-.79,1.77-1.77,1.77h-15.93c-.98,0-1.77-.79-1.77-1.77v-7.34c0-.98,.79-1.77,1.77-1.77Z"/><path class="cls-8" d="M131.22,62.07h15.92c.98,0,1.77,.79,1.77,1.77v7.34c0,.98-.79,1.77-1.77,1.77h-15.93c-.98,0-1.77-.79-1.77-1.77v-7.34c0-.98,.79-1.77,1.77-1.77Z"/><g><rect class="cls-10" x="135.09" y="63.33" width="8.31" height="8.31"/><g><rect class="cls-20" x="138.54" y="65.2" width="1.4" height="4.83"/><rect class="cls-20" x="138.54" y="65.2" width="1.4" height="4.83" transform="translate(71.63 206.86) rotate(-90)"/></g></g></g></g><g><path class="cls-21" d="M122.05,64.11c.23-.03,6.96,.64,7.4,7.85l-1.15,5h0c-5.44-2.02-11.44-1.94-16.82,.23l-.08,.03,.47-5.71s1.71-6.41,10.18-7.4Z"/><g><g><path class="cls-21" d="M107.91,98.94c.54,.05,.81,.07,1.35,.12,.5-8.62,1.46-17.09,2.9-25.6,.52-2.84,2.25-5.3,4.47-6.78,.96-.62,.87-.53,1.58-.86,1.05-.44,2.15-.69,3.27-.71h0c.49-.01,1.37,.11,1.37,.11,1.06,.17,2.02,.55,2.85,1.11,.34,.22,1.15,.99,1.15,.99,.19,.2,.37,.41,.53,.64,1.19,1.64,1.59,3.72,1.15,5.92-1.44,7.78-2.42,15.53-3,23.43,.54,.04,.81,.05,1.35,.09,.56-7.84,1.54-15.53,2.97-23.25,.51-2.58,.03-5.02-1.38-6.99-1.39-1.94-3.59-3.25-6.06-3.42-5.28-.36-10.77,3.94-11.59,9.44-1.46,8.57-2.42,17.09-2.93,25.77Z"/><path class="cls-4" d="M107.91,98.94c.54,.05,.81,.07,1.35,.12,.5-8.62,1.46-17.09,2.9-25.6,.52-2.84,2.25-5.3,4.47-6.78,.96-.62,.87-.53,1.58-.86,1.05-.44,2.15-.69,3.27-.71h0c.49-.01,1.37,.11,1.37,.11,1.06,.17,2.02,.55,2.85,1.11,.34,.22,1.15,.99,1.15,.99,.19,.2,.37,.41,.53,.64,1.19,1.64,1.59,3.72,1.15,5.92-1.44,7.78-2.42,15.53-3,23.43,.54,.04,.81,.05,1.35,.09,.56-7.84,1.54-15.53,2.97-23.25,.51-2.58,.03-5.02-1.38-6.99-1.39-1.94-3.59-3.25-6.06-3.42-5.28-.36-10.77,3.94-11.59,9.44-1.46,8.57-2.42,17.09-2.93,25.77Z"/></g><path class="cls-21" d="M95.85,94.82h31.09v.44c0,1.58-1.29,2.87-2.87,2.87h-25.35c-1.58,0-2.87-1.29-2.87-2.87v-.44h0Z" transform="translate(222.79 192.94) rotate(180)"/><g><polygon class="cls-21" points="125.89 125.28 127.54 125.28 126.19 98.12 124.08 98.12 125.89 125.28"/><polygon class="cls-4" points="125.89 125.28 127.54 125.28 126.19 98.12 124.08 98.12 125.89 125.28"/></g><g><polygon class="cls-21" points="114.85 125.28 116.5 125.28 115.6 98.12 113.5 98.12 114.85 125.28"/><polygon class="cls-4" points="114.85 125.28 116.5 125.28 115.6 98.12 113.5 98.12 114.85 125.28"/></g><g><polygon class="cls-21" points="106.29 125.28 107.94 125.28 109.29 98.12 107.19 98.12 106.29 125.28"/><polygon class="cls-4" points="106.29 125.28 107.94 125.28 109.29 98.12 107.19 98.12 106.29 125.28"/></g><g><polygon class="cls-21" points="95.25 125.28 96.9 125.28 98.7 98.12 96.6 98.12 95.25 125.28"/><polygon class="cls-4" points="95.25 125.28 96.9 125.28 98.7 98.12 96.6 98.12 95.25 125.28"/></g><g><rect class="cls-21" x="94.5" y="96.92" width="18.47" height="2.4" transform="translate(207.46 196.25) rotate(180)"/><rect class="cls-15" x="94.5" y="96.92" width="18.47" height="2.4" transform="translate(207.46 196.25) rotate(180)"/></g><rect class="cls-21" x="112.97" y="96.92" width="15.33" height="2.4" transform="translate(241.26 196.25) rotate(180)"/><rect class="cls-16" x="112.97" y="96.92" width="15.33" height="2.4" transform="translate(241.26 196.25) rotate(180)"/></g></g><g><g><path class="cls-6" d="M107.41,59.8c-3.36,.66-10.01,3.52-10.05,3.36,0,0-5.6-1.32-7.9-3.86,0,0-2.2-.27-3.35-.5,.84,1.97,2.46,4.35,4.27,5.49,2.3,1.44,2.92,1.88,5.2,2.75,2.84,1.08,7.2-.07,10.02-1.22,1.04-.43,2.1-.97,2.71-1.91,.61-.94,.04-3.47-.9-4.1Z"/><path class="cls-15" d="M107.41,59.8c-3.36,.66-10.01,3.52-10.05,3.36,0,0-5.6-1.32-7.9-3.86,0,0-2.2-.27-3.35-.5,.84,1.97,2.46,4.35,4.27,5.49,2.3,1.44,2.92,1.88,5.2,2.75,2.84,1.08,7.2-.07,10.02-1.22,1.04-.43,2.1-.97,2.71-1.91,.61-.94,.04-3.47-.9-4.1Z"/><g><path class="cls-6" d="M98.5,59.64h-8.36c-1.17-4.23,1.17-8.47,0-12.7h8.36c1.17,4.23-1.17,8.47,0,12.7Z"/><g class="cls-25"><path class="cls-10" d="M98.5,59.64h-8.36c-1.17-4.23,1.17-8.47,0-12.7h8.36c1.17,4.23-1.17,8.47,0,12.7Z"/></g></g><path class="cls-18" d="M91.44,57.38l-1.35,.65c-.15,.35-.42,.88-.81,1.09-.42,.22-.82,.41-1.19,.5-.6,.15-1.15,.07-1.69-.47-.19-.19-.24-.47-.13-.71l1.28-2.4c.15-.27,.41-.46,.72-.51l2.11-.33c.26-.04,.53,.07,.69,.28l.62,.81c.28,.37,.15,.9-.26,1.09Z"/></g><g><polygon class="cls-6" points="119.6 79.67 121.58 86.89 110.7 89.23 104.13 85.75 105.96 79.53 119.6 79.67"/><polygon class="cls-5" points="119.6 79.67 121.58 86.89 110.7 89.23 104.13 85.75 105.96 79.53 119.6 79.67"/><g><g id="freepik--Character--inject-5"><path class="cls-6" d="M104.9,63.96c-.25,2.35-.16,3.66-.03,5.57,.1,2.49,.65,5.11,1.32,9.15,1.36,.8,8.26,.47,12.68-.1-.27-3.53,.17-7.57,2.57-15.52,.56-1.84-.68-3.61-2.66-3.8-.53-.05-1.09-.09-1.67-.12-2.02-.13-4.04-.13-6.05,0-.65,.06-1.34,.14-1.99,.22-2.35,.31-3.74,2.12-4.17,4.61Z"/><path class="cls-6" d="M105.96,79.53c4.45,.49,8.94,.48,13.39-.03,.17-.04,.28-.21,.24-.39,0-.01,0-.03-.01-.04-.11-.26-.22-.51-.32-.77-.05-.12-.16-.19-.29-.18-4.28,.47-8.6,.47-12.88,0-.16-.02-.3,.09-.32,.25v.02c-.03,.27-.06,.53-.08,.8-.02,.16,.1,.31,.26,.33h0Z"/><g><path class="cls-6" d="M110.9,59.03c-3.29,4.22-3.53,14.66-2.69,35.17,.07,1.79-1.64,1.66-3.32,1.31-2.5-.51-3.49-.33-3.49-.33,0,0,3.98-10.47,3.34-19.86-.65-9.39-.2-12.71,1.33-14.44,1.52-1.74,4.83-1.84,4.83-1.84Z"/><path class="cls-15" d="M110.9,59.03c-3.29,4.22-3.53,14.66-2.69,35.17,.07,1.79-1.55,1.59-3.32,1.31-2.3-.37-3.49-.33-3.49-.33,0,0,3.98-10.47,3.34-19.86-.65-9.39-.2-12.71,1.33-14.44,1.52-1.74,4.83-1.84,4.83-1.84Z"/></g><path class="cls-18" d="M116.7,52.32c-.53,1.94-1.17,5.52,.09,6.82,0,0-1.67,1.34-5.22,2.63-1.06-.27-.84-2.63-.84-2.63,2.21-.52,2.28-2.13,2.01-3.64l3.95-3.18Z"/><path class="cls-22" d="M115.09,53.61l-2.34,1.88c.07,.35,.1,.71,.11,1.07,.84-.12,2.05-1.03,2.2-1.9,.07-.35,.08-.7,.03-1.05Z"/><path class="cls-21" d="M113.06,45.19c-2.29,3.07-3.31,7.06-2.77,10.85-1.11-2.11-2.12-.96-2.19-3.34-.04-1.2,.59-6.05,1.12-7.12s1.62-1.94,2.82-1.89c.43,.02,.86,.16,1.16,.47,.29,.31,.13,.69-.13,1.03Z"/><path class="cls-18" d="M118.36,48.41c-.59,3.15-.77,4.49-2.58,6-2.7,2.26-6.41,1.07-6.78-2.14-.32-2.89,.7-7.55,3.94-8.59,2.13-.78,4.48,.32,5.26,2.44,.27,.73,.32,1.52,.15,2.28Z"/><path class="cls-21" d="M112.9,49.13c-.08,.26-.27,.44-.44,.4-.16-.04-.24-.28-.17-.53,.07-.26,.27-.44,.44-.4,.16,.04,.24,.28,.17,.54Z"/><path class="cls-21" d="M110.22,48.48c-.08,.26-.27,.44-.44,.4s-.24-.28-.16-.53c.08-.26,.27-.44,.44-.4,.17,.04,.24,.27,.16,.53Z"/><path class="cls-21" d="M110.13,47.98l-.56-.32s.17,.56,.56,.32Z"/><path class="cls-19" d="M110.97,49.1c-.4,.54-.87,1.03-1.39,1.45,.24,.39,.86,.37,.86,.37l.53-1.82Z"/><path class="cls-21" d="M111.63,52.19c-.15,0-.29-.03-.44-.06-.04,0-.07-.05-.06-.09h0s.06-.07,.1-.06c.66,.15,1.35-.01,1.88-.44,.03-.03,.08-.02,.11,.02h0s.02,.08-.02,.11h0c-.44,.36-1.01,.55-1.58,.53Z"/><g><path class="cls-21" d="M110.69,44.09c.99-1.35,3.66-1.72,5.23-1.35,5.56,1.33,3.01,5.95,6.23,8.55-.93,1.68-1.84,1.32-2.93,2.08-.64,.44-2.33,1.82-3.09,1.76,.04-1.57,.73-3.38,.41-4.92-.32-1.54-.94-3.03-1.97-4.17-1.02-1.14-2.41-2.02-3.89-1.95Z"/><path class="cls-22" d="M110.69,44.09c.99-1.35,3.66-1.72,5.23-1.35,5.56,1.33,3.01,5.95,6.23,8.55-.93,1.68-1.84,1.32-2.93,2.08-.64,.44-2.33,1.82-3.09,1.76,.04-1.57,.73-3.38,.41-4.92-.32-1.54-.94-3.03-1.97-4.17-1.02-1.14-2.41-2.02-3.89-1.95Z"/></g><g><path class="cls-21" d="M110.69,44.09c.99-1.35,3.66-1.72,5.23-1.35,5.56,1.33,3.01,5.95,6.23,8.55-.93,1.68-1.84,1.32-2.93,2.08-.64,.44-2.33,1.82-3.09,1.76,.04-1.57,.73-3.38,.41-4.92-.32-1.54-.94-3.03-1.97-4.17-1.02-1.14-2.41-2.02-3.89-1.95Z"/><path class="cls-5" d="M110.69,44.09c.99-1.35,3.66-1.72,5.23-1.35,5.56,1.33,3.01,5.95,6.23,8.55-.93,1.68-1.84,1.32-2.93,2.08-.64,.44-2.33,1.82-3.09,1.76,.04-1.57,.73-3.38,.41-4.92-.32-1.54-.94-3.03-1.97-4.17-1.02-1.14-2.41-2.02-3.89-1.95Z"/></g><path class="cls-18" d="M118.17,51.59c-.33,.53-.86,.89-1.47,1-.75,.1-.97-.77-.62-1.57,.32-.72,1.07-1.65,1.76-1.38,.69,.27,.77,1.26,.33,1.95Z"/><path class="cls-21" d="M114.1,48.1s-.07-.04-.08-.08c-.13-.36-.44-.64-.81-.73-.08-.01-.13-.08-.12-.16v-.02c.02-.09,.11-.14,.19-.13,.48,.11,.87,.45,1.04,.91,.03,.08-.02,.17-.1,.2-.04,.02-.08,.02-.12,0Z"/><path class="cls-21" d="M109.63,46.96c-.08,0-.14-.07-.14-.15,0-.05,.03-.09,.06-.11,.38-.34,.9-.49,1.4-.4,.08,.02,.12,.1,.1,.18h0c-.03,.09-.11,.14-.2,.12-.4-.07-.81,.05-1.11,.33-.03,.03-.08,.04-.12,.04Z"/><path class="cls-21" d="M112.8,48.63l-.56-.32s.17,.55,.56,.32Z"/></g><path class="cls-21" d="M111.17,43.95c-.23,.27-.44,.56-.56,.89-.12,.33-.13,.72,.06,1.02,.16,.26,.44,.43,.73,.55,.29,.13,.59,.22,.9,.28-.34-.3-.46-.7-.36-1.14,.02,.37,.35,.78,.66,.97,.31,.19,.67,.29,1,.45,1.03,.52,2.95,3.23,1.53,8.86,1.26-.47,3.02-4.89,2.73-6.2-.29-1.31-.34-4.67-3.7-5.85-.9-.31-2.06-.1-2.98,.16Z"/></g><g><polygon class="cls-18" points="94.91 122.28 91.89 122.57 90.09 114.05 93.66 113.64 94.91 122.28"/><path class="cls-21" d="M90.64,121.86c.28-.29,.66-.45,1.06-.48l3.24-.23c.15-.02,.29,.09,.32,.24l.62,3.01c.08,.34-.14,.68-.49,.76h-.02c-1.22,.32-1.99,.07-3.86,.19-1.15,.08-3.61,.54-5.18,.28-1.57-.26-1.37-1.82-.7-1.85,2.4-.08,4.38-1.27,5-1.92Z"/><g class="cls-22"><polygon points="90.09 114.05 91.14 119.01 94.34 118.34 93.66 113.64 90.09 114.05"/></g><path class="cls-6" d="M109.04,96.39c-.12,0-.24,0-.37-.01-.2,0-.41-.02-.62-.04l-16.19-.87c2.61,2.39,3.04,21.6,3.04,21.6l-.78,.17-3.51,.75h0l-.64,.14s-1.47-6.29-3.17-13.5c-.86-3.65-1.97-7.43-2.45-11.06-.13-.98-.21-1.95-.23-2.91,0-.3,0-.59,0-.89,0-.03,0-.06,0-.09,0-.13,.01-.25,.03-.37,.08-.6,.33-1.13,.71-1.59,.04-.05,.08-.09,.12-.14,.04-.04,.08-.09,.13-.13,.09-.09,.17-.17,.27-.25,.1-.08,.2-.16,.3-.24,.09-.06,.18-.13,.27-.19,.11-.07,.23-.14,.34-.2,.06-.03,.12-.07,.18-.1,.19-.1,.37-.19,.57-.27,.06-.02,.11-.05,.17-.07,.08-.03,.16-.06,.24-.09,.07-.03,.14-.06,.21-.08,.21-.08,.44-.15,.67-.21,.04-.01,.07-.02,.11-.03,.01,0,.02,0,.03,0,6.14-1.74,16.59-.4,16.59-.4,0,0,2.76-2.04,5.69-2.43,.14,.02,.27,.03,.41,.05,.42,.04,.85,.09,1.31,.14,.02,0,.04,0,.06,0,4.29,7.54,1.62,13.26-3.5,13.31Z"/><g class="cls-5"><path d="M109.04,96.39c-.12,0-.24,0-.37-.01-.2,0-.41-.02-.62-.04l-16.19-.87c2.61,2.39,3.04,21.6,3.04,21.6l-.78,.17-3.51,.75h0l-.64,.14s-1.47-6.29-3.17-13.5c-.86-3.65-1.97-7.43-2.45-11.06-.13-.98-.21-1.95-.23-2.91,0-.3,0-.59,0-.89,0-.03,0-.06,0-.09,0-.13,.01-.25,.03-.37,.08-.6,.33-1.13,.71-1.59,.04-.05,.08-.09,.12-.14,.04-.04,.08-.09,.13-.13,.09-.09,.17-.17,.27-.25,.1-.08,.2-.16,.3-.24,.09-.06,.18-.13,.27-.19,.11-.07,.23-.14,.34-.2,.06-.03,.12-.07,.18-.1,.19-.1,.37-.19,.57-.27,.06-.02,.11-.05,.17-.07,.08-.03,.16-.06,.24-.09,.07-.03,.14-.06,.21-.08,.21-.08,.44-.15,.67-.21,.04-.01,.07-.02,.11-.03,.01,0,.02,0,.03,0,6.14-1.74,16.59-.4,16.59-.4,0,0,2.76-2.04,5.69-2.43,.14,.02,.27,.03,.41,.05,.42,.04,.85,.09,1.31,.14,.02,0,.04,0,.06,0,4.29,7.54,1.62,13.26-3.5,13.31Z"/></g><polygon class="cls-18" points="74.89 107.81 74.03 109.14 72.1 112.1 68.87 112.44 71.32 107.3 72.98 103.8 74.89 107.81"/><path class="cls-21" d="M69.69,110.22l2.67,1.67c.13,.07,.19,.23,.12,.37l-1.31,3.06c-.16,.31-.53,.43-.84,.27h-.02c-1.24-.77-1.8-1.19-3.39-2.12-.97-.57-2.58-1.5-3.92-2.29-1.34-.79-.62-2.15,.02-1.94,2.84,.94,4.73,1.07,6,.86,.23-.04,.46,0,.66,.12Z"/><g class="cls-22"><polygon points="74.89 107.81 74.03 109.14 74.03 109.14 71.32 107.3 72.98 103.8 74.89 107.81"/></g><path class="cls-6" d="M110.08,96.69c-.32-.04-.67-.11-1.04-.2-.12-.03-.24-.06-.37-.1-2.97-.85-7.25-3.2-11.23-5.5-3.67-2.12-7.07-4.21-8.95-5.08-.01,0-.02,0-.03,0-.04,.01-.08,.02-.11,.03-.23,.06-.45,.14-.67,.21-.07,.02-.14,.05-.21,.08-.08,.03-.16,.06-.24,.09-.06,.03-.11,.05-.17,.07-.2,.09-.39,.18-.57,.27-.06,.03-.12,.06-.18,.1-.12,.07-.23,.13-.34,.2-.1,.06-.18,.13-.27,.19-.1,.08-.2,.16-.3,.24-.1,.08-.18,.16-.27,.25-.04,.04-.09,.09-.13,.13-.04,.04-.08,.09-.12,.14-.38,.46-.63,.99-.71,1.59-.01,.12-.03,.24-.03,.37-.01,.3-.01,.59,0,.89,.01,.96,.09,1.94,.22,2.93v.07c-4.41,7.97-9.01,15.2-9.01,15.2l-.78-.54-2.82-1.93-.49-.34s4.91-11.5,8.28-21.74c1.27-3.86,4.88-6.47,8.95-6.43,8.33,.07,19.27,4.68,19.27,4.68,0,0,1.28,.13,3,.32,.14,.02,.27,.03,.41,.05,.42,.04,.85,.09,1.31,.14,.02,0,.04,0,.06,0,.71,.08,1.49,.14,2.26,.19,1.73,.12,3.19,1.33,3.65,3,2.21,8.11-3.11,11.06-8.36,10.41Z"/><path class="cls-6" d="M110.08,96.69c-.32-.04-.67-.11-1.04-.2-.12-.03-.24-.06-.37-.1-2.97-.85-7.25-3.2-11.23-5.5-3.67-2.12-7.07-4.21-8.95-5.08-.01,0-.02,0-.03,0-.04,.01-.08,.02-.11,.03-.23,.06-.45,.14-.67,.21-.07,.02-.14,.05-.21,.08-.08,.03-.16,.06-.24,.09-.06,.03-.11,.05-.17,.07-.2,.09-.39,.18-.57,.27-.06,.03-.12,.06-.18,.1-.12,.07-.23,.13-.34,.2-.1,.06-.18,.13-.27,.19-.1,.08-.2,.16-.3,.24-.1,.08-.18,.16-.27,.25-.04,.04-.09,.09-.13,.13-.04,.04-.08,.09-.12,.14-.38,.46-.63,.99-.71,1.59-.01,.12-.03,.24-.03,.37-.01,.3-.01,.59,0,.89,.01,.96,.09,1.94,.22,2.93v.07c-4.41,7.97-9.01,15.2-9.01,15.2l-.78-.54-2.82-1.93-.49-.34s4.91-11.5,8.28-21.74c1.27-3.86,4.88-6.47,8.95-6.43,8.33,.07,19.27,4.68,19.27,4.68,0,0,1.28,.13,3,.32,.14,.02,.27,.03,.41,.05,.42,.04,.85,.09,1.31,.14,.02,0,.04,0,.06,0,.71,.08,1.49,.14,2.26,.19,1.73,.12,3.19,1.33,3.65,3,2.21,8.11-3.11,11.06-8.36,10.41Z"/><path class="cls-6" d="M88.46,85.71h0s-.08,.03-.11,.04c.04-.01,.07-.03,.11-.04Z"/></g></g><g><path class="cls-6" d="M116.93,58.83s-2.29,2.04-2.98,6.94c-1.09,7.92-.52,23.18-.11,31.89,.06,1.28,1.35,2.13,2.55,1.68,2.72-1.02,7.17-.22,9.16-1.94,.14-2.63-4.42-16.04-3.98-22.99,.45-6.94,1.31-12.99,.41-14.3-.9-1.31-5.06-1.29-5.06-1.29Z"/><path class="cls-15" d="M116.93,58.83s-2.29,2.04-2.98,6.94c-1.09,7.92-.46,23.18-.05,31.89,.06,1.28,1.35,2.13,2.55,1.68,2.72-1.02,7.11-.22,9.1-1.94,.14-2.63-4.42-16.04-3.98-22.99,.45-6.94,1.31-12.99,.41-14.3-.9-1.31-5.06-1.29-5.06-1.29Z"/></g><g><path class="cls-21" d="M116.83,69.25c-.06,0-.11-.06-.11-.12,0-.04,.03-.08,.06-.1l.49-.24c.94-.45,1.49-1.43,1.4-2.47l-.4-4.76c-.07-.87-.84-1.52-1.71-1.45-.59,.05-1.11,.43-1.34,.98l-1.82,4.41c-.4,.96-.17,2.06,.59,2.78l.4,.38s.04,.12,0,.16c-.05,.04-.12,.04-.16,0l-.4-.38c-.82-.78-1.07-1.99-.63-3.04l1.83-4.41c.39-.93,1.45-1.37,2.38-.98,.63,.26,1.06,.85,1.12,1.52l.4,4.76c.1,1.13-.52,2.21-1.55,2.7l-.49,.24s-.04,.02-.06,.01Z"/><path class="cls-21" d="M118.47,62.61c-.06,0-.11-.05-.11-.1-.12-.79-.76-1.4-1.55-1.47-.65-.1-1.55,.08-1.93,.93-.02,.06-.09,.09-.15,.07-.06-.02-.09-.09-.07-.15h0c.56-1.04,1.85-1.41,2.87-.84,.55,.3,.93,.83,1.05,1.44,0,.06-.04,.12-.1,.13h-.02Z"/><path class="cls-21" d="M116.95,60.13h0c-.06,0-.11-.06-.11-.12h0c.05-.58,0-1.62-.54-1.91-.06-.03-.08-.1-.05-.16,.03-.06,.1-.08,.16-.05h0c.77,.42,.66,1.96,.64,2.13,0,.06-.05,.11-.11,.11Z"/><path class="cls-21" d="M114.58,68.78c-.04,.22-.18,.38-.32,.35-.14-.02-.23-.22-.2-.43,.04-.22,.18-.38,.32-.35,.14,.02,.23,.22,.2,.43Z"/><path class="cls-21" d="M117.09,69.18c-.03,.22-.18,.38-.32,.35-.14-.02-.23-.22-.2-.44,.04-.22,.18-.38,.32-.35s.23,.22,.2,.44Z"/></g><g><path class="cls-21" d="M110.74,64.61c-.12,.49-.48,.82-.79,.74-.31-.08-.49-.53-.37-1.03,.12-.5,.48-.82,.79-.74,.31,.08,.48,.54,.37,1.03Z"/><path class="cls-21" d="M109.74,64.44h-.02c-.06,0-.11-.06-.11-.12,.12-1.97,1.3-5.23,2.58-6.3,.04-.05,.12-.05,.17-.01,.05,.04,.05,.12,.01,.17,0,0-.02,.02-.03,.02-1.24,1.04-2.38,4.19-2.49,6.13,0,.06-.04,.1-.1,.11Z"/><path class="cls-10" d="M111.09,64.66c-.08,.42-.39,.71-.69,.66-.3-.06-.49-.44-.42-.86,.08-.42,.39-.71,.69-.66,.3,.06,.49,.44,.42,.86Z"/><path class="cls-21" d="M111.12,64.7c-.11,.52-.39,.9-.63,.85-.24-.05-.34-.51-.23-1.03,.11-.52,.39-.9,.63-.85,.24,.05,.34,.51,.23,1.03Z"/></g><g><path class="cls-21" d="M106.36,75.95l-7.34,.14c-.28,0-.53-.22-.57-.5l-1.39-11.24c-.03-.28,.16-.51,.44-.52l7.34-.14c.28,0,.53,.22,.57,.5l1.39,11.24c.03,.28-.16,.51-.44,.52Z"/><path class="cls-21" d="M102.16,64.65l-1.76,.03c-.35,0-.67-.27-.71-.62l-.13-1.04,3.02-.06,.13,1.04c.04,.35-.21,.64-.56,.64Z"/><path class="cls-15" d="M102.16,64.65l-1.76,.03c-.35,0-.67-.27-.71-.62l-.13-1.04,3.02-.06,.13,1.04c.04,.35-.21,.64-.56,.64Z"/><path class="cls-10" d="M105.18,63.74h-.35c.28,0,.53,.22,.57,.5l1.39,11.24c.03,.28-.16,.51-.44,.52h.35c.28-.01,.48-.24,.44-.52l-1.39-11.24c-.03-.28-.29-.5-.57-.5Z"/></g><path class="cls-22" d="M119.45,61.77c.11,.24-2.27,9.72-2.27,9.72l1.81,.8,.46-10.52Z"/><g><path class="cls-6" d="M123.36,67.89c-.41,3.72-.8,5.18-1.06,5.58-1.37,5.04-5.71,2.51-6.34,2.3-1.09-.36-2.2-1.09-3.24-1.57-2.01-.91-3.91-1.63-5.8-2.79l.96-2.08s7.23,1.57,8.17,1.77c.41,.09,2.47,.43,2.42-.67,.21-.37,.4-6.75,.99-9.29,.07-.29,.19-.55,.37-.79l.06-.08c.4-.53,.65-.53,1.38-.5,1.57,.06,2.31,1.28,2.48,2.84h0c.16,1.45-.24,3.84-.4,5.29Z"/><g class="cls-25"><path class="cls-10" d="M123.36,67.89c-.41,3.72-.8,5.18-1.06,5.58-1.37,5.04-5.71,2.51-6.34,2.3-1.09-.36-2.2-1.09-3.24-1.57-2.01-.91-3.91-1.63-5.8-2.79l.96-2.08s7.23,1.57,8.17,1.77c.41,.09,2.47,.43,2.42-.67,.21-.37,.4-6.75,.99-9.29,.07-.29,.19-.55,.37-.79l.06-.08c.4-.53,.65-.53,1.38-.5,1.57,.06,2.31,1.28,2.48,2.84h0c.16,1.45-.24,3.84-.4,5.29Z"/></g><g><path class="cls-18" d="M107.98,69.58h0c.24,1.07-.48,2.12-1.56,2.29-.88,.14-1.74,.07-1.74,.07l-.13-3.57,2.73,.53c.35,.07,.62,.34,.7,.68Z"/><path class="cls-18" d="M104.55,68.36l.14,3.58-1.33,.08c-.8,.05-1.53-.49-1.71-1.27l-.02-.08c-.22-.92,.38-1.83,1.31-2.01l1.61-.3Z"/></g></g></g><g><g><polygon class="cls-21" points="72.22 66.3 71.26 75.97 72.82 75.97 72.22 66.3"/><g><g><polygon class="cls-6" points="83.85 75.91 72.66 75.96 72.11 66.3 83.31 66.25 83.85 75.91"/><polygon class="cls-12" points="83.85 75.91 72.66 75.96 72.11 66.3 83.31 66.25 83.85 75.91"/></g><polygon class="cls-21" points="83.31 66.25 72.11 66.3 72.01 64.49 83.2 64.44 83.31 66.25"/><g><g><path class="cls-6" d="M73.68,63.89c0-.16-.15-.3-.32-.3-.16,0-.29,.13-.28,.3,0,.11,.06,1.09,.07,1.19,0,.16,.15,.3,.32,.3,.16,0,.29-.13,.28-.3l-.07-1.19Z"/><path class="cls-6" d="M75.84,63.88c0-.16-.15-.3-.32-.3-.16,0-.29,.13-.28,.3l.07,1.19c0,.16,.15,.3,.32,.3,.16,0,.29-.13,.28-.3l-.07-1.19Z"/><path class="cls-6" d="M77.99,63.87c0-.16-.15-.3-.32-.3-.16,0-.29,.13-.28,.3,0,.11,.06,1.09,.07,1.19,0,.16,.15,.3,.32,.3,.16,0,.29-.13,.28-.3l-.07-1.19Z"/><path class="cls-6" d="M80.15,63.86c0-.16-.15-.3-.32-.3-.16,0-.29,.13-.28,.3,0,.11,.06,1.09,.07,1.19,0,.16,.15,.3,.32,.3,.16,0,.29-.13,.28-.3,0-.08-.06-1.11-.07-1.19Z"/><path class="cls-6" d="M82.3,63.85c0-.16-.15-.3-.32-.3-.16,0-.29,.13-.28,.3l.07,1.19c0,.16,.15,.3,.32,.3,.16,0,.29-.13,.28-.3l-.07-1.19Z"/></g><g class="cls-25"><path class="cls-10" d="M73.68,63.89c0-.16-.15-.3-.32-.3-.16,0-.29,.13-.28,.3,0,.11,.06,1.09,.07,1.19,0,.16,.15,.3,.32,.3,.16,0,.29-.13,.28-.3l-.07-1.19Z"/><path class="cls-10" d="M75.84,63.88c0-.16-.15-.3-.32-.3-.16,0-.29,.13-.28,.3l.07,1.19c0,.16,.15,.3,.32,.3,.16,0,.29-.13,.28-.3l-.07-1.19Z"/><path class="cls-10" d="M77.99,63.87c0-.16-.15-.3-.32-.3-.16,0-.29,.13-.28,.3,0,.11,.06,1.09,.07,1.19,0,.16,.15,.3,.32,.3,.16,0,.29-.13,.28-.3l-.07-1.19Z"/><path class="cls-10" d="M80.15,63.86c0-.16-.15-.3-.32-.3-.16,0-.29,.13-.28,.3,0,.11,.06,1.09,.07,1.19,0,.16,.15,.3,.32,.3,.16,0,.29-.13,.28-.3,0-.08-.06-1.11-.07-1.19Z"/><path class="cls-10" d="M82.3,63.85c0-.16-.15-.3-.32-.3-.16,0-.29,.13-.28,.3l.07,1.19c0,.16,.15,.3,.32,.3,.16,0,.29-.13,.28-.3l-.07-1.19Z"/></g></g><g><polygon class="cls-6" points="84.17 75.64 72.97 75.69 72.11 66.3 83.31 66.25 84.17 75.64"/><polygon class="cls-14" points="84.17 75.64 72.97 75.69 72.11 66.3 83.31 66.25 84.17 75.64"/></g><g><polygon class="cls-6" points="80.94 68.57 75.39 68.59 75.24 66.94 80.78 66.92 80.94 68.57"/><polygon class="cls-12" points="80.94 68.57 75.39 68.59 75.24 66.94 80.78 66.92 80.94 68.57"/></g><polygon class="cls-10" points="74.66 70.73 73.18 70.74 73.04 69.26 74.52 69.25 74.66 70.73"/><polygon class="cls-10" points="76.76 70.72 75.28 70.73 75.14 69.25 76.62 69.24 76.76 70.72"/><polygon class="cls-6" points="74.84 72.73 73.36 72.73 73.22 71.25 74.7 71.25 74.84 72.73"/><polygon class="cls-6" points="75.02 74.72 73.54 74.73 73.41 73.25 74.89 73.24 75.02 74.72"/><g><polygon class="cls-6" points="76.94 72.72 75.46 72.72 75.32 71.24 76.8 71.24 76.94 72.72"/><polygon class="cls-11" points="76.94 72.72 75.46 72.72 75.32 71.24 76.8 71.24 76.94 72.72"/></g><g><polygon class="cls-6" points="79.04 72.71 77.56 72.71 77.42 71.23 78.9 71.23 79.04 72.71"/><polygon class="cls-11" points="79.04 72.71 77.56 72.71 77.42 71.23 78.9 71.23 79.04 72.71"/></g><g><polygon class="cls-6" points="81.14 72.7 79.66 72.71 79.52 71.23 81 71.22 81.14 72.7"/><polygon class="cls-11" points="81.14 72.7 79.66 72.71 79.52 71.23 81 71.22 81.14 72.7"/></g><g><polygon class="cls-6" points="83.24 72.69 81.76 72.7 81.62 71.22 83.1 71.21 83.24 72.69"/><polygon class="cls-11" points="83.24 72.69 81.76 72.7 81.62 71.22 83.1 71.21 83.24 72.69"/></g><g><polygon class="cls-6" points="77.12 74.71 75.64 74.72 75.51 73.24 76.99 73.23 77.12 74.71"/><polygon class="cls-11" points="77.12 74.71 75.64 74.72 75.51 73.24 76.99 73.23 77.12 74.71"/></g><g><polygon class="cls-6" points="79.22 74.7 77.74 74.71 77.61 73.23 79.09 73.22 79.22 74.7"/><polygon class="cls-11" points="79.22 74.7 77.74 74.71 77.61 73.23 79.09 73.22 79.22 74.7"/></g><g><polygon class="cls-6" points="81.32 74.7 79.84 74.7 79.71 73.22 81.19 73.22 81.32 74.7"/><polygon class="cls-11" points="81.32 74.7 79.84 74.7 79.71 73.22 81.19 73.22 81.32 74.7"/></g><g><polygon class="cls-1" points="78.86 70.71 77.38 70.72 77.24 69.24 78.72 69.23 78.86 70.71"/><polygon class="cls-6" points="78.86 70.71 77.38 70.72 77.24 69.24 78.72 69.23 78.86 70.71"/><polygon class="cls-11" points="78.86 70.71 77.38 70.72 77.24 69.24 78.72 69.23 78.86 70.71"/></g><g><polygon class="cls-1" points="80.96 70.7 79.48 70.71 79.34 69.23 80.82 69.22 80.96 70.7"/><polygon class="cls-6" points="80.96 70.7 79.48 70.71 79.34 69.23 80.82 69.22 80.96 70.7"/><polygon class="cls-11" points="80.96 70.7 79.48 70.71 79.34 69.23 80.82 69.22 80.96 70.7"/></g><g><polygon class="cls-1" points="83.06 70.69 81.58 70.7 81.44 69.22 82.92 69.21 83.06 70.69"/><polygon class="cls-6" points="83.06 70.69 81.58 70.7 81.44 69.22 82.92 69.21 83.06 70.69"/><polygon class="cls-11" points="83.06 70.69 81.58 70.7 81.44 69.22 82.92 69.21 83.06 70.69"/></g><polygon class="cls-10" points="83.42 74.69 81.94 74.69 81.81 73.21 83.29 73.21 83.42 74.69"/></g></g><g><g><g><polygon class="cls-21" points="57.5 78.76 57.5 80.91 44.89 80.91 43.52 125.69 42.37 125.69 42.37 78.76 57.5 78.76"/><polygon class="cls-15" points="57.5 78.76 57.5 80.91 44.89 80.91 43.52 125.69 42.37 125.69 42.37 78.76 57.5 78.76"/><polygon class="cls-2" points="57.5 78.76 57.5 80.91 44.89 80.91 43.52 125.69 42.37 125.69 42.37 78.76 57.5 78.76"/></g><polygon class="cls-21" points="42.37 125.69 41.27 125.69 40.92 78.76 42.37 78.76 42.37 125.69"/><g class="cls-3"><polygon class="cls-10" points="42.37 125.69 41.27 125.69 40.92 78.76 42.37 78.76 42.37 125.69"/></g></g><g><polygon class="cls-21" points="61.09 78.76 61.09 125.69 59.94 125.69 58.92 80.91 57.57 80.91 57.57 78.76 61.09 78.76"/><polygon class="cls-21" points="60.07 125.69 58.98 125.69 57.57 78.76 59.02 78.76 60.07 125.69"/><g class="cls-3"><polygon class="cls-10" points="60.07 125.69 58.98 125.69 57.57 78.76 59.02 78.76 60.07 125.69"/></g><polygon class="cls-15" points="61.09 78.76 61.09 125.69 59.94 125.69 58.92 80.91 57.57 80.91 57.57 78.76 61.09 78.76"/></g><g><polygon class="cls-21" points="129.92 125.69 128.83 125.69 127.42 78.76 128.87 78.76 129.92 125.69"/><polyline class="cls-4" points="127.42 78.76 128.87 78.76 129.92 125.69 128.83 125.69"/></g><g><g><rect class="cls-21" x="42.37" y="78.76" width="68.8" height="3.56"/><rect class="cls-13" x="42.37" y="78.76" width="68.8" height="3.56"/></g><g><g><g><polygon class="cls-21" points="112.29 78.76 112.29 125.69 113.44 125.69 114.81 80.91 128.77 80.91 129.79 125.69 130.94 125.69 130.94 78.76 112.29 78.76"/><polygon class="cls-15" points="112.29 78.76 112.29 125.69 113.44 125.69 114.81 80.91 128.77 80.91 129.79 125.69 130.94 125.69 130.94 78.76 112.29 78.76"/></g><g><polygon class="cls-21" points="112.29 125.69 111.19 125.69 110.84 78.76 112.29 78.76 112.29 125.69"/><polygon class="cls-4" points="112.29 125.69 111.19 125.69 110.84 78.76 112.29 78.76 112.29 125.69"/></g></g><g><g><rect class="cls-21" x="39.01" y="76.07" width="72.38" height="2.7"/><rect class="cls-12" x="39.01" y="76.07" width="72.38" height="2.7"/></g><g><rect class="cls-21" x="109.7" y="76.07" width="23.15" height="2.7"/><rect class="cls-15" x="109.7" y="76.07" width="23.15" height="2.7"/></g></g></g></g></g></g><g><g><g><path class="cls-6" d="M68.68,70.34H26.43c5.92-21.39-5.92-42.79,0-64.18h42.25c-5.92,21.39,5.92,42.79,0,64.18Z"/><path class="cls-15" d="M68.68,70.34H26.43c5.92-21.39-5.92-42.79,0-64.18h42.25c-5.92,21.39,5.92,42.79,0,64.18Z"/></g><g><path class="cls-21" d="M63.77,19.59h-19.09c-.1,0-.19-.08-.19-.19,0-.1,.08-.19,.19-.19h19.09c.1,0,.19,.08,.18,.19,0,.1-.08,.19-.19,.19Z"/><path class="cls-21" d="M63.86,23.38h-19.09c-.1,0-.19-.08-.2-.19,0-.1,.07-.19,.18-.19h19.09c.1,0,.19,.08,.19,.19,0,.1-.07,.19-.18,.19Z"/><path class="cls-21" d="M64.11,27.2H28.2c-.1,0-.19-.08-.2-.19,0-.1,.07-.19,.17-.19h35.91c.1,0,.19,.08,.2,.19,0,.1-.07,.19-.17,.19Z"/><path class="cls-21" d="M67.09,59.73H31.18c-.1,0-.18-.08-.18-.19,0-.1,.09-.19,.19-.19h35.91c.1,0,.18,.08,.18,.19,0,.1-.09,.19-.19,.19Z"/><path class="cls-21" d="M42.58,66.25h-12.11c-.1,0-.17-.08-.15-.19,.02-.1,.12-.19,.22-.19h12.11c.1,0,.17,.08,.15,.19-.02,.1-.12,.19-.22,.19Z"/><path class="cls-21" d="M66.5,66.25h-12.11c-.1,0-.17-.08-.15-.19,.02-.1,.11-.19,.22-.19h12.11c.1,0,.17,.08,.15,.19-.02,.1-.12,.19-.22,.19Z"/></g></g><g><path class="cls-6" d="M37.73,14.84c0,1.6-1.2,2.59-3.11,2.59h-1.44v1.98h-1.66v-7.16h3.1c1.91,0,3.11,.99,3.11,2.6Zm-1.68,0c0-.79-.51-1.25-1.52-1.25h-1.35v2.49h1.35c1.01,0,1.52-.46,1.52-1.24Z"/><path class="cls-6" d="M38.87,23.5l-1.73-2.49-1.7,2.49h-1.9l2.65-3.64-2.52-3.52h1.88l1.65,2.32,1.62-2.32h1.79l-2.5,3.46,2.67,3.7h-1.91Z"/></g><g><path class="cls-21" d="M30.47,29.56c0,.39-.3,.64-.77,.64h-.36v.49h-.41v-1.77h.77c.47,0,.77,.25,.77,.64Zm-.42,0c0-.19-.13-.31-.38-.31h-.33v.62h.33c.25,0,.38-.11,.38-.31Z"/><path class="cls-21" d="M31.58,29.31v.36s-.06,0-.09,0c-.22,0-.36,.12-.36,.38v.64h-.39v-1.36h.38v.18c.1-.13,.26-.2,.47-.2Z"/><path class="cls-21" d="M33.13,30.12h-1.03c.04,.17,.18,.27,.39,.27,.14,0,.25-.04,.34-.13l.21,.23c-.13,.14-.32,.22-.56,.22-.47,0-.78-.3-.78-.7s.31-.7,.73-.7,.71,.27,.71,.71c0,.03,0,.07,0,.11Zm-1.04-.23h.67c-.03-.17-.16-.28-.33-.28s-.31,.11-.34,.28Z"/><path class="cls-21" d="M33.26,30.56l.13-.28c.12,.08,.31,.13,.47,.13,.18,0,.25-.05,.25-.12,0-.22-.82,0-.82-.54,0-.26,.23-.44,.63-.44,.19,0,.4,.04,.52,.12l-.13,.28c-.13-.08-.27-.1-.39-.1-.18,0-.25,.06-.25,.13,0,.23,.82,0,.82,.54,0,.25-.24,.43-.64,.43-.23,0-.46-.06-.59-.15Z"/><path class="cls-21" d="M34.64,30.01c0-.41,.32-.7,.76-.7,.29,0,.51,.12,.61,.35l-.31,.16c-.07-.13-.18-.19-.31-.19-.2,0-.36,.14-.36,.38s.16,.38,.36,.38c.12,0,.23-.06,.31-.19l.31,.17c-.1,.22-.32,.34-.61,.34-.44,0-.76-.29-.76-.7Z"/><path class="cls-21" d="M37.08,29.31v.36s-.06,0-.09,0c-.22,0-.36,.12-.36,.38v.64h-.4v-1.36h.38v.18c.1-.13,.26-.2,.47-.2Z"/><path class="cls-21" d="M37.26,28.92c0-.12,.1-.22,.25-.22s.25,.09,.25,.21c0,.13-.1,.23-.25,.23s-.25-.1-.25-.22Zm.05,.41h.39v1.36h-.39v-1.36Z"/><path class="cls-21" d="M39.56,30.01c0,.43-.3,.7-.68,.7-.17,0-.31-.05-.41-.16v.64h-.39v-1.85h.38v.16c.1-.12,.25-.18,.43-.18,.38,0,.68,.27,.68,.7Zm-.4,0c0-.24-.15-.38-.35-.38s-.35,.14-.35,.38,.15,.38,.35,.38,.35-.14,.35-.38Z"/><path class="cls-21" d="M40.7,30.63c-.08,.06-.2,.09-.32,.09-.32,0-.51-.16-.51-.49v-.56h-.21v-.3h.21v-.33h.4v.33h.34v.3h-.34v.55c0,.12,.06,.18,.17,.18,.06,0,.12-.02,.16-.05l.11,.28Z"/><path class="cls-21" d="M40.87,28.92c0-.12,.1-.22,.25-.22s.25,.09,.25,.21c0,.13-.1,.23-.25,.23s-.25-.1-.25-.22Zm.05,.41h.39v1.36h-.39v-1.36Z"/><path class="cls-21" d="M41.58,30.01c0-.41,.32-.7,.75-.7s.75,.29,.75,.7-.31,.7-.75,.7-.75-.29-.75-.7Zm1.1,0c0-.24-.15-.38-.35-.38s-.35,.14-.35,.38,.15,.38,.35,.38,.35-.14,.35-.38Z"/><path class="cls-21" d="M44.73,29.91v.78h-.39v-.72c0-.22-.1-.32-.28-.32-.19,0-.33,.12-.33,.37v.67h-.39v-1.36h.38v.16c.11-.12,.27-.18,.45-.18,.32,0,.56,.19,.56,.6Z"/><path class="cls-21" d="M44.99,29.55c0-.15,.11-.24,.25-.24s.25,.1,.25,.24-.11,.25-.25,.25-.25-.1-.25-.25Zm0,.91c0-.15,.11-.24,.25-.24s.25,.1,.25,.24-.11,.25-.25,.25-.25-.1-.25-.25Z"/></g></g><g><g><g><path d="M69.69,27.59h1.43c2.6,0,4.72,2.11,4.72,4.72v17.38c0,2.6-2.11,4.72-4.72,4.72h-1.43c-2.6,0-4.72-2.11-4.72-4.72v-17.38c0-2.6,2.11-4.72,4.72-4.72Z" transform="translate(15.76 -19.43) rotate(17.66)"/><path class="cls-14" d="M79.1,31.33c0,.19-.04,.39-.1,.59l-6.83,21.46c-.02,.07-.05,.14-.08,.21-.44,1-1.56,1.52-2.62,1.18l-6.26-1.99c-1.11-.35-1.74-1.53-1.41-2.65l3.94-12.38,2.91-9.13c.36-1.13,1.57-1.76,2.7-1.4l6.26,1.99c.14,.05,.27,.1,.39,.17,.7,.39,1.13,1.15,1.1,1.94Z"/><g class="cls-24"><path class="cls-13" d="M63.96,43.35l2.84-8.91,8.04-6.1,3.16,1.05c.7,.39,1.13,1.15,1.1,1.94l-15.14,12.02Z"/></g><path class="cls-13" d="M67.93,30.85l.71-2.23c.36-1.13,1.57-1.76,2.7-1.4l.94,.3-4.35,3.32Z"/></g><g><path class="cls-6" d="M72.24,30.76c-.14,.43-.6,.67-1.03,.53-.43-.14-.67-.6-.53-1.03,.14-.43,.6-.67,1.03-.53,.43,.14,.67,.6,.53,1.03Z"/><path class="cls-6" d="M70.68,35.68c-.14,.43-.6,.67-1.03,.53-.43-.14-.67-.6-.53-1.03s.6-.67,1.03-.53c.43,.14,.67,.6,.53,1.03Z"/><path class="cls-6" d="M69.11,40.6c-.14,.43-.6,.67-1.03,.53-.43-.14-.67-.6-.53-1.03s.6-.67,1.03-.53c.43,.14,.67,.6,.53,1.03Z"/><path class="cls-6" d="M67.54,45.53c-.14,.43-.6,.67-1.03,.53-.43-.14-.67-.6-.53-1.03s.6-.67,1.03-.53c.43,.14,.67,.6,.53,1.03Z"/><path class="cls-6" d="M65.97,50.45c-.14,.43-.6,.67-1.03,.53-.43-.14-.67-.6-.53-1.03,.14-.43,.6-.67,1.03-.53s.67,.6,.53,1.03Z"/></g><g><path class="cls-6" d="M76.2,32.02c-.14,.43-.6,.67-1.03,.53-.43-.14-.67-.6-.53-1.03,.14-.43,.6-.67,1.03-.53,.43,.14,.67,.6,.53,1.03Z"/><path class="cls-6" d="M74.63,36.94c-.14,.43-.6,.67-1.03,.53-.43-.14-.67-.6-.53-1.03,.14-.43,.6-.67,1.03-.53,.43,.14,.67,.6,.53,1.03Z"/><path class="cls-6" d="M73.07,41.86c-.14,.43-.6,.67-1.03,.53s-.67-.6-.53-1.03c.14-.43,.6-.67,1.03-.53,.43,.14,.67,.6,.53,1.03Z"/><path class="cls-6" d="M71.5,46.79c-.14,.43-.6,.67-1.03,.53-.43-.14-.67-.6-.53-1.03,.14-.43,.6-.67,1.03-.53,.43,.14,.67,.6,.53,1.03Z"/><path class="cls-6" d="M69.93,51.71c-.14,.43-.6,.67-1.03,.53-.43-.14-.67-.6-.53-1.03,.14-.43,.6-.67,1.03-.53,.43,.14,.67,.6,.53,1.03Z"/></g><g class="cls-23"><path class="cls-10" d="M72.24,30.76c-.14,.43-.6,.67-1.03,.53-.43-.14-.67-.6-.53-1.03,.14-.43,.6-.67,1.03-.53,.43,.14,.67,.6,.53,1.03Z"/><path class="cls-10" d="M70.68,35.68c-.14,.43-.6,.67-1.03,.53-.43-.14-.67-.6-.53-1.03s.6-.67,1.03-.53c.43,.14,.67,.6,.53,1.03Z"/><path class="cls-10" d="M69.11,40.6c-.14,.43-.6,.67-1.03,.53-.43-.14-.67-.6-.53-1.03s.6-.67,1.03-.53c.43,.14,.67,.6,.53,1.03Z"/><path class="cls-10" d="M67.54,45.53c-.14,.43-.6,.67-1.03,.53-.43-.14-.67-.6-.53-1.03s.6-.67,1.03-.53c.43,.14,.67,.6,.53,1.03Z"/><path class="cls-10" d="M65.97,50.45c-.14,.43-.6,.67-1.03,.53-.43-.14-.67-.6-.53-1.03,.14-.43,.6-.67,1.03-.53s.67,.6,.53,1.03Z"/></g><g class="cls-23"><path class="cls-10" d="M76.2,32.02c-.14,.43-.6,.67-1.03,.53-.43-.14-.67-.6-.53-1.03,.14-.43,.6-.67,1.03-.53,.43,.14,.67,.6,.53,1.03Z"/><path class="cls-10" d="M74.63,36.94c-.14,.43-.6,.67-1.03,.53-.43-.14-.67-.6-.53-1.03,.14-.43,.6-.67,1.03-.53,.43,.14,.67,.6,.53,1.03Z"/><path class="cls-10" d="M73.07,41.86c-.14,.43-.6,.67-1.03,.53s-.67-.6-.53-1.03c.14-.43,.6-.67,1.03-.53,.43,.14,.67,.6,.53,1.03Z"/><path class="cls-10" d="M71.5,46.79c-.14,.43-.6,.67-1.03,.53-.43-.14-.67-.6-.53-1.03,.14-.43,.6-.67,1.03-.53,.43,.14,.67,.6,.53,1.03Z"/><path class="cls-10" d="M69.93,51.71c-.14,.43-.6,.67-1.03,.53-.43-.14-.67-.6-.53-1.03,.14-.43,.6-.67,1.03-.53,.43,.14,.67,.6,.53,1.03Z"/></g></g><g><g><path class="cls-15" d="M65.76,53.87l-10.81,2.23c-1.04,.21-2.05-.45-2.26-1.49l-3.11-15.09c-.42-2.04,.59-4.05,2.35-4.98,.37-.2,.78-.35,1.21-.44l5.58-1.15c.58-.12,1.16-.12,1.71-.03,1.8,.31,3.32,1.7,3.71,3.59l3.11,15.09c.21,1.03-.45,2.05-1.49,2.26Z"/><rect class="cls-6" x="50.71" y="38.59" width="14.87" height="11.43" transform="translate(-7.76 12.67) rotate(-11.66)"/><rect class="cls-16" x="50.71" y="38.59" width="14.87" height="11.43" transform="translate(-7.76 12.67) rotate(-11.66)"/><path class="cls-6" d="M52.78,30h5.71c1.21,0,2.2,.98,2.2,2.2v.33h-10.1v-.33c0-1.21,.98-2.2,2.2-2.2Z" transform="translate(-5.17 11.89) rotate(-11.66)"/><path class="cls-15" d="M60.42,32.92c-.55-.09-1.13-.09-1.71,.03l-5.58,1.15c-.44,.09-.84,.24-1.21,.44l-.24-1.17,8.48-1.75,.27,1.3Z"/></g><path class="cls-4" d="M51.77,35.37c-.02-.27-.37-.35-.5-.12-.31,.54-.63,1.34-.52,2.12,.19,1.27,2.89,15.08,3.31,17.2,.03,.18,.13,.33,.27,.44h0c.18,.15,.43,.2,.66,.15l.41-.1-3.53-18.06s-.06-.88-.1-1.63Z"/></g></g></svg>