<?xml version="1.0" encoding="UTF-8"?><svg id="Camada_1" xmlns="http://www.w3.org/2000/svg" viewBox="0 0 201.91 150.47"><defs><style>.cls-1,.cls-2,.cls-3,.cls-4{fill:none;}.cls-2{stroke-width:.72px;}.cls-2,.cls-3,.cls-4{stroke-linecap:round;stroke-linejoin:round;}.cls-2,.cls-4{stroke:#1a2e35;}.cls-5{opacity:.1;}.cls-5,.cls-6,.cls-7,.cls-8,.cls-9,.cls-10,.cls-11,.cls-12,.cls-13,.cls-14{fill:#fff;}.cls-15{fill:#007cff;}.cls-16{fill:#f5f5f5;}.cls-17{fill:#ec873e;}.cls-18{fill:#ececec;}.cls-19{fill:#fafafa;}.cls-20{fill:#fcb373;}.cls-21{fill:#fd897b;}.cls-22{fill:#fd5652;}.cls-23{fill:#b84d3c;}.cls-24{fill:#cc7a63;}.cls-25{fill:#e1e1e1;}.cls-26{fill:#1a2e35;}.cls-27{fill:#263237;}.cls-7,.cls-8,.cls-28{isolation:isolate;}.cls-7,.cls-9,.cls-29,.cls-28{opacity:.2;}.cls-8,.cls-14{opacity:.4;}.cls-3{stroke:#ec873e;}.cls-3,.cls-4{stroke-width:.5px;}.cls-30,.cls-10{opacity:.6;}.cls-31,.cls-12{opacity:.7;}.cls-11{opacity:.8;}.cls-13{opacity:.3;}</style></defs><g><rect class="cls-18" y="132.23" width="201.91" height=".1"/><rect class="cls-18" x="168.31" y="138.73" width="13.38" height=".1"/><rect class="cls-18" x="130.24" y="139.83" width="3.51" height=".1"/><rect class="cls-18" x="160.15" y="134.98" width="7.75" height=".1"/><rect class="cls-18" x="21.18" y="135.66" width="17.44" height=".1"/><rect class="cls-18" x="42.22" y="135.66" width="2.56" height=".1"/><rect class="cls-18" x="53.09" y="137.36" width="37.83" height=".1"/><path class="cls-18" d="M95.71,114.22H17.73c-1.27,0-2.31-1.03-2.31-2.31V2.3c0-1.27,1.03-2.3,2.31-2.3H95.71c1.27,0,2.3,1.03,2.3,2.3V111.92c0,1.27-1.03,2.31-2.3,2.31ZM17.73,.1c-1.22,0-2.2,.99-2.2,2.2V111.92c0,1.22,.99,2.2,2.2,2.2H95.71c1.22,0,2.2-.99,2.2-2.2V2.3c0-1.22-.99-2.2-2.2-2.2H17.73Z"/><path class="cls-18" d="M183.06,114.22H105.08c-1.27,0-2.3-1.03-2.3-2.31V2.3c0-1.27,1.03-2.3,2.3-2.3h77.98c1.27,0,2.31,1.03,2.31,2.3V111.92c0,1.27-1.03,2.31-2.31,2.31ZM105.08,.1c-1.22,0-2.2,.99-2.2,2.2V111.92c0,1.22,.99,2.2,2.2,2.2h77.98c1.22,0,2.2-.99,2.2-2.2V2.3c0-1.22-.99-2.2-2.2-2.2H105.08Z"/></g><g><g><g><rect class="cls-16" x="39.15" y="18.29" width="38.23" height="86.13"/><rect class="cls-19" x="16.82" y="43.68" width="82.89" height="35.35" transform="translate(119.62 3.09) rotate(90)"/><rect class="cls-16" x="57.86" y="19.49" width=".81" height="84.12"/><rect class="cls-16" x="38.27" y="17.17" width="40" height="4.05"/><g><rect class="cls-16" x="38.27" y="21.67" width="40" height=".48"/><rect class="cls-16" x="38.27" y="22.76" width="40" height=".48"/><rect class="cls-16" x="38.27" y="23.85" width="40" height=".48"/><rect class="cls-16" x="38.27" y="24.94" width="40" height=".48"/><rect class="cls-16" x="38.27" y="26.03" width="40" height=".48"/><rect class="cls-16" x="38.27" y="27.12" width="40" height=".48"/><rect class="cls-16" x="38.27" y="28.21" width="40" height=".48"/><rect class="cls-16" x="38.27" y="29.3" width="40" height=".48"/><rect class="cls-16" x="38.27" y="30.39" width="40" height=".48"/><rect class="cls-16" x="38.27" y="31.48" width="40" height=".48"/><rect class="cls-16" x="38.27" y="32.57" width="40" height=".48"/><rect class="cls-16" x="38.27" y="33.66" width="40" height=".48"/><rect class="cls-16" x="38.27" y="34.75" width="40" height=".48"/><rect class="cls-16" x="38.27" y="35.84" width="40" height=".48"/><rect class="cls-16" x="38.27" y="36.93" width="40" height=".48"/><rect class="cls-16" x="38.27" y="38.03" width="40" height=".48"/><rect class="cls-16" x="38.27" y="39.12" width="40" height=".48"/><rect class="cls-16" x="38.27" y="40.21" width="40" height=".48"/></g></g><g><rect class="cls-16" x="84.41" y="18.29" width="38.23" height="86.13"/><rect class="cls-19" x="62.08" y="43.68" width="82.89" height="35.35" transform="translate(164.88 -42.18) rotate(90)"/><rect class="cls-16" x="103.12" y="19.49" width=".81" height="84.12"/><rect class="cls-16" x="83.53" y="17.17" width="40" height="4.05"/><g><rect class="cls-16" x="83.53" y="21.67" width="40" height=".48"/><rect class="cls-16" x="83.53" y="22.76" width="40" height=".48"/><rect class="cls-16" x="83.53" y="23.85" width="40" height=".48"/><rect class="cls-16" x="83.53" y="24.94" width="40" height=".48"/><rect class="cls-16" x="83.53" y="26.03" width="40" height=".48"/><rect class="cls-16" x="83.53" y="27.12" width="40" height=".48"/><rect class="cls-16" x="83.53" y="28.21" width="40" height=".48"/><rect class="cls-16" x="83.53" y="29.3" width="40" height=".48"/><rect class="cls-16" x="83.53" y="30.39" width="40" height=".48"/><rect class="cls-16" x="83.53" y="31.48" width="40" height=".48"/><rect class="cls-16" x="83.53" y="32.57" width="40" height=".48"/><rect class="cls-16" x="83.53" y="33.66" width="40" height=".48"/><rect class="cls-16" x="83.53" y="34.75" width="40" height=".48"/><rect class="cls-16" x="83.53" y="35.84" width="40" height=".48"/><rect class="cls-16" x="83.53" y="36.93" width="40" height=".48"/><rect class="cls-16" x="83.53" y="38.03" width="40" height=".48"/><rect class="cls-16" x="83.53" y="39.12" width="40" height=".48"/><rect class="cls-16" x="83.53" y="40.21" width="40" height=".48"/></g></g><g><rect class="cls-16" x="129.68" y="18.29" width="38.23" height="86.13"/><rect class="cls-19" x="107.34" y="43.68" width="82.89" height="35.35" transform="translate(210.14 -87.44) rotate(90)"/><rect class="cls-16" x="148.39" y="19.49" width=".81" height="84.12"/><rect class="cls-16" x="128.79" y="17.17" width="40" height="4.05"/><g><rect class="cls-16" x="128.79" y="21.67" width="40" height=".48"/><rect class="cls-16" x="128.79" y="22.76" width="40" height=".48"/><rect class="cls-16" x="128.79" y="23.85" width="40" height=".48"/><rect class="cls-16" x="128.79" y="24.94" width="40" height=".48"/><rect class="cls-16" x="128.79" y="26.03" width="40" height=".48"/><rect class="cls-16" x="128.79" y="27.12" width="40" height=".48"/><rect class="cls-16" x="128.79" y="28.21" width="40" height=".48"/><rect class="cls-16" x="128.79" y="29.3" width="40" height=".48"/><rect class="cls-16" x="128.79" y="30.39" width="40" height=".48"/><rect class="cls-16" x="128.79" y="31.48" width="40" height=".48"/><rect class="cls-16" x="128.79" y="32.57" width="40" height=".48"/><rect class="cls-16" x="128.79" y="33.66" width="40" height=".48"/><rect class="cls-16" x="128.79" y="34.75" width="40" height=".48"/><rect class="cls-16" x="128.79" y="35.84" width="40" height=".48"/><rect class="cls-16" x="128.79" y="36.93" width="40" height=".48"/><rect class="cls-16" x="128.79" y="38.03" width="40" height=".48"/><rect class="cls-16" x="128.79" y="39.12" width="40" height=".48"/><rect class="cls-16" x="128.79" y="40.21" width="40" height=".48"/></g></g></g><g><path class="cls-25" d="M166.31,121.6s2.04-4.46-.29-8.86c-2.34-4.4-3.01-5.43-1.52-6.34,1.49-.9,2.17,3.52,2.17,3.52,0,0,1.26-3.04,.22-6.22-1.04-3.18-1.69-8.36-.27-8.92,1.42-.56,.27,6.47,1.5,8.86,0,0,1.03-2.66,1.2-5.22,.17-2.56-.1-6.64,1.02-7.68s1.83-.32,.74,5.32c-1.1,5.64-1.09,10.23-1.09,10.23,0,0,2.43-7.4,4.06-7.61,1.63-.22,1.63,2.18,.23,4.26-1.39,2.08-4.08,5.8-4.52,7.72,0,0,2.66-5.57,5.06-3.86,2.4,1.71-2.09,5.07-4.08,6.28s-3.38,8.83-3.38,8.83l-1.03-.29Z"/><path class="cls-18" d="M167.93,123.43s-1.99-4.49,.4-8.85c2.39-4.36,3.08-5.39,1.6-6.31-1.48-.92-2.21,3.49-2.21,3.49,0,0-1.22-3.06-.14-6.23,1.07-3.17,1.79-8.34,.38-8.92-1.41-.58-.35,6.46-1.6,8.84,0,0-1-2.68-1.14-5.24-.14-2.56,.18-6.63-.93-7.7-1.11-1.06-1.83-.35-.8,5.31s.97,10.24,.97,10.24c0,0-2.34-7.43-3.96-7.67-1.63-.24-1.65,2.16-.28,4.25s4.01,5.86,4.43,7.78c0,0-2.6-5.61-5.01-3.94-2.42,1.67,2.02,5.1,4.01,6.35,1.98,1.24,3.28,8.88,3.28,8.88l1.03-.28Z"/><polygon class="cls-18" points="158.75 120.23 175.19 120.23 173.86 132 160.08 132 158.75 120.23"/></g><g><path class="cls-18" d="M35.44,119.39c-.06-.4-1.42-9.81,1.31-13.06,.6-.72,1.37-1.1,2.27-1.12,5.52-.13,6.27,4.3,6.28,4.35l-.65,.1c-.03-.16-.68-3.91-5.61-3.79-.71,.02-1.3,.31-1.78,.88-2.54,3.02-1.18,12.44-1.16,12.54l-.65,.1Z"/><path class="cls-18" d="M35.11,118.96l-.66-.02c0-.09,.22-8.67-4.01-10.44-4.15-1.74-6.01,1.83-6.09,1.99l-.59-.3s2.21-4.28,6.93-2.3c4.65,1.95,4.43,10.7,4.41,11.07Z"/><path class="cls-18" d="M35.13,119.64c0-.14-.04-13.71-2.69-17.69-2.54-3.81-6.64-2.02-6.82-1.94l-.27-.6s4.78-2.11,7.63,2.17c2.76,4.14,2.8,17.48,2.8,18.05h-.66Z"/><path class="cls-25" d="M39.81,105.54s-2.41,.89-1.69,2.98c.72,2.1,8.33,5.55,8.33,5.55,0,0,3.19-2.92,.26-7.68-2.93-4.75-6.83-2.35-6.9-.85Z"/><path class="cls-25" d="M32.32,101.23s1.71-.18,1.57-1.22c-.14-1.04-6.65-3.72-10.49,.61,0,0,2.46,4.22,6.01,4.28,3.55,.06,2.9-3.67,2.9-3.67Z"/><path class="cls-25" d="M30.56,108.19s1.18-.95-.09-1.42c-1.27-.47-7.52-.33-7.59,5.86,0,0,7.28,1.21,8.18-1.15,.9-2.36-.5-3.29-.5-3.29Z"/><polygon class="cls-18" points="41.1 132 29.81 132 28.59 119.63 42.32 119.63 41.1 132"/><rect class="cls-25" x="27.99" y="118.27" width="14.94" height="2.73"/></g></g><ellipse id="_Path_" class="cls-16" cx="100.96" cy="145.9" rx="78.3" ry="4.57"/><g id="_Group_"><g><path class="cls-21" d="M128.78,57.25s0,3.87-1.22,5.37-7.56,4.64-7.56,4.64c0,0-3.78,0-4.13,0-.35,0-1.31,1.72-1.31,1.72l1.6,1.91s4.69-.91,4.26-2.27c0,0,6.23-2.44,7.99-3.65,1.76-1.21,3.09-6.69,3.09-6.69l-2.72-1.02Z"/><path class="cls-15" d="M130.82,46.22c-1.88-.69-2.95,12.21-2.95,12.21l4.85,1.69s1.74-12.58-1.9-13.9Z"/><path class="cls-8" d="M132.99,57.39c-.12,1.61-.27,2.73-.27,2.73l-4.85-1.69s1.07-12.9,2.95-12.21c1.27,.46,1.88,2.29,2.14,4.47h0c.27,2.22,.17,4.8,.03,6.7Z"/><path class="cls-28" d="M132.99,57.39c-2.25-2.65-.81-7.32-.81-7.32,.25,.13,.52,.34,.78,.62h0c.27,2.22,.17,4.8,.03,6.7Z"/></g><path class="cls-26" d="M151.51,142.15h4.09c.14,0,.26,.1,.29,.23l.66,3c.06,.27-.11,.53-.38,.59-.04,0-.07,.01-.11,.01-1.32-.02-2.29-.1-3.95-.1-1.02,0-4.11,.11-5.53,.11s-1.6-1.4-1.02-1.53c2.6-.57,4.55-1.35,5.38-2.1,.15-.14,.36-.22,.57-.21Z"/><path class="cls-26" d="M134.15,142.05h4.09c.14,0,.26,.1,.29,.23l.66,3c.06,.27-.11,.53-.38,.59-.04,0-.07,.01-.11,.01-1.32-.02-2.29-.1-3.95-.1-1.02,0-4.11,.11-5.53,.11s-1.6-1.4-1.02-1.53c2.6-.57,4.55-1.35,5.38-2.1,.15-.14,.36-.22,.57-.21Z"/><path class="cls-5" d="M151.51,142.15h4.09c.14,0,.26,.1,.29,.23l.66,3c.06,.27-.11,.53-.38,.59-.04,0-.07,.01-.11,.01-1.32-.02-2.29-.1-3.95-.1-1.02,0-4.11,.11-5.53,.11s-1.6-1.4-1.02-1.53c2.6-.57,4.55-1.35,5.38-2.1,.15-.14,.36-.22,.57-.21Z"/><path class="cls-5" d="M134.15,142.05h4.09c.14,0,.26,.1,.29,.23l.66,3c.06,.27-.11,.53-.38,.59-.04,0-.07,.01-.11,.01-1.32-.02-2.29-.1-3.95-.1-1.02,0-4.11,.11-5.53,.11s-1.6-1.4-1.02-1.53c2.6-.57,4.55-1.35,5.38-2.1,.15-.14,.36-.22,.57-.21Z"/><path class="cls-15" d="M153.68,66.28h-17.88c-1.7,9.28-7.02,46.98-3.2,76.26h6.05s-.56-44.46,4.78-58.83c.61,7.69,6.86,58.8,6.86,58.8h6.16s-.92-19.23-1.84-37.39c-.58-11.43-.91-36.5-.94-38.84Z"/><path class="cls-7" d="M153.68,66.28h-17.88c-1.7,9.28-7.02,46.98-3.2,76.26h6.05s-.56-44.46,4.78-58.83c.61,7.69,6.86,58.8,6.86,58.8h6.16s-.92-19.23-1.84-37.39c-.58-11.43-.91-36.5-.94-38.84Z"/><path class="cls-28" d="M143.43,83.72c-.79,2.12-1.44,4.76-2,7.74-.5-6.84,1.5-14.1,1.5-14.1l.5,6.36Z"/><g><path class="cls-15" d="M153.73,66.84l-18.31,.48c.51-10.49-4.43-17.12-5.07-20.35-.09-.46,.2-.92,.66-1.02,.91-.2,1.84-.37,2.79-.51,4.74-.73,9.74-.87,12.86-.86,1.91,0,1.49,.06,1.49,.06,3.23,2.53,5.78,16.4,5.59,22.21Z"/><path class="cls-8" d="M153.73,66.84l-18.31,.48c.51-10.49-4.43-17.12-5.07-20.35-.09-.46,.2-.92,.66-1.02,.91-.2,1.84-.37,2.79-.51,4.74-.73,9.74-.87,12.86-.86,1.91,0,1.49,.06,1.49,.06,3.23,2.53,5.78,16.4,5.59,22.21Z"/></g><g><path class="cls-21" d="M142.48,45.19c-.39,2.4-4.19,4.81-4.19,4.81,0,0-1.94-2.14-2.1-3.78,0,0,.37-.35,.61-.8,.11-.22,.19-.47,.18-.71-.02-.43-.2-.88-.45-1.32-.13-.23-.28-.46-.44-.68l2.64-3.27,.61-.76c.03,.23,.06,.48,.11,.74,.09,.54,.22,1.13,.39,1.74,.48,1.68,1.3,3.42,2.65,4.03Z"/><path class="cls-28" d="M139.83,41.16c-.13,1.62-.74,3.85-3.03,4.25,.11-.22,.19-.47,.18-.71-.02-.43-.2-.88-.45-1.32-.13-.23-.28-.46-.44-.68l2.64-3.27c.23-.01,.47-.02,.71-.02,.09,.54,.22,1.13,.39,1.74Z"/></g><g><path class="cls-26" d="M129.16,32.76s-.06,4.56,2.55,5.95c2.61,1.39,1.46-6.93,1.46-6.93l-4.01,.97Z"/><path class="cls-21" d="M131.51,41.38c.08,.14,.18,.27,.27,.4,.35,.47,.78,.85,1.26,1.14,.5,.31,1.05,.51,1.61,.61,1.02,.17,2.09,0,2.98-.57,.59-.38,1.1-.92,1.47-1.64,1.07-2.07,.45-3.89-.34-7.03-.16-.68-.48-1.31-.93-1.84-1.58-1.88-4.38-2.12-6.25-.54-2.64,2.19-1.61,6.91-.06,9.48Z"/><path class="cls-26" d="M134.33,36.63c.1,.24,.01,.5-.15,.55-.17,.05-.36-.11-.44-.36-.08-.25,0-.5,.15-.55,.16-.05,.36,.11,.44,.36Z"/><path class="cls-26" d="M131.48,37.53c.1,.24,0,.5-.15,.55-.16,.05-.36-.11-.44-.36-.08-.25,0-.5,.15-.55,.16-.05,.37,.12,.44,.36Z"/><path class="cls-22" d="M132.42,37.37c-.06,.86-.23,1.72-.52,2.53,.43,.14,.9,.08,1.28-.16l-.76-2.38Z"/><path class="cls-26" d="M130.04,36.65c.06,.01,.12,0,.15-.05,.25-.31,.63-.48,1.02-.46,.08,.01,.16-.05,.17-.13,.01-.08-.05-.16-.13-.17h0c-.5-.03-.98,.18-1.3,.56-.06,.06-.05,.16,.01,.22h0s.04,.03,.07,.04Z"/><path class="cls-26" d="M134.53,35.32s.06-.03,.07-.06c.03-.08,0-.17-.08-.2h0c-.46-.21-.98-.18-1.41,.08-.07,.05-.09,.14-.04,.21h0c.05,.07,.14,.09,.21,.04h0c.35-.19,.76-.21,1.12-.05,.05,0,.09,0,.13-.03Z"/><path class="cls-26" d="M135.26,31.14l.2,1.43c.52,.12,.93,.56,.86,1.16-.14,1.28,1,2.91,2.08,3.39,0,0-.11-.51,.35-.5,.46,0,1.03,2.66,.54,4.13,0,0,.95-1.46,.93-4.4-.02-2.72-.5-4.86-1.28-5.71l-3.67,.51Z"/><path class="cls-21" d="M140.9,36.39c-.12,.81-.56,1.54-1.22,2.02-.87,.64-1.69-.05-1.77-1.08-.06-.91,.31-2.36,1.35-2.59,1.04-.22,1.77,.65,1.63,1.64Z"/><path class="cls-4" d="M135.13,39.84s.08,1.2-1.08,1.32"/><path class="cls-26" d="M139.32,31.21s-.16-1.9-3.39-2.53c-3.24-.63-5.91,1.84-8.15,1.15s-.93,4.33,3.29,3.77c4.22-.56,8.25-2.39,8.25-2.39Z"/></g><path class="cls-28" d="M146.23,48.96s-1.54,7-2.09,9.16c-1.1,4.37-6.4,8.91-6.4,8.91,0,0,3.3-.77,6.78-1.36,4.3-.73,8.33-6.66,5.92-14.53l-4.21-2.18Z"/><g><path class="cls-21" d="M146.1,55.66s0,3.87-1.22,5.37c-1.22,1.5-7.56,4.64-7.56,4.64,0,0-3.78,0-4.13,0-.35,0-1.31,1.72-1.31,1.72l1.6,1.91s4.69-.91,4.26-2.27c0,0,6.23-2.44,7.99-3.65,1.76-1.21,3.09-6.69,3.09-6.69l-2.72-1.02Z"/><path class="cls-15" d="M148.14,44.63c-1.88-.69-2.95,12.21-2.95,12.21l4.85,1.69s1.74-12.58-1.9-13.9Z"/><path class="cls-8" d="M148.14,44.63c-1.88-.69-2.95,12.21-2.95,12.21l4.85,1.69s1.74-12.58-1.9-13.9Z"/></g></g><g><g><g><path class="cls-27" d="M98.92,145.99c-8.63,0-15.66-8.61-15.66-19.18s7.02-19.18,15.66-19.18,15.66,8.61,15.66,19.18-7.02,19.18-15.66,19.18Zm0-36.35c-7.52,0-13.64,7.7-13.64,17.16s6.12,17.16,13.64,17.16,13.64-7.7,13.64-17.16-6.12-17.16-13.64-17.16Z"/><g><path class="cls-1" d="M95.4,128.18c-.07-.31-.12-.63-.14-.97h-7.75c.03,1.65,.27,3.23,.68,4.71l7.21-3.74Z"/><path class="cls-1" d="M96.07,129.8c-.16-.26-.3-.54-.42-.84l-7.21,3.74c.51,1.55,1.22,2.97,2.08,4.2l5.55-7.1Z"/><path class="cls-1" d="M98.52,141.74v-10.21c-.23-.03-.46-.09-.67-.18l-3.09,9.36c1.17,.61,2.44,.96,3.77,1.02Z"/><path class="cls-1" d="M95.26,126.4c.02-.36,.07-.7,.16-1.03l-7.16-3.88c-.45,1.53-.7,3.18-.74,4.91h7.75Z"/><path class="cls-1" d="M107.32,116.71l-5.55,7.1c.16,.26,.3,.54,.42,.84l7.21-3.74c-.51-1.55-1.22-2.97-2.08-4.2Z"/><path class="cls-1" d="M88.5,120.71l7.17,3.88c.11-.28,.25-.54,.4-.78l-5.55-7.1c-.83,1.18-1.51,2.53-2.01,4Z"/><path class="cls-1" d="M99.94,131.37c-.2,.07-.41,.13-.62,.16v10.21c1.27-.06,2.48-.39,3.61-.94l-2.99-9.43Z"/><path class="cls-1" d="M99.32,111.87v10.21c.23,.03,.46,.09,.67,.18l3.09-9.36c-1.17-.61-2.44-.96-3.77-1.02Z"/><path class="cls-1" d="M97.9,122.24c.2-.07,.41-.13,.62-.16v-10.21c-1.27,.06-2.48,.39-3.61,.94l2.99,9.43Z"/><path class="cls-1" d="M96.57,123.15c.18-.2,.38-.37,.6-.52l-2.98-9.41c-1.18,.71-2.25,1.66-3.17,2.83l5.56,7.11Z"/><path class="cls-1" d="M109.34,132.9l-7.17-3.88c-.11,.28-.25,.54-.4,.78l5.55,7.1c.83-1.18,1.51-2.53,2.01-4Z"/><path class="cls-1" d="M97.12,130.95c-.2-.14-.38-.3-.55-.49l-5.56,7.11c.88,1.11,1.9,2.04,3.02,2.73l3.09-9.36Z"/><path class="cls-1" d="M101.26,130.46c-.18,.2-.38,.37-.6,.52l2.98,9.41c1.18-.71,2.25-1.66,3.17-2.83l-5.56-7.11Z"/><path class="cls-1" d="M100.71,122.66c.2,.14,.38,.3,.55,.49l5.56-7.11c-.88-1.11-1.9-2.04-3.02-2.73l-3.09,9.36Z"/><path class="cls-1" d="M102.58,127.21c-.02,.36-.08,.7-.16,1.03l7.16,3.88c.45-1.53,.7-3.18,.74-4.91h-7.75Z"/><path class="cls-1" d="M102.44,125.43c.07,.31,.12,.63,.14,.97h7.75c-.03-1.65-.27-3.23-.68-4.71l-7.21,3.74Z"/><path class="cls-15" d="M98.92,109.44c-7.63,0-13.84,7.79-13.84,17.37s6.21,17.37,13.84,17.37,13.84-7.79,13.84-17.37-6.21-17.37-13.84-17.37Zm2.85,14.37l5.55-7.1c.86,1.23,1.57,2.65,2.08,4.2l-7.21,3.74c-.12-.3-.26-.58-.42-.84Zm-2.45-1.73v-10.21c1.32,.06,2.59,.42,3.77,1.02l-3.09,9.36c-.22-.09-.44-.15-.67-.18Zm-.81,0c-.21,.03-.42,.09-.62,.16l-2.99-9.43c1.13-.56,2.34-.88,3.61-.94v10.21Zm-2.85,2.51l-7.17-3.88c.51-1.48,1.19-2.83,2.01-4l5.55,7.1c-.15,.24-.28,.5-.4,.78Zm-.25,.78c-.08,.33-.13,.68-.16,1.03h-7.75c.04-1.72,.29-3.38,.74-4.91l7.16,3.88Zm-.16,1.84c.02,.33,.07,.66,.14,.97l-7.21,3.74c-.41-1.48-.65-3.06-.68-4.71h7.75Zm.39,1.75c.12,.3,.26,.58,.42,.84l-5.55,7.1c-.86-1.23-1.57-2.65-2.08-4.2l7.21-3.74Zm2.87,2.57v10.21c-1.32-.06-2.59-.42-3.77-1.02l3.09-9.36c.22,.09,.44,.15,.67,.18Zm.81,0c.21-.03,.42-.09,.62-.16l2.99,9.43c-1.13,.56-2.34,.88-3.61,.94v-10.21Zm2.85-2.51l7.17,3.88c-.51,1.48-1.19,2.83-2.01,4l-5.55-7.1c.15-.24,.28-.5,.4-.78Zm.25-.78c.08-.33,.13-.68,.16-1.03h7.75c-.04,1.72-.29,3.38-.74,4.91l-7.16-3.88Zm.16-1.84c-.02-.33-.07-.66-.14-.97l7.21-3.74c.41,1.48,.65,3.06,.68,4.71h-7.75Zm4.24-10.36l-5.56,7.11c-.17-.18-.36-.35-.55-.49l3.09-9.36c1.12,.7,2.13,1.62,3.02,2.73Zm-12.64-2.83l2.98,9.41c-.21,.15-.41,.32-.6,.52l-5.56-7.11c.92-1.16,1.99-2.12,3.17-2.83Zm-3.17,24.36l5.56-7.11c.17,.18,.36,.35,.55,.49l-3.09,9.36c-1.12-.7-2.13-1.62-3.02-2.73Zm12.64,2.83l-2.98-9.41c.21-.15,.41-.32,.6-.52l5.56,7.11c-.92,1.16-1.99,2.12-3.17,2.83Z"/></g><g class="cls-28"><path d="M98.92,109.44c-7.63,0-13.84,7.79-13.84,17.37s6.21,17.37,13.84,17.37,13.84-7.79,13.84-17.37-6.21-17.37-13.84-17.37Zm2.85,14.37l5.55-7.1c.86,1.23,1.57,2.65,2.08,4.2l-7.21,3.74c-.12-.3-.26-.58-.42-.84Zm-2.45-1.73v-10.21c1.32,.06,2.59,.42,3.77,1.02l-3.09,9.36c-.22-.09-.44-.15-.67-.18Zm-.81,0c-.21,.03-.42,.09-.62,.16l-2.99-9.43c1.13-.56,2.34-.88,3.61-.94v10.21Zm-2.85,2.51l-7.17-3.88c.51-1.48,1.19-2.83,2.01-4l5.55,7.1c-.15,.24-.28,.5-.4,.78Zm-.25,.78c-.08,.33-.13,.68-.16,1.03h-7.75c.04-1.72,.29-3.38,.74-4.91l7.16,3.88Zm-.16,1.84c.02,.33,.07,.66,.14,.97l-7.21,3.74c-.41-1.48-.65-3.06-.68-4.71h7.75Zm.39,1.75c.12,.3,.26,.58,.42,.84l-5.55,7.1c-.86-1.23-1.57-2.65-2.08-4.2l7.21-3.74Zm2.87,2.57v10.21c-1.32-.06-2.59-.42-3.77-1.02l3.09-9.36c.22,.09,.44,.15,.67,.18Zm.81,0c.21-.03,.42-.09,.62-.16l2.99,9.43c-1.13,.56-2.34,.88-3.61,.94v-10.21Zm2.85-2.51l7.17,3.88c-.51,1.48-1.19,2.83-2.01,4l-5.55-7.1c.15-.24,.28-.5,.4-.78Zm.25-.78c.08-.33,.13-.68,.16-1.03h7.75c-.04,1.72-.29,3.38-.74,4.91l-7.16-3.88Zm.16-1.84c-.02-.33-.07-.66-.14-.97l7.21-3.74c.41,1.48,.65,3.06,.68,4.71h-7.75Zm4.24-10.36l-5.56,7.11c-.17-.18-.36-.35-.55-.49l3.09-9.36c1.12,.7,2.13,1.62,3.02,2.73Zm-12.64-2.83l2.98,9.41c-.21,.15-.41,.32-.6,.52l-5.56-7.11c.92-1.16,1.99-2.12,3.17-2.83Zm-3.17,24.36l5.56-7.11c.17,.18,.36,.35,.55,.49l-3.09,9.36c-1.12-.7-2.13-1.62-3.02-2.73Zm12.64,2.83l-2.98-9.41c.21-.15,.41-.32,.6-.52l5.56,7.11c-.92,1.16-1.99,2.12-3.17,2.83Z"/></g></g><g><path class="cls-27" d="M109.44,107.87h-15.7c-1.84,0-3.34,1.5-3.34,3.34v26.08c0,.82-.67,1.49-1.49,1.49h-4.9c-.45,0-.81,.36-.81,.81s.36,.81,.81,.81h4.9c1.71,0,3.11-1.39,3.11-3.11v-9.67h17.42c.45,0,.81-.36,.81-.81v-18.12c0-.45-.36-.81-.81-.81Zm-.81,18.12h-16.62v-14.79c0-.95,.77-1.72,1.72-1.72h14.9v16.51Z"/><path class="cls-13" d="M109.44,107.87h-15.7c-1.84,0-3.34,1.5-3.34,3.34v26.08c0,.82-.67,1.49-1.49,1.49h-4.9c-.45,0-.81,.36-.81,.81s.36,.81,.81,.81h4.9c1.71,0,3.11-1.39,3.11-3.11v-9.67h17.42c.45,0,.81-.36,.81-.81v-18.12c0-.45-.36-.81-.81-.81Zm-.81,18.12h-16.62v-14.79c0-.95,.77-1.72,1.72-1.72h14.9v16.51Z"/><g><path class="cls-27" d="M111.31,72.84v26.01h-18.96c-1.68,0-3.04,1.36-3.04,3.04v13.5h20.37c2.03,0,3.67-1.64,3.67-3.67v-38.87h-2.05Z"/><path class="cls-13" d="M111.31,72.84v26.01h-18.96c-1.68,0-3.04,1.36-3.04,3.04v13.5h20.37c2.03,0,3.67-1.64,3.67-3.67v-38.87h-2.05Z"/></g><path class="cls-27" d="M94.84,108.63h27.97v5.91h-33.88c0-3.26,2.65-5.91,5.91-5.91Z"/><g><path class="cls-27" d="M125.85,113.7h-36.98c-.46,0-.84,.38-.84,.84h0c0,.46,.38,.84,.84,.84h36.98c.44,0,.81-.35,.84-.79h0c.03-.48-.36-.89-.84-.89Z"/><path class="cls-13" d="M125.85,113.7h-36.98c-.46,0-.84,.38-.84,.84h0c0,.46,.38,.84,.84,.84h36.98c.44,0,.81-.35,.84-.79h0c.03-.48-.36-.89-.84-.89Z"/></g><path class="cls-27" d="M112.03,73.61h17.22v26.89c0,7.29-5.92,13.2-13.2,13.2h-4.02v-40.09h0Z"/><rect class="cls-27" x="82.14" y="137.42" width="11.96" height="2.57" rx="1.28" ry="1.28"/><rect class="cls-9" x="82.14" y="137.42" width="11.96" height="2.57" rx="1.28" ry="1.28"/><path class="cls-27" d="M125.77,126.23l-15.63-5.56,15.63-5.56c.32-.11,.48-.46,.37-.77-.11-.32-.46-.48-.77-.37l-17.03,6.06-17.03-6.06c-.32-.11-.66,.05-.77,.37-.11,.32,.05,.66,.37,.77l15.63,5.56-15.63,5.56c-.32,.11-.48,.46-.37,.77,.09,.25,.32,.4,.57,.4,.07,0,.14-.01,.2-.04l17.03-6.06,17.03,6.06c.07,.02,.14,.04,.2,.04,.25,0,.48-.15,.57-.4,.11-.32-.05-.66-.37-.77Z"/><path class="cls-13" d="M125.77,126.23l-15.63-5.56,15.63-5.56c.32-.11,.48-.46,.37-.77-.11-.32-.46-.48-.77-.37l-17.03,6.06-17.03-6.06c-.32-.11-.66,.05-.77,.37-.11,.32,.05,.66,.37,.77l15.63,5.56-15.63,5.56c-.32,.11-.48,.46-.37,.77,.09,.25,.32,.4,.57,.4,.07,0,.14-.01,.2-.04l17.03-6.06,17.03,6.06c.07,.02,.14,.04,.2,.04,.25,0,.48-.15,.57-.4,.11-.32-.05-.66-.37-.77Z"/></g><path class="cls-26" d="M112.29,76.68c-.33,0-.61-.27-.61-.61v-4.64c0-1.85,1.45-3.37,3.29-3.45l3.91-.19c.34-.02,.62,.24,.63,.58,.02,.33-.24,.62-.58,.63l-3.91,.19c-1.2,.06-2.14,1.04-2.14,2.24v4.64c0,.33-.27,.61-.61,.61Z"/></g><g><g><polygon class="cls-20" points="92.47 135.82 96.35 134.6 95.85 130.77 95.39 127.26 90.62 128.2 91.6 132.23 92.47 135.82"/><polygon class="cls-28" points="91.62 132.31 95.87 130.84 95.4 127.3 90.63 128.22 91.62 132.31"/></g><path class="cls-27" d="M96.68,133.71c-.02-.3-4.74,.1-4.74,.1,0,0-2.83,2.42-5.63,3.04-2.81,.62-1.18,1.89,1.98,1.78,3.16-.11,5.57-.2,7.81-.28,2.24-.08,.79-1.52,.58-4.64Z"/><path class="cls-27" d="M85.1,101.74c2.82-4.85,17.83-5.76,27.78-6.44l3.39,8.76s-14.84-.82-19.12,4.01c-3.41,3.85-1.09,21.11-1.09,21.11l-6.38,.45s-9.57-19.3-4.57-27.9Z"/><path class="cls-28" d="M85.1,101.74c2.82-4.85,17.83-5.76,27.78-6.44l3.39,8.76s-14.84-.82-19.12,4.01c-3.41,3.85-1.09,21.11-1.09,21.11l-6.38,.45s-9.57-19.3-4.57-27.9Z"/><g><polygon class="cls-20" points="100.55 135.82 104.43 134.6 103.93 130.77 103.46 127.26 98.7 128.2 99.67 132.23 100.55 135.82"/><polygon class="cls-28" points="99.7 132.31 103.95 130.84 103.47 127.3 98.7 128.22 99.7 132.31"/></g><g><path class="cls-15" d="M113.52,70.37c2.02-.97,7.39-.13,8.69,1.1,1.29,1.23-3.99,4.85-6.83,4.33s-3.43-4.68-1.86-5.43Z"/><path class="cls-28" d="M113.52,70.37c2.02-.97,7.39-.13,8.69,1.1,1.29,1.23-3.99,4.85-6.83,4.33s-3.43-4.68-1.86-5.43Z"/></g><path class="cls-27" d="M103.32,95.22s3.52-6.8,3.7-7.33c.94-2.74,17.95-.27,17.95-.27,0,0,4.69,14.25-1.15,18.34-5.08,3.56-17.37,1.95-19.45,2.6-1.93,.59-2.87,2.67,.06,21.97l-6.33,.24s-9.27-23.04-9.16-27.17c.1-4.13-.62-6.04,14.39-8.38Z"/><g><path class="cls-15" d="M103.53,94.22s4.96-17.47,6.71-21.98c.65-1.67,16.24-.05,16.24-.05v21.14s-11.66,4.13-15.07,2.41c-1.08-.54-2.24-4.29-2.24-4.29,0,0-2.18,4.06-3.53,4.1-.77,.02-2.11-1.33-2.11-1.33Z"/><path class="cls-10" d="M126.48,72.18v21.14s-11.66,4.13-15.07,2.41c-1.08-.55-2.24-4.29-2.24-4.29,0,0-2.18,4.06-3.53,4.09-.77,.02-2.12-1.33-2.12-1.33,0,0,.06-.23,.19-.66,.67-2.35,3.02-10.56,4.85-16.35,.67-2.12,1.26-3.91,1.68-4.98,.65-1.67,16.24-.05,16.24-.05Z"/><circle class="cls-28" cx="113.09" cy="80.21" r=".43"/><circle class="cls-28" cx="111.62" cy="84.47" r=".43"/><circle class="cls-28" cx="109.97" cy="89.21" r=".43"/><path class="cls-28" d="M126.48,81.21v11.83c-12.41,4.2-15.86,.57-15.86,.57,0,0,6.8-3.86,9.63-5.3s3.37-8.95,3.37-8.95c0,0,1.29,.72,2.86,1.85Z"/><path class="cls-28" d="M106.88,87.72c.04,2.47,.44,3.27,.55,4.37,.1,.99-.19,3.26-3.71,1.47,.67-2.35,3.02-10.56,4.85-16.35,.15,.06,.29,.15,.42,.27,0,0-2.15,7.19-2.1,10.24Z"/></g><g><path class="cls-20" d="M121.85,72.25s-1.92,1.6-3.72,1.68c-1.79,.08-3.51,2.72-3.51,2.72,0,0-.44-2.64-.33-2.88,.05-.1-.12-.49-.27-.93h0c-.21-.64-.37-1.36,.27-1.36,1.08,0,.33-2.18,.33-2.18l6.09-1.68s-.26,.8-.34,1.75c-.11,1.22,.07,2.66,1.47,2.88Z"/><path class="cls-28" d="M120.72,67.62s-.26,.8-.34,1.75c-1.22,1.44-3.34,3.28-6.34,3.47-.21-.64-.37-1.36,.27-1.36,1.08,0,.33-2.18,.33-2.18l6.09-1.68Z"/></g><g><path class="cls-15" d="M121.13,72.61s-3.17,5.59-3.84,10.22c0,0,2.04-.2,3.28,0,1.24,.2,.35-6.16,3.27-10.7l-2.72,.48Z"/><path class="cls-28" d="M121.13,72.61s-3.17,5.59-3.84,10.22c0,0,2.04-.2,3.28,0,1.24,.2,.35-6.16,3.27-10.7l-2.72,.48Z"/><path class="cls-15" d="M113.52,72.85c0,1.82,2.18,3.31,5.45,.6,3.27-2.72,4.14-3.34,4.95-2.39,0,0,1.1,.08,1.27,1,0,0-1.59,.59-2.62,1.63-1.04,1.04-5.43,4.87-8.27,4.55-2.84-.32-3.55-4.43-1.92-6.11,0,0,.06-2.59,2.53-1.56,0,0-1.38,.2-1.38,2.28Z"/><path class="cls-15" d="M117.29,82.83s-.39,1.74-.31,1.82,.25-1.73,.56-1.6c.32,.13-.26,1.66,0,1.6,.26-.06-.02-1.55,.31-1.57s-.04,1.55,.2,1.57c.24,.02,.02-1.57,.32-1.57s-.1,1.61,.16,1.58c.27-.03,.05-1.66,.35-1.66s-.16,1.58,.13,1.66c.29,.08-.03-1.58,.35-1.58s-.08,1.61,.11,1.58c.19-.03-.11-1.66,.27-1.58,.37,.08-.03,1.64,.19,1.58,.21-.06-.19-1.58,.19-1.5s.24,1.62,.35,1.5c.11-.12,.06-1.37,.28-1.39,.22-.03-.02,1.12,.33,1.2,.35,.08-.33-1.65-.33-1.65,0,0-2.11-.43-3.43,.01Z"/></g><g><path class="cls-20" d="M118.26,59.15c-3.4-.54-4.78,1.11-5.58,4.58-.02,.09-.06,.27-.06,.27-2.11,1.87-.88,7.06,3.94,7.06,5.99,0,7.35-11.02,1.71-11.91Z"/><path class="cls-17" d="M114.91,63.89s-.61,.81-1.21,1.25c0,0,.22,.51,.84,.53l.38-1.78Z"/><g><path class="cls-26" d="M117.03,63.94c-.05,.28,.06,.53,.24,.56,.19,.03,.38-.16,.43-.44,.05-.28-.06-.53-.24-.56-.19-.03-.38,.16-.43,.44Z"/><path class="cls-26" d="M117.53,63.52l-.56-.35s.21,.56,.56,.35Z"/></g><g><path class="cls-26" d="M113.58,63.25c-.05,.28,.06,.53,.24,.56,.19,.03,.38-.16,.43-.44,.05-.28-.06-.53-.24-.56-.19-.03-.38,.16-.43,.44Z"/><path class="cls-26" d="M114.08,62.83l-.56-.35s.21,.56,.56,.35Z"/></g><path class="cls-26" d="M118.83,62.49c-.05,0-.1-.03-.13-.07-.37-.64-1.26-.67-1.27-.67-.08,0-.14-.07-.14-.15,0-.08,.07-.14,.15-.14h0s1.06,.04,1.52,.82c.04,.07,.02,.16-.05,.2-.02,.01-.05,.02-.07,.02Z"/><path class="cls-26" d="M113.59,61.27c-.06,0-.11-.03-.13-.09-.03-.07,0-.16,.07-.19,.89-.41,1.51-.08,1.53-.06,.07,.04,.1,.13,.06,.2-.04,.07-.13,.1-.2,.06-.02-.01-.52-.27-1.27,.07-.02,0-.04,.01-.06,.01Z"/><path class="cls-26" d="M127.16,62.8c-.62-.54-1.79-.23-2.64,.1,0-.04,0-.07,0-.1,0-2.27-1.55-3.24-1.55-3.24,0-1.36-1.05-1.95-2.2-2.31-1.16-.36-2.16,.32-3.52-.32-1.36-.64-2.28,.12-2.62,.76-.35,.64-.2,1.56-1.33,1.6-1.13,.03-.86,1.09-.64,1.66,.21,.57,.16,.41-.2,1.03-.25,.43,.12,.7,.38,.83-.04,.3-.05,.48-.05,.48,.03-.16,.07-.31,.11-.46,1.6-6.15,7.61-2.51,7.61-2.51-.58,2.12,.57,5.16,.57,5.16,.5,1.35-.24,2.72-.71,3.39-.19,.27-.34,.43-.34,.43,.2-.12,.4-.27,.59-.43,2.42-.08,2.31-1.4,2.31-1.84,0-.12,.11-.31,.27-.56,.41,.78,1.25,1.82,2.77,1.48,2.36-.52,2.24-4.23,1.2-5.14Z"/><path class="cls-2" d="M116.76,66.66s-.76,1.17-2.13,.54"/><path class="cls-3" d="M116.91,64.3s-.16,1.13,.92,.94"/><path class="cls-3" d="M114.27,63.82s-.25,.94-1.21,.48"/><path class="cls-3" d="M115.89,65.67s1.36,.49,1.64,1.72"/><path class="cls-14" d="M127.16,62.8c-.62-.54-1.79-.23-2.64,.1,0-.04,0-.07,0-.1,0-2.27-1.55-3.24-1.55-3.24,0-1.36-1.05-1.95-2.2-2.31-1.16-.36-2.16,.32-3.52-.32-1.36-.64-2.28,.12-2.62,.76-.35,.64-.2,1.56-1.33,1.6-1.13,.03-.86,1.09-.64,1.66,.21,.57,.16,.41-.2,1.03-.25,.43,.12,.7,.38,.83-.04,.3-.05,.48-.05,.48,.03-.16,.07-.31,.11-.46,1.6-6.15,7.61-2.51,7.61-2.51-.58,2.12,.57,5.16,.57,5.16,.5,1.35-.24,2.72-.71,3.39-.19,.27-.34,.43-.34,.43,.2-.12,.4-.27,.59-.43,2.42-.08,2.31-1.4,2.31-1.84,0-.12,.11-.31,.27-.56,.41,.78,1.25,1.82,2.77,1.48,2.36-.52,2.24-4.23,1.2-5.14Z"/><path class="cls-20" d="M120.41,66.1c.11-.54,.82-1.38,1.82-1.11,1.04,.28,1.2,2.52-1.51,2.63-.39,.02-.54-.39-.31-1.52Z"/><g class="cls-29"><path class="cls-6" d="M118.83,62.49c-.05,0-.1-.03-.13-.07-.37-.64-1.26-.67-1.27-.67-.08,0-.14-.07-.14-.15,0-.08,.07-.14,.15-.14h0s1.06,.04,1.52,.82c.04,.07,.02,.16-.05,.2-.02,.01-.05,.02-.07,.02Z"/></g><g class="cls-29"><path class="cls-6" d="M113.59,61.27c-.06,0-.11-.03-.13-.09-.03-.07,0-.16,.07-.19,.89-.41,1.51-.08,1.53-.06,.07,.04,.1,.13,.06,.2-.04,.07-.13,.1-.2,.06-.02-.01-.52-.27-1.27,.07-.02,0-.04,.01-.06,.01Z"/></g></g><path class="cls-15" d="M81.75,115.7s.08-12.22,3.11-15.34,14.31-5.07,14.31-5.07c0,0,10.52-1.09,14.32,.83,3.8,1.92,3.87,11.89,3.87,11.89,0,0-10.21-1.13-11.57,3.44s-1.86,8.96-1.86,8.96l-22.18-4.71Z"/><path class="cls-28" d="M96.68,133.71c-.02-.3-4.74,.1-4.74,.1,0,0-2.83,2.42-5.63,3.04-2.81,.62-1.18,1.89,1.98,1.78,3.16-.11,5.57-.2,7.81-.28,2.24-.08,.79-1.52,.58-4.64Z"/><path class="cls-27" d="M104.76,133.71c-.02-.3-4.74,.1-4.74,.1,0,0-2.83,2.42-5.63,3.04-2.81,.62-1.18,1.89,1.98,1.78,3.16-.11,5.57-.2,7.81-.28,2.24-.08,.79-1.52,.58-4.64Z"/><g><path class="cls-20" d="M116.46,91.26l-3.36,1.75s-.99-.23-1.9,.05-2.65,1.83-2.56,2.51c.09,.68,2.73,.22,3.2,.34,.47,.12,1.43-.48,1.69-.61,.26-.12,.32-.92,.32-.92l2.61-.89v-2.22Z"/><path class="cls-15" d="M126.48,72.18c2.41,.66,3.8,13.3,1.38,17.03-2.42,3.73-12.69,5.17-12.69,5.17l-1.01-2.56s7.91-3.28,8.75-4.88c.84-1.6,1.24-4.79,.52-8.68-.72-3.89,3.04-6.08,3.04-6.08Z"/><path class="cls-10" d="M126.48,72.18c2.41,.66,3.8,13.3,1.38,17.03-2.42,3.73-12.69,5.17-12.69,5.17l-1.01-2.56s7.91-3.28,8.75-4.88c.84-1.6,1.24-4.79,.52-8.68-.72-3.89,3.04-6.08,3.04-6.08Z"/></g><g><path class="cls-20" d="M105.87,90.5l.72,2.56s.63,.6,.84,1.32c.17,.6-.08,1.21-.41,1.31-.83,.26-2.54,.64-2.67,.2-.12-.44-.36-2.32,.36-2.24l-.56-2.07,1.72-1.08Z"/><path class="cls-15" d="M110.24,72.23c-2.77,.74-8.43,9.84-7.55,14.87,.87,5.03,1.75,5.95,1.75,5.95l2.28-1.2s-1.24-5.14-.48-6.96c3.74-8.96,4.01-12.67,4.01-12.67Z"/><path class="cls-10" d="M110.24,72.23c-2.77,.74-8.43,9.84-7.55,14.87,.87,5.03,1.75,5.95,1.75,5.95l2.28-1.2s-1.24-5.14-.48-6.96c3.74-8.96,4.01-12.67,4.01-12.67Z"/></g></g><g><path class="cls-26" d="M129.25,76.68c-.33,0-.61-.27-.61-.61v-4.64c0-1.85,1.45-3.37,3.29-3.45l3.91-.19c.34-.02,.62,.24,.63,.58,.02,.33-.24,.62-.58,.63l-3.91,.19c-1.2,.06-2.14,1.04-2.14,2.24v4.64c0,.33-.27,.61-.61,.61Z"/><g><path class="cls-27" d="M128.27,73.86v24.99h-18.96c-1.68,0-3.04,1.36-3.04,3.04v13.5h20.37c2.03,0,3.67-1.64,3.67-3.67v-37.85c0-.57-.46-1.03-1.03-1.03h0c-.57,0-1.03,.46-1.03,1.03Z"/><path class="cls-14" d="M128.27,73.86v24.99h-18.96c-1.68,0-3.04,1.36-3.04,3.04v13.5h20.37c2.03,0,3.67-1.64,3.67-3.67v-37.85c0-.57-.46-1.03-1.03-1.03h0c-.57,0-1.03,.46-1.03,1.03Z"/><path class="cls-27" d="M125.6,107.87h-15.7c-1.84,0-3.34,1.5-3.34,3.34v26.08c0,.82-.67,1.49-1.49,1.49h-7.73c-.45,0-.81,.36-.81,.81s.36,.81,.81,.81h7.73c1.71,0,3.11-1.39,3.11-3.11v-9.67h17.42c.45,0,.81-.36,.81-.81v-18.12c0-.45-.36-.81-.81-.81Zm-.81,18.12h-16.62v-14.79c0-.95,.77-1.72,1.72-1.72h14.9v16.51Z"/><path class="cls-10" d="M125.6,107.87h-15.7c-1.84,0-3.34,1.5-3.34,3.34v26.08c0,.82-.67,1.49-1.49,1.49h-7.73c-.45,0-.81,.36-.81,.81s.36,.81,.81,.81h7.73c1.71,0,3.11-1.39,3.11-3.11v-9.67h17.42c.45,0,.81-.36,.81-.81v-18.12c0-.45-.36-.81-.81-.81Zm-.81,18.12h-16.62v-14.79c0-.95,.77-1.72,1.72-1.72h14.9v16.51Z"/><rect class="cls-27" x="90.63" y="137.42" width="14.79" height="2.57" rx="1.28" ry="1.28"/><rect class="cls-14" x="90.63" y="137.42" width="14.79" height="2.57" rx="1.28" ry="1.28"/></g><g><path class="cls-27" d="M125.57,145.99c-8.63,0-15.66-8.61-15.66-19.18s7.02-19.18,15.66-19.18,15.66,8.61,15.66,19.18-7.02,19.18-15.66,19.18Zm0-36.35c-7.52,0-13.64,7.7-13.64,17.16s6.12,17.16,13.64,17.16,13.64-7.7,13.64-17.16-6.12-17.16-13.64-17.16Z"/><path class="cls-15" d="M125.57,144.17c-7.63,0-13.84-7.79-13.84-17.37s6.21-17.37,13.84-17.37,13.84,7.79,13.84,17.37-6.21,17.37-13.84,17.37Zm0-32.31c-6.29,0-11.42,6.7-11.42,14.94s5.12,14.94,11.42,14.94,11.42-6.7,11.42-14.94-5.12-14.94-11.42-14.94Z"/><ellipse class="cls-15" cx="125.57" cy="126.81" rx="3.67" ry="4.75"/><g><rect class="cls-15" x="125.17" y="110.65" width=".81" height="32.31"/><rect class="cls-15" x="112.94" y="126.4" width="25.25" height=".81"/><g><rect class="cls-15" x="125.17" y="112.31" width=".81" height="29" transform="translate(-51.45 104.22) rotate(-38.01)"/><rect class="cls-15" x="111.07" y="126.4" width="29" height=".81" transform="translate(-51.67 147.62) rotate(-51.98)"/></g><g><rect class="cls-15" x="109.9" y="126.4" width="31.34" height=".81" transform="translate(-34.21 206.3) rotate(-71.73)"/><rect class="cls-15" x="125.17" y="113.58" width=".81" height="26.44" transform="translate(-45.71 176.92) rotate(-61.59)"/><g><rect class="cls-15" x="125.17" y="111.1" width=".81" height="31.41" transform="translate(-32.46 43.89) rotate(-17.59)"/><rect class="cls-15" x="112.39" y="126.4" width="26.37" height=".81" transform="translate(-44.31 72.14) rotate(-27.44)"/></g></g></g></g></g></g><g><path class="cls-24" d="M74.6,67.22l3.62-1.81s.86-1.17,1.1-1.22,4.6,.53,4.6,.53c0,0-.48,1.38-.91,1.81-.43,.43-3.25-.11-3.25-.11l-3.57,1.76-1.6-.96Z"/><path class="cls-26" d="M71.5,50.98c-.97,.94-1.89,1.67-.47,2.97,1.42,1.3,1.15,3.46-.66,4.42-1.81,.96-10.85,4.24-14.2,.46s-.86-6.37,.79-7.08c1.64-.71,.06-2.56-.09-3.91-.15-1.35,6.03-6.85,8.91-7.22,2.88-.36,4.83,2.13,4.79,4.65-.03,2.52,2.51,4.18,.93,5.71Z"/><g><path class="cls-15" d="M68,57.83c-.2,0,1.11,8.66,1.46,9.95,.35,1.29,7.59-2.19,7.59-2.19l1.17,1.79s-6.36,5.34-9.09,4.74-4.79-10.06-4.79-10.06l3.66-4.24Z"/><path class="cls-12" d="M78.22,67.39s-6.36,5.34-9.09,4.74c-1.1-.24-2.09-1.91-2.88-3.83-1.01-2.45-1.7-5.29-1.87-6.04-.02-.13-.04-.19-.04-.19l.4-.46,1.47-1.71,1.78-2.06c-.14,.34,1.13,8.68,1.47,9.95,.35,1.29,7.59-2.19,7.59-2.19l1.17,1.79Z"/><path class="cls-28" d="M66.26,68.3c-1.01-2.45-1.7-5.29-1.87-6.04,.11-.23,.23-.44,.36-.65,.42-.7,.91-1.3,1.47-1.71,.02-.01,.04-.03,.06-.04,0,0,1.55,4.51-.01,8.44Z"/></g><g><polygon class="cls-15" points="49.57 87.21 60.68 88.78 62.66 60.13 51.54 61.45 49.57 87.21"/><polygon class="cls-14" points="49.57 87.21 60.68 88.78 62.66 60.13 51.54 61.45 49.57 87.21"/></g><polygon class="cls-24" points="55.06 141.59 52.39 141.59 53.21 137.9 53.97 134.51 57.31 134 56.12 138.02 55.06 141.59"/><polygon class="cls-28" points="56.09 138.1 53.19 137.97 53.95 134.55 57.31 134.02 56.09 138.1"/><polygon class="cls-24" points="49.53 141.59 46.86 141.59 47.68 137.9 48.44 134.51 51.78 134 50.59 138.02 49.53 141.59"/><polygon class="cls-28" points="50.57 138.1 47.66 137.97 48.43 134.55 51.78 134.02 50.57 138.1"/><g><path class="cls-26" d="M44.7,71.04s-.13,.29-.35,.82c-1,2.48-3.76,10.33-2.73,19.42,.61,5.38,6.55,15.06,7.44,20.33,1.03,6.14-1.67,16.96-.97,24.9l4.25,.37,1.28-.81,3.64-.54s9.48-21.55,9.3-29c-.14-5.85-9.3-26.83-9.3-26.83l.87-7.76"/><path class="cls-28" d="M54.28,135.98l-.67,.1-1.09,.69c.69-2.42,6.68-23.37,6.79-27.99,.12-4.9-6.85-22.29-6.85-22.29l1.79-3.23-.27,4.92s6.6,13.52,7.12,20.6c.5,6.79-6.26,25.67-6.81,27.2Z"/></g><path class="cls-26" d="M51.64,141.47c0-.29,3.62-.06,3.62-.06,0,0,2.23,2.26,4.39,2.77,2.16,.51,.95,1.81-1.46,1.81h-5.98c-1.72,0-.64-1.46-.57-4.51Z"/><path class="cls-15" d="M55.67,141.88s-.02-.01-.03-.02h0s-.01-.02-.02-.03h0s0-.02,0-.03h0s0-.03,0-.04c.02-.04,.32-.88,.81-1.08,.16-.06,.31-.06,.47,.01,.16,.08,.24,.18,.24,.3-.01,.19-.27,.38-.56,.54,.31-.03,.62-.02,.81,.09,.1,.06,.17,.14,.19,.24,.05,.21-.02,.33-.09,.39-.08,.06-.19,.09-.32,.09-.51,0-1.31-.37-1.5-.46Zm.33-.06c.53,.23,1.2,.42,1.37,.28,.01-.01,.06-.05,.02-.19-.01-.05-.05-.09-.1-.13-.1-.06-.25-.08-.43-.08-.28,0-.61,.06-.86,.11Zm.5-.97c-.28,.12-.51,.53-.62,.78,.54-.2,1.05-.48,1.06-.65,0-.05-.08-.1-.13-.12-.06-.03-.11-.04-.17-.04-.05,0-.1,.01-.15,.03Z"/><polygon class="cls-15" points="52.33 135.47 58.33 134.65 57.83 136.89 52.88 137.51 52.33 135.47"/><path class="cls-26" d="M46.11,141.47c0-.29,3.62-.06,3.62-.06,0,0,2.23,2.26,4.39,2.77,2.16,.51,.95,1.81-1.46,1.81h-5.98c-1.72,0-.64-1.46-.57-4.51Z"/><path class="cls-15" d="M50.14,141.88s-.02-.01-.03-.02h0s-.01-.02-.02-.03h0s0-.02,0-.03h0s0-.03,0-.04c.02-.04,.32-.88,.81-1.08,.16-.06,.31-.06,.47,.01,.16,.08,.24,.18,.24,.3-.01,.19-.27,.38-.56,.54,.31-.03,.62-.02,.81,.09,.1,.06,.17,.14,.19,.24,.05,.21-.02,.33-.09,.39-.08,.06-.19,.09-.32,.09-.51,0-1.31-.37-1.5-.46Zm.33-.06c.53,.23,1.2,.42,1.37,.28,.01-.01,.06-.05,.02-.19-.01-.05-.05-.09-.1-.13-.1-.06-.25-.08-.43-.08-.28,0-.61,.06-.86,.11Zm.5-.97c-.28,.12-.51,.53-.62,.78,.54-.2,1.05-.48,1.06-.65,0-.05-.08-.1-.13-.12-.06-.03-.11-.04-.17-.04-.05,0-.1,.01-.15,.03Z"/><polygon class="cls-15" points="47.21 135.47 53.61 134.65 53.08 136.89 47.79 137.51 47.21 135.47"/><g><polygon points="45.48 69.29 44.85 71.09 57.49 74.43 58.23 72.3 45.48 69.29"/><rect class="cls-26" x="48.71" y="69.79" width=".65" height="3.3" transform="translate(21.97 -10.87) rotate(16.26)"/><rect class="cls-6" x="52.08" y="71.35" width="2.86" height="2.17" transform="translate(19.22 -10.84) rotate(14.07)"/><rect class="cls-26" x="56.51" y="71.58" width=".65" height="3.3" transform="translate(22.8 -12.99) rotate(16.27)"/></g><path class="cls-15" d="M67.8,57.83c-.55,.71-1.06,1.39-1.53,2.02-1.84,2.46-3.15,4.21-4.16,5.62-1.37,1.94-2.16,3.23-2.92,4.86-.33,.69-.65,1.45-1.01,2.34l-12.7-3.39c2.39-8.88,4.44-13.53,5.47-15.86,.01-.03,.02-.05,.03-.08,.64-1.44,2.24-2.2,3.77-1.79,.91,.25,1.98,.56,2.97,.89,1.84,.68,3.63,1.49,5.36,2.43,1.64,.86,3.22,1.84,4.72,2.94Z"/><path class="cls-24" d="M54.74,51.57c-1.67-.44,.79,5.44,4.59,6.59,3.8,1.15,6.09-.26,6.09-1.35,0-1.09-5.63-3.9-10.68-5.23Z"/><g><g><path class="cls-15" d="M55.86,51.46s1.28,5.76,0,9.99c-1.28,4.23-11.72,29.81-11.72,29.81h-5.54s1.71-12.63,6.87-23.47c0,0,4.63-14.57,4.73-15.21,.11-.64,2.56-1.69,5.64-1.11Z"/><path class="cls-15" d="M63.13,54.54s.17,5.9-2.01,11.13l-.43,22.29s1.79-11.45,2.58-20.17l4.73-9.95-4.87-3.3Z"/><path class="cls-11" d="M55.86,61.45c-1.28,4.22-11.71,29.81-11.71,29.81h-5.54s1.57-11.55,6.22-22.04c.21-.48,.43-.96,.66-1.44,0,0,.44-1.39,1.05-3.32,1.37-4.34,3.61-11.45,3.68-11.89,.1-.64,2.56-1.69,5.65-1.11,0,0,1.28,5.76,0,9.99Z"/><path class="cls-11" d="M63.13,54.54s.17,5.9-2.01,11.13l-.43,22.29s1.79-11.45,2.58-20.17l4.73-9.95-4.87-3.3Z"/></g><g><path class="cls-15" d="M63.27,54.04s1.68,1.36,2.79,4.95l-2.26,1.61,.54,1.47-3.22,5.15s-.26-2.08,.26-3.99c.51-1.92,2.05-7.56,1.89-9.19Z"/><path class="cls-15" d="M56.42,51.46s2.16,7.01-2.06,14.14c0,0-.13-5.37-.86-7.33l1.73-.69-3.42-2.22s2.77-4.55,4.6-3.89Z"/><path class="cls-12" d="M63.27,54.04s1.68,1.36,2.79,4.95l-2.26,1.61,.54,1.47-3.22,5.15s-.26-2.08,.26-3.99c.51-1.92,2.05-7.56,1.89-9.19Z"/><path class="cls-12" d="M56.42,51.46s2.16,7.01-2.06,14.14c0,0-.13-5.37-.86-7.33l1.73-.69-3.42-2.22s2.77-4.55,4.6-3.89Z"/></g><path class="cls-28" d="M50.11,71.25c-1.3,.12-3.57-1.02-5.29-2.02,.21-.48,.43-.96,.66-1.44,0,0,.44-1.39,1.05-3.32,2.07,2.54,5.14,6.63,3.58,6.78Z"/></g><g><g><path class="cls-15" d="M51.02,79.37s1.26,.17,3.67-2.14,5.66-5.02,6.44-4.65c.78,.37,7.17,3.46,7.17,3.46l-9.67,6.89-7.61-3.55Z"/><path class="cls-12" d="M51.02,79.37s1.26,.17,3.67-2.14,5.66-5.02,6.44-4.65c.78,.37,7.17,3.46,7.17,3.46l-9.67,6.89-7.61-3.55Z"/><path class="cls-15" d="M51.2,80.76l9.9-7.75c.13-.1,.31-.12,.46-.06l7.45,3.3c.14,.06,.16,.25,.04,.34l-9.78,7.3c-.12,.09-.28,.11-.43,.06l-7.59-2.85c-.14-.05-.17-.25-.05-.34Z"/><g><path class="cls-1" d="M65.67,74.33c-.08-.05-.23,0-.34,.06,.1,.05,.2,.09,.3,.14,.06-.07,.12-.15,.04-.21Z"/><path class="cls-26" d="M65.85,74.64c.09-.14,.2-.39-.06-.52-.24-.12-.56,.02-.75,.13-.38-.18-.74-.35-.99-.46-.06-.02-.12-.01-.16,.03l-.62,.57c-.12,.11-.09,.3,.06,.37l2.54,1.08c.18,.08,.4,.05,.55-.08l.51-.42c.07-.06,.06-.16-.02-.2-.21-.1-.6-.29-1.04-.5Zm-.17-.31c.08,.05,.02,.14-.04,.21-.1-.05-.2-.09-.3-.14,.11-.06,.26-.12,.34-.06Z"/></g></g><path class="cls-24" d="M53.3,72.68l1.65,2.21s1.6,.32,2.03,.75c.42,.43,1.81,2.29,1.97,2.72,.16,.43-2.22,1.6-2.52,1.44-.3-.16-2-2.56-2.22-2.98-.22-.43,0-.87,0-.87l-1.75-2.01,.84-1.25Z"/><path class="cls-15" d="M50.21,52.57c1.49,.82,1.61,4.01,1.61,4.01,0,0-3.42,6.63-3.63,7.66-.21,1.03,6.33,9.47,6.33,9.47l-1.53,1.43s-7.88-8.45-8.73-10.49,5.96-12.09,5.96-12.09Z"/><path class="cls-12" d="M50.21,52.57c1.49,.82,1.61,4.01,1.61,4.01,0,0-3.42,6.63-3.63,7.66-.21,1.03,6.33,9.47,6.33,9.47l-1.53,1.43s-7.88-8.45-8.73-10.49,5.96-12.09,5.96-12.09Z"/></g><g><path class="cls-26" d="M68.84,69.36c0,.58-.47,1.06-1.06,1.06s-1.06-.47-1.06-1.06,.47-1.06,1.06-1.06,1.06,.47,1.06,1.06Z"/><g class="cls-30"><path class="cls-6" d="M68.84,69.36c0,.58-.47,1.06-1.06,1.06s-1.06-.47-1.06-1.06,.47-1.06,1.06-1.06,1.06,.47,1.06,1.06Z"/></g><path class="cls-26" d="M63.75,60.63c0-.61,.11-1.26,.22-1.95,.38-2.4,.81-5.12-2.78-6.67-1.08-.47-2.05-.46-2.86,.03-1.84,1.1-2.31,4.3-2.4,5.14-.73-.05-1.32,.16-1.75,.62-1.31,1.4-.71,4.63-.69,4.76,.02,.11,.13,.18,.24,.16,.11-.02,.18-.13,.16-.24,0-.03-.59-3.16,.58-4.41,.39-.41,.91-.57,1.61-.48,.69,.09,1.18,.38,1.5,.9,1.01,1.64-.14,4.92-.15,4.95-.04,.1,.02,.22,.12,.26,.02,0,.05,.01,.07,.01,.08,0,.16-.05,.19-.13,.05-.14,1.23-3.49,.11-5.3-.35-.57-.89-.92-1.6-1.05,.09-.78,.55-3.85,2.21-4.84,.69-.42,1.53-.42,2.49,0,3.3,1.43,2.91,3.87,2.54,6.24-.11,.7-.22,1.37-.23,2-.05,3.25,.99,8.44,3.99,8.55v-.4c-2.81-.1-3.63-5.53-3.59-8.14Z"/><path class="cls-9" d="M63.75,60.63c0-.61,.11-1.26,.22-1.95,.38-2.4,.81-5.12-2.78-6.67-1.08-.47-2.05-.46-2.86,.03-1.84,1.1-2.31,4.3-2.4,5.14-.73-.05-1.32,.16-1.75,.62-1.31,1.4-.71,4.63-.69,4.76,.02,.11,.13,.18,.24,.16,.11-.02,.18-.13,.16-.24,0-.03-.59-3.16,.58-4.41,.39-.41,.91-.57,1.61-.48,.69,.09,1.18,.38,1.5,.9,1.01,1.64-.14,4.92-.15,4.95-.04,.1,.02,.22,.12,.26,.02,0,.05,.01,.07,.01,.08,0,.16-.05,.19-.13,.05-.14,1.23-3.49,.11-5.3-.35-.57-.89-.92-1.6-1.05,.09-.78,.55-3.85,2.21-4.84,.69-.42,1.53-.42,2.49,0,3.3,1.43,2.91,3.87,2.54,6.24-.11,.7-.22,1.37-.23,2-.05,3.25,.99,8.44,3.99,8.55v-.4c-2.81-.1-3.63-5.53-3.59-8.14Z"/><path class="cls-26" d="M57.85,63.2l-.56-.11s-.42,.89-.08,1.05c.35,.16,.82-.47,.63-.93Z"/><g class="cls-30"><path class="cls-6" d="M57.85,63.2l-.56-.11s-.42,.89-.08,1.05c.35,.16,.82-.47,.63-.93Z"/></g><path class="cls-26" d="M53.61,62.21h.57s.24,.96-.13,1.04c-.37,.08-.71-.62-.44-1.04Z"/><g class="cls-30"><path class="cls-6" d="M53.61,62.21h.57s.24,.96-.13,1.04c-.37,.08-.71-.62-.44-1.04Z"/></g><circle class="cls-26" cx="67.55" cy="68.89" r=".59"/><g class="cls-31"><circle class="cls-6" cx="67.55" cy="68.89" r=".59"/></g></g><g><path class="cls-24" d="M59.6,57.38c-2.14-2.43-1.96-4.1-1.96-4.1,2.8-.1,3.73-3.71,3.73-3.71l2.42,3.1c-.5,.41-.89,.79-1.19,1.12-1.57,1.74-.79,2.46-.79,2.46-.33,1.4-2.22,1.14-2.22,1.14Z"/><path class="cls-28" d="M63.8,52.66c-.5,.41-.89,.79-1.19,1.12-1.11-1.56-1.23-4.22-1.23-4.22l2.42,3.1Z"/></g><g><path class="cls-24" d="M66.44,41.23c3.27,.8,3.9,2.8,3.32,6.23-.73,4.28-2.39,7.05-6.26,5.15-5.26-2.57-2.49-12.71,2.94-11.39Z"/><path class="cls-23" d="M67.68,46.77s.25,.96,.62,1.59c0,0-.39,.38-.95,.16l.33-1.75Z"/><g><path class="cls-26" d="M65.75,46.01c-.06,.27-.25,.46-.43,.42-.18-.04-.28-.29-.22-.56,.06-.27,.25-.46,.43-.42,.18,.04,.28,.29,.22,.56Z"/><path class="cls-26" d="M65.45,45.45l.64-.1s-.4,.43-.64,.1Z"/></g><g><path class="cls-26" d="M69.12,46.69c-.06,.27-.25,.46-.43,.42-.18-.04-.28-.29-.22-.56,.06-.27,.25-.46,.43-.42,.18,.04,.28,.29,.22,.56Z"/><path class="cls-26" d="M68.82,46.13l.64-.1s-.4,.43-.64,.1Z"/></g><path class="cls-2" d="M66.26,43.75s-.89-.34-1.54,.15"/><path class="cls-2" d="M68.67,44.19s.63-.07,1.24,.59"/><path class="cls-26" d="M61.52,45.88s2.18-2.31,2.46-4.45c0,0,7.13-1.07,5.84,5.59,0,0,2.06-5.69-3.53-7.19-5.58-1.5-7.57,6.73-5.26,9.89,0,0-.86-2.39,.5-3.84Z"/><path class="cls-24" d="M61.89,46.7c.11-.53-.22-1.56-1.23-1.69-1.04-.14-2.03,1.83,.37,2.94,.34,.16,.63-.14,.86-1.25Z"/><path class="cls-26" d="M71.79,48.49c-.85-.8-.72-2.18-.06-3.57,.66-1.39-1.06-2.41-1.06-2.41,0,0-.14-1.75-1.48-2.46-.25-.13-1.37,0-1.37,0-1.47-1.61-3.83-2.94-5.69-.84-1.09,1.24-2.18-.03-3.91,2.56-1.25,1.87-.38,3.51-.74,4.11-1.68,2.76,.5,3.51,1.03,4.47,0,0,1.16-.55,1.06-.88-.78-2.65,.59-4.36,1.65-3.94,1.06,.42,1.83,.31,2.6-.67,.77-.97,.23-2.03,2.02-2.26,1.78-.24,1.96-1.26,1.96-1.26,0,0-.02,1.35,1.47,2.13,1.49,.78,.9,1.72,.7,3.05-.21,1.33,.45,1.84,1.6,2.8,1.16,.96-.07,1.66-.07,1.66,.94-.46,1.14-1.69,.29-2.49Z"/><g><path class="cls-26" d="M67.1,50c-.33,.27-.81,.84-.81,.84-.06-.03-.12-.07-.18-.1-.8-.48-1.01-.97-1.01-1.36,0-.22,.08-.4,.16-.55,.09-.17,.19-.26,.19-.26,.27,.51,.98,1.01,1.37,1.27,.16,.11,.27,.17,.27,.17Z"/><path class="cls-6" d="M66.83,49.83l-.24,.24c-.75-.45-1.22-.87-1.32-1.24,.09-.17,.19-.26,.19-.26,.27,.51,.98,1.01,1.37,1.27Z"/><path class="cls-22" d="M66.12,50.74c-.8-.48-1.01-.97-1.01-1.36,.27,.17,.57,.41,.78,.71,.16,.23,.22,.45,.22,.65Z"/></g></g></g></svg>