<?xml version="1.0" encoding="UTF-8"?><svg id="Camada_1" xmlns="http://www.w3.org/2000/svg" viewBox="0 0 150.48 146.86"><defs><style>.cls-1{fill:#0468b6;}.cls-2{fill:#006837;}.cls-3{fill:#eb996e;}.cls-4{fill:#f5f5f5;}.cls-5{fill:#fff;}.cls-6{fill:#f2c6dd;}.cls-7{fill:#ececec;}.cls-8{fill:#fafafa;}.cls-9{fill:#ffbe9d;}.cls-10{fill:#e8505b;}.cls-11{fill:#bf654e;}.cls-12{fill:#c78976;}.cls-13{fill:#e1e1e1;}.cls-14{fill:#067881;}.cls-15{fill:#375a64;}.cls-16{fill:#1a2e35;}.cls-17{fill:#47439d;}.cls-18{opacity:.3;}.cls-19{opacity:.6;}</style></defs><g><g><path class="cls-7" d="M136.07,75.28s-2.6-.19-2.36,5.65c.24,5.84,.84,8.95,.84,8.95,0,0-.08,1.3-1.08,1.04-1-.25-2.89-1.51-3.82-.57-.97,.98-.62,2.48,.66,4.24,1.28,1.77,3.95,5.74,4.19,6.1,.24,.35,.33,1.02-.38,.95-.71-.06-5.51-1.69-6.15,.63-.64,2.32,3.74,6.66,4.21,7.14,.47,.48,.5,.79,.3,1.08-.19,.29-1.75-.41-3.14-.81-1.38-.41-3.06-.64-3.32,.74-.25,1.37,1.68,5.39,8.9,9.6l3.48,1.74,3.29-2.1c6.77-4.92,8.29-9.11,7.9-10.45-.39-1.34-2.04-.94-3.37-.4-1.34,.54-2.82,1.39-3.04,1.12-.22-.27-.22-.58,.19-1.1,.42-.53,4.34-5.28,3.48-7.52-.86-2.25-5.48-.15-6.18-.02-.7,.13-.67-.53-.47-.91,.2-.38,2.46-4.6,3.56-6.49,1.1-1.89,1.29-3.41,.23-4.29-1.02-.84-2.77,.6-3.75,.95s-1.18-.93-1.18-.93c0,0,.28-3.16-.06-8.99-.35-5.84-2.98-5.37-2.98-5.37"/><path class="cls-13" d="M136.28,80.51s0,.04,.01,.12l.03,.36c.02,.32,.05,.79,.09,1.38,.08,1.2,.18,2.93,.3,5.08,.24,4.29,.52,10.21,.8,16.76,.29,6.55,.55,12.47,.76,16.76,.11,2.14,.2,3.87,.26,5.08l.07,1.38v.36c.02,.08,.01,.12,.01,.12,0,0,0-.04-.01-.12l-.03-.36c-.02-.32-.05-.79-.09-1.38-.08-1.2-.18-2.93-.3-5.08-.24-4.29-.52-10.21-.8-16.76-.29-6.55-.55-12.47-.76-16.76-.11-2.14-.2-3.87-.26-5.08-.03-.59-.05-1.06-.07-1.38v-.36c-.02-.08-.01-.12-.01-.12Z"/><path class="cls-13" d="M132.21,92.23s.08,.06,.22,.18c.13,.12,.32,.3,.55,.53,.46,.45,1.08,1.1,1.74,1.82,.65,.71,1.24,1.36,1.7,1.86l.52,.56c.12,.13,.19,.21,.18,.22,0,0-.08-.06-.22-.18-.13-.12-.32-.3-.55-.53-.45-.46-1.06-1.11-1.73-1.83-.66-.71-1.25-1.35-1.71-1.85l-.52-.56c-.12-.13-.19-.21-.18-.22Z"/><path class="cls-13" d="M137.47,97.28s1.25-1.36,2.84-2.97c1.59-1.62,2.91-2.91,2.93-2.88,.03,.03-1.24,1.36-2.84,2.97-1.59,1.62-2.91,2.91-2.93,2.88Z"/><path class="cls-13" d="M137.45,107.36s.08-.06,.24-.15l.68-.38c.57-.32,1.36-.77,2.22-1.3,.86-.52,1.62-1.02,2.16-1.39,.25-.17,.47-.31,.65-.43,.15-.1,.24-.15,.25-.15s-.07,.07-.22,.19c-.14,.11-.36,.28-.63,.47-.53,.39-1.29,.9-2.15,1.43-.86,.53-1.66,.96-2.24,1.27-.29,.15-.53,.27-.7,.34-.17,.08-.26,.12-.27,.11Z"/><path class="cls-13" d="M131.69,103.83s.09,.03,.24,.11c.15,.08,.37,.2,.63,.35,.53,.3,1.26,.72,2.05,1.2,.8,.47,1.52,.91,2.03,1.23,.26,.16,.47,.29,.61,.39,.14,.09,.22,.15,.21,.16,0,0-.09-.03-.24-.11-.15-.08-.37-.2-.63-.35-.53-.3-1.26-.72-2.05-1.2-.8-.47-1.52-.91-2.03-1.23-.26-.16-.47-.29-.61-.39-.14-.09-.22-.15-.21-.16Z"/><path class="cls-13" d="M130.55,112.72s.11,.05,.31,.15l.81,.45c.68,.38,1.62,.92,2.64,1.52,1.03,.6,1.96,1.15,2.62,1.55l.79,.48c.18,.12,.28,.18,.28,.19,0,0-.11-.05-.31-.15l-.81-.45c-.68-.38-1.62-.92-2.64-1.52-1.03-.6-1.96-1.15-2.62-1.55-.32-.19-.58-.35-.79-.48-.18-.12-.28-.18-.28-.19Z"/><path class="cls-13" d="M137.85,116.9s.1-.08,.3-.2c.22-.13,.5-.31,.84-.51,.71-.43,1.7-1.04,2.76-1.73,1.07-.69,2.02-1.35,2.7-1.83,.33-.23,.6-.42,.81-.56,.19-.13,.3-.2,.31-.19,0,0-.09,.09-.28,.24-.18,.15-.45,.35-.79,.6-.67,.5-1.62,1.16-2.69,1.86-1.07,.7-2.06,1.29-2.79,1.7-.36,.21-.66,.37-.87,.48-.21,.11-.32,.17-.33,.16Z"/></g><g><polygon class="cls-13" points="143.08 122.9 133.46 122.9 136.6 146.66 139.94 146.66 143.08 122.9"/><path class="cls-4" d="M133.96,125.82s.01,.03,.05,.08c.04,.05,.12,.12,.23,.17,.23,.1,.63,.11,1.02-.12,.39-.21,.73-.63,1.25-.82,.52-.2,1.16-.16,1.77,.04,.62,.19,1.16,.51,1.65,.8,.49,.29,.94,.55,1.34,.72,.4,.17,.75,.25,.99,.29,.12,.02,.21,.02,.28,.02,.06,0,.1,0,.1,0,0-.03-.54-.03-1.32-.4-.39-.18-.82-.44-1.31-.74-.48-.3-1.03-.63-1.67-.82-.63-.2-1.31-.24-1.87-.02-.28,.11-.51,.27-.7,.43-.2,.16-.37,.32-.55,.43-.35,.23-.72,.24-.94,.16-.22-.08-.29-.21-.3-.19Z"/><path class="cls-4" d="M134.31,130.2s.08-.1,.23-.25c.15-.15,.4-.35,.77-.49,.36-.14,.82-.22,1.34-.2,.52,.02,1.08,.13,1.67,.23,.6,.1,1.19,.14,1.71,.07,.53-.07,.98-.22,1.35-.38,.36-.17,.63-.35,.81-.48,.18-.13,.26-.22,.26-.23-.02-.03-.39,.31-1.11,.61-.36,.15-.81,.29-1.32,.34-.51,.06-1.08,.02-1.67-.08-.59-.1-1.16-.21-1.69-.22-.53-.01-1.01,.09-1.38,.24-.37,.15-.63,.38-.77,.55-.07,.09-.12,.16-.15,.21-.03,.05-.04,.08-.04,.08Z"/><path class="cls-4" d="M141.99,132.54s-.09-.07-.26-.14c-.18-.07-.45-.14-.8-.17-.34-.03-.76,0-1.2,.07-.45,.07-.93,.2-1.43,.3-.5,.11-.99,.18-1.43,.16-.44-.02-.83-.11-1.14-.25-.62-.27-.84-.67-.86-.64,0,0,.04,.1,.16,.25,.12,.15,.34,.34,.65,.49,.31,.15,.72,.27,1.18,.29,.46,.02,.96-.05,1.47-.15,.51-.11,.99-.24,1.43-.31,.44-.08,.84-.11,1.17-.1,.67,.02,1.06,.23,1.07,.2Z"/><path class="cls-4" d="M135.16,135.84s.34-.21,.93-.09c.29,.05,.61,.2,.98,.36,.36,.17,.8,.31,1.27,.35,.94,.09,1.79-.21,2.3-.53,.26-.16,.45-.33,.57-.44,.12-.12,.18-.2,.17-.2-.02-.02-.27,.26-.8,.55-.51,.29-1.33,.56-2.23,.47-.91-.05-1.61-.6-2.24-.67-.31-.05-.56,0-.73,.06-.16,.06-.23,.14-.23,.14Z"/><path class="cls-4" d="M135.7,140.4s.32,.02,.8-.16c.48-.16,1.08-.53,1.78-.81,.35-.13,.7-.22,1.02-.21,.32,0,.61,.08,.82,.19,.44,.22,.57,.53,.59,.51,0,0-.01-.08-.09-.2-.08-.12-.22-.28-.45-.41-.23-.13-.53-.22-.87-.23-.34-.01-.72,.07-1.08,.21-.72,.29-1.3,.67-1.77,.85-.46,.2-.76,.24-.76,.26Z"/><path class="cls-4" d="M136.17,142.52s.23,.1,.61,.2c.38,.1,.92,.2,1.52,.26,.6,.06,1.15,.06,1.54,.04,.39-.02,.64-.06,.64-.08,0-.05-.97,0-2.16-.13-1.19-.11-2.13-.34-2.15-.3Z"/></g></g><g><rect class="cls-8" x="110.53" width="29.86" height="38.45"/><g><path class="cls-7" d="M132.75,5.65s-.02,.03-.05,.08l-.17,.21c-.08,.09-.17,.21-.27,.36-.1,.15-.22,.31-.33,.51-.24,.39-.48,.9-.7,1.5-.22,.61-.41,1.32-.55,2.13-.14,.8-.23,1.7-.28,2.65-.06,.96-.06,1.99-.11,3.07-.05,1.08-.14,2.22-.37,3.39-.12,.58-.27,1.17-.48,1.74-.21,.58-.48,1.14-.82,1.68-.67,1.08-1.62,1.92-2.64,2.53-1.02,.61-2.1,1.02-3.14,1.33-1.04,.32-2.05,.54-2.99,.75-.94,.21-1.81,.42-2.59,.65-.78,.23-1.48,.48-2.07,.75-.59,.26-1.08,.54-1.46,.79-.19,.12-.36,.24-.5,.35-.14,.1-.26,.19-.35,.27l-.21,.18s-.07,.06-.08,.06c0,0,.02-.03,.06-.07l.2-.19c.09-.08,.2-.18,.34-.29,.14-.11,.3-.23,.49-.36,.38-.26,.86-.55,1.46-.82,.59-.27,1.29-.54,2.08-.78,.79-.24,1.66-.45,2.6-.67,.94-.22,1.94-.45,2.97-.76,1.03-.32,2.09-.72,3.1-1.32,1-.6,1.92-1.42,2.58-2.47,.33-.52,.59-1.08,.8-1.64,.2-.57,.36-1.14,.47-1.72,.22-1.15,.32-2.28,.37-3.36,.05-1.08,.07-2.11,.13-3.07,.06-.96,.15-1.86,.3-2.67,.15-.81,.34-1.53,.58-2.14,.24-.61,.48-1.12,.74-1.5,.11-.2,.24-.36,.35-.5,.1-.15,.2-.26,.28-.35l.18-.2s.06-.07,.07-.07Z"/><path class="cls-7" d="M136.99,10.19s0,.03-.04,.09l-.12,.25c-.12,.21-.3,.52-.6,.87-.3,.35-.7,.75-1.24,1.13-.53,.38-1.19,.75-1.95,1.06-.77,.31-1.64,.56-2.58,.78-.94,.22-1.96,.4-3.01,.65-1.05,.25-2.15,.56-3.2,1.09-1.05,.52-2.05,1.26-2.75,2.28-.7,1.03-1.01,2.24-1.12,3.4-.11,1.17-.03,2.31,.09,3.38,.12,1.08,.27,2.1,.34,3.07,.08,.97,.08,1.87-.02,2.69-.1,.82-.31,1.55-.56,2.15-.25,.61-.56,1.09-.85,1.45-.29,.36-.57,.59-.75,.75l-.22,.16c-.05,.04-.08,.05-.08,.05,0,0,.02-.02,.07-.06l.21-.17c.18-.16,.45-.4,.72-.76,.28-.36,.58-.84,.81-1.44,.24-.6,.43-1.32,.53-2.13,.09-.81,.08-1.71,0-2.67-.08-.96-.23-1.98-.36-3.06-.12-1.08-.22-2.23-.1-3.42,.11-1.18,.43-2.42,1.14-3.48,.72-1.06,1.75-1.81,2.82-2.34,1.07-.53,2.18-.85,3.24-1.09,1.06-.24,2.08-.42,3.02-.63,.94-.21,1.81-.45,2.57-.75,.76-.3,1.41-.66,1.94-1.03,.53-.37,.94-.76,1.24-1.1,.31-.34,.49-.65,.62-.85l.14-.24c.03-.05,.05-.08,.05-.08Z"/><path class="cls-7" d="M126.22,25.14s-.34-.2-.85-.58c-.51-.37-1.21-.9-1.98-1.48-.77-.59-1.46-1.13-1.95-1.52-.49-.4-.79-.65-.78-.67,.01-.02,.34,.2,.85,.58s1.21,.9,1.98,1.48c.77,.59,1.46,1.13,1.95,1.52s.79,.65,.78,.67Z"/><path class="cls-7" d="M128.58,22.96s-.11-.05-.28-.17c-.17-.12-.42-.3-.73-.52-.61-.45-1.45-1.08-2.37-1.78-.92-.7-1.75-1.35-2.34-1.82-.3-.24-.53-.43-.7-.57-.16-.14-.25-.22-.24-.23,0,0,.11,.05,.28,.17,.17,.12,.42,.3,.73,.52,.61,.45,1.45,1.08,2.37,1.78,.92,.7,1.75,1.35,2.34,1.82,.3,.24,.53,.43,.7,.57,.16,.14,.25,.22,.24,.23Z"/><path class="cls-7" d="M129.49,20.29s-.33-.19-.82-.55c-.49-.36-1.17-.86-1.91-1.43-.74-.56-1.4-1.08-1.88-1.47-.47-.38-.76-.63-.75-.65,.01-.02,.33,.19,.82,.55,.49,.36,1.17,.86,1.91,1.43,.74,.56,1.4,1.08,1.88,1.47,.47,.38,.76,.63,.75,.65Z"/><path class="cls-7" d="M130.17,17.26s-.69-.42-1.47-1.02c-.78-.6-1.4-1.12-1.37-1.15,.03-.04,.69,.42,1.47,1.02,.78,.6,1.4,1.12,1.37,1.15Z"/><path class="cls-7" d="M133.75,13.26s-.76-.47-1.63-1.14c-.87-.67-1.56-1.24-1.53-1.28,.03-.04,.76,.47,1.63,1.14,.87,.67,1.56,1.24,1.53,1.28Z"/><path class="cls-7" d="M136.76,11.58s-.33-.19-.82-.55c-.49-.36-1.17-.86-1.91-1.43-.74-.56-1.4-1.08-1.88-1.47s-.76-.63-.75-.65c.01-.02,.33,.19,.82,.55,.49,.36,1.17,.86,1.91,1.43,.74,.56,1.4,1.08,1.88,1.47,.47,.38,.76,.63,.75,.65Z"/><path class="cls-7" d="M123.41,26.1s-.76-.47-1.63-1.14c-.87-.67-1.56-1.24-1.53-1.28,.03-.04,.76,.47,1.63,1.14,.87,.67,1.56,1.24,1.53,1.28Z"/><path class="cls-7" d="M119.88,30.5s-.71-.44-1.53-1.06c-.81-.62-1.45-1.16-1.42-1.19,.03-.04,.71,.44,1.53,1.06,.81,.62,1.45,1.16,1.42,1.19Z"/><path class="cls-7" d="M119.75,33.94s-.33-.2-.84-.56c-.5-.37-1.19-.88-1.94-1.46-.75-.58-1.43-1.11-1.91-1.5-.48-.39-.78-.64-.76-.66,.01-.02,.33,.2,.84,.56,.5,.37,1.19,.88,1.94,1.46,.75,.58,1.43,1.11,1.91,1.5,.48,.39,.78,.64,.76,.66Z"/></g><path class="cls-13" d="M113.83,2.27c0,.33-.27,.59-.59,.59s-.59-.27-.59-.59,.27-.59,.59-.59,.59,.27,.59,.59Z"/><path class="cls-13" d="M138.28,2.27c0,.33-.27,.59-.59,.59s-.59-.27-.59-.59,.27-.59,.59-.59,.59,.27,.59,.59Z"/></g><g><g><rect class="cls-13" x="8.21" y="2.1" width="23.34" height="33.83"/><rect class="cls-4" x="7.04" y="2.1" width="23.34" height="33.83"/><g><rect class="cls-5" x="9.94" y="5.76" width="17.54" height="26.5"/><path class="cls-13" d="M27.48,32.26s0-.04,0-.13v-.38c0-.33,0-.82-.01-1.45,0-1.27,0-3.12-.02-5.46,0-4.67-.02-11.29-.03-19.08l.06,.06c-5.36,0-11.3,0-17.54,0h0l.06-.06c0,10,0,19.21-.01,26.5l-.05-.05c5.34,.01,9.72,.02,12.77,.03h3.53l.93,.02c.21,0,.32,0,.32,0,0,0-.1,0-.31,0h-.92c-.81,0-2,.01-3.52,.02-3.05,0-7.44,.02-12.8,.03h-.05v-.05c0-7.29,0-16.5-.01-26.5v-.06h.07c6.24,0,12.18,0,17.54,0h.06v.06c-.01,7.81-.02,14.44-.03,19.12,0,2.33-.01,4.18-.02,5.45v1.81c-.01,.08-.01,.12-.01,.12Z"/></g><path class="cls-13" d="M30.44,2.1s-.14,.24-.42,.6c-.27,.36-.66,.86-1.09,1.39-.44,.53-.85,1.01-1.15,1.34-.3,.34-.5,.54-.51,.52-.01-.01,.16-.23,.45-.58,.31-.38,.7-.85,1.12-1.36,.43-.52,.81-.98,1.12-1.36,.29-.35,.47-.56,.49-.55Z"/><g><path class="cls-5" d="M27.57,32.17c.87,1.39,1.9,2.67,3.06,3.83"/><path class="cls-13" d="M30.63,36s-.22-.17-.53-.49c-.31-.32-.73-.77-1.15-1.3-.42-.53-.78-1.04-1.02-1.41-.24-.38-.37-.62-.36-.63,.02,0,.17,.22,.43,.58,.26,.36,.62,.85,1.04,1.38,.42,.53,.82,.99,1.12,1.32,.3,.33,.48,.53,.47,.55Z"/></g><g><path class="cls-5" d="M7.04,35.9c1.02-1.26,2.04-2.51,3.06-3.77"/><path class="cls-13" d="M10.1,32.12s-.64,.88-1.48,1.93c-.84,1.04-1.55,1.87-1.58,1.85-.03-.02,.63-.88,1.48-1.93,.84-1.04,1.55-1.87,1.58-1.85Z"/></g><path class="cls-13" d="M7.04,2.1s.69,.77,1.48,1.77c.79,1,1.41,1.83,1.38,1.85-.03,.02-.69-.77-1.48-1.77-.79-1-1.41-1.83-1.38-1.85Z"/></g><g><circle class="cls-13" cx="20.69" cy="19.44" r="1.88"/><path class="cls-13" d="M23.58,12.82c0,.78-.63,1.41-1.41,1.41s-1.41-.63-1.41-1.41,.63-1.41,1.41-1.41,1.41,.63,1.41,1.41Z"/><path class="cls-13" d="M18.11,14.98c0,.56-.46,1.02-1.02,1.02s-1.02-.46-1.02-1.02,.46-1.02,1.02-1.02,1.02,.46,1.02,1.02Z"/><path class="cls-13" d="M23.72,25.64c-.25,.25-.65,.25-.89,0-.25-.25-.25-.65,0-.89,.25-.25,.65-.25,.89,0s.25,.65,0,.89Z"/><path class="cls-13" d="M15.15,20.64c0,.56-.46,1.02-1.02,1.02s-1.02-.46-1.02-1.02,.46-1.02,1.02-1.02,1.02,.46,1.02,1.02Z"/><path class="cls-13" d="M20.69,19.44c.06-.03,.69,1.18,1.4,2.7,.71,1.52,1.24,2.78,1.17,2.81-.06,.03-.69-1.18-1.4-2.7-.71-1.52-1.24-2.78-1.17-2.81Z"/><path class="cls-13" d="M20.54,19.63c.01,.07-1.36,.33-3.06,.58-1.7,.25-3.09,.4-3.1,.33-.01-.07,1.36-.33,3.06-.58,1.7-.25,3.09-.4,3.1-.33Z"/><path class="cls-13" d="M20.41,18.73s-.92-.66-1.79-1.73c-.88-1.07-1.41-2.06-1.35-2.09,.06-.04,.68,.88,1.55,1.93,.86,1.05,1.65,1.84,1.6,1.89Z"/><path class="cls-13" d="M22.18,12.82h0s0,0,.01,0h0v.05l-.04,.18-.14,.66c-.13,.56-.32,1.33-.53,2.17-.43,1.69-.8,3.06-.86,3.04-.07-.01,.18-1.41,.62-3.11,.22-.85,.43-1.61,.6-2.16,.09-.27,.16-.49,.22-.64,.03-.07,.06-.13,.08-.17,.01-.02,.02-.03,.03-.04h0s.02,0,.02,0c0,0,0,0,0,0Z"/></g></g><path class="cls-16" d="M150.48,146.62s-33.69,.09-75.24,.09-75.24-.04-75.24-.09,33.68-.09,75.24-.09,75.24,.04,75.24,.09Z"/><g><g><path class="cls-15" d="M111.3,135.98l.2,6.81s-6.85,2.49-6.94,3.75l13.22,.09,.13-10.62-6.6-.03Z"/><path class="cls-16" d="M109.89,143.28c-.02,.06,.26,.17,.48,.45,.23,.27,.28,.56,.34,.56,.06,.01,.11-.37-.17-.7-.27-.34-.65-.37-.65-.31Z"/><path class="cls-16" d="M109.1,144.94c.06,.01,.15-.31-.01-.66-.16-.36-.46-.5-.49-.44-.04,.05,.16,.24,.29,.54,.14,.29,.15,.56,.22,.57Z"/></g><g><path class="cls-15" d="M134.43,135.98l1.38,6.8s6.85,2.49,6.94,3.75l-13.22,.09-1.61-10.62,6.5-.03Z"/><path class="cls-16" d="M137.42,143.28c.02,.06-.26,.17-.48,.45-.23,.27-.28,.56-.34,.56-.06,.01-.11-.37,.17-.7,.27-.34,.65-.37,.65-.31Z"/><path class="cls-16" d="M138.22,144.93c-.06,.01-.15-.31,.01-.66,.16-.36,.46-.5,.49-.44,.04,.05-.16,.24-.29,.54-.14,.29-.15,.56-.22,.57Z"/></g><g><polygon class="cls-1" points="127.75 71.07 137.74 142.76 128.05 142.57 117.16 81.56 119.69 142.86 109.07 142.2 105.34 70.64 127.75 71.07"/><g class="cls-18"><polygon points="105.62 76.27 105.58 75.23 128.43 75.94 128.67 77.93 105.62 76.27"/></g><path class="cls-16" d="M112.97,142.49s-.75-14.26-1.57-31.86c-.82-17.6-1.45-31.87-1.4-31.87,.05,0,.75,14.26,1.57,31.86,.82,17.6,1.45,31.87,1.4,31.87Z"/><path class="cls-16" d="M133.1,141.91s-.01-.05-.03-.16l-.08-.47c-.06-.43-.16-1.04-.27-1.83-.24-1.59-.58-3.89-1-6.72-.85-5.67-2.05-13.51-3.48-22.15-1.43-8.64-2.81-16.45-3.83-22.09-.51-2.82-.93-5.1-1.22-6.68l-.33-1.82-.08-.47c-.02-.11-.02-.16-.02-.16,0,0,.02,.05,.04,.16l.1,.47c.08,.42,.21,1.03,.36,1.81,.31,1.57,.75,3.85,1.27,6.67,1.05,5.64,2.45,13.44,3.88,22.09,1.43,8.64,2.61,16.48,3.43,22.16,.41,2.84,.73,5.14,.94,6.73,.1,.79,.19,1.41,.24,1.83l.06,.48c.01,.11,.01,.16,.01,.16Z"/></g><g><g><path class="cls-1" d="M104.88,52.8s-5.01-1.19-5.17-1.4l4.12-10.6c.58-1.48,1.54-2.79,2.85-3.7,.6-.41,1.25-.74,1.95-.98,2.67-.91,4.86-.75,4.86-.75l6.95-.37c2.16,.13,4,.76,5.48,1.52,2.34,1.2,4.15,3.24,5.15,5.67l3.12,7.78-7.86,1.64-.3,8.36,3.59,16.03-25.08-.82,1.12-21.96h0l-.77-.43Z"/><g class="cls-18"><path class="cls-5" d="M100.57,50.01s1.29,.45,2.9,.95c1.61,.5,2.92,.88,2.93,.86s-1.29-.45-2.9-.95c-1.61-.5-2.92-.88-2.93-.86Z"/></g><path class="cls-16" d="M123.28,42.56s.05-.06,.13-.18c.08-.12,.2-.29,.36-.5,.16-.21,.36-.44,.59-.69,.24-.25,.51-.5,.82-.75,.31-.25,.62-.46,.91-.64,.29-.18,.56-.32,.8-.43,.23-.11,.43-.19,.56-.25,.13-.05,.21-.09,.21-.09,0,0-.08,.02-.22,.06-.14,.04-.34,.12-.58,.22-.24,.1-.52,.24-.81,.42-.3,.18-.61,.39-.92,.64-.31,.25-.58,.51-.82,.77-.23,.25-.43,.5-.58,.71-.15,.21-.27,.39-.34,.52-.07,.13-.11,.2-.1,.2Z"/><path class="cls-16" d="M124.3,45.09s.22,2.56,.54,5.7c.32,3.15,.61,5.7,.63,5.69,.02,0-.22-2.56-.54-5.7-.32-3.15-.61-5.7-.63-5.69Z"/><path class="cls-16" d="M107.21,40.36s.04-.2,.11-.52c.07-.32,.18-.76,.35-1.22,.17-.47,.36-.88,.51-1.17,.15-.29,.25-.46,.24-.47,0,0-.04,.04-.09,.11-.05,.07-.13,.19-.21,.33-.17,.28-.37,.69-.54,1.17-.17,.47-.27,.92-.32,1.24-.03,.16-.04,.29-.05,.39,0,.09,0,.14,0,.14Z"/><path class="cls-16" d="M106.78,49.28s.02-.09,.04-.25c.02-.16,.05-.4,.08-.69,.06-.58,.12-1.39,.15-2.28,.03-.89,.03-1.7,.01-2.29,0-.29-.02-.53-.03-.69,0-.16-.02-.25-.02-.25,0,0,0,.09-.01,.25,0,.18,0,.41,0,.69,0,.58,0,1.39-.04,2.28-.03,.89-.08,1.7-.12,2.28l-.05,.69c-.01,.16-.01,.25,0,.25Z"/><path class="cls-5" d="M117.29,47.79c1.82,.11,3.66,.07,5.47-.1v.71h-5.47v-.61Z"/><g class="cls-18"><path class="cls-5" d="M111.84,35.97s0,.04-.02,.11l-.05,.32c-.03,.28-.08,.68-.12,1.2-.08,1.03-.15,2.49-.18,4.21v.07l.06-.03c1.09-.53,2.32-1.11,3.59-1.75,2.43-1.21,4.62-2.31,6.22-3.11,.79-.4,1.43-.72,1.88-.95l.51-.26,.13-.07s.04-.03,.04-.03-.02,0-.05,.02l-.14,.06-.52,.25-1.89,.93c-1.6,.79-3.8,1.88-6.23,3.09-1.27,.64-2.49,1.22-3.58,1.75l.06,.04c.02-1.72,.08-3.18,.15-4.21,.03-.51,.07-.92,.1-1.2l.03-.32c0-.07,.01-.11,0-.11Z"/></g><g class="cls-18"><path class="cls-5" d="M124.91,50.74s.03,0,.09-.02l.26-.06,.94-.24c.79-.2,1.88-.48,3.09-.77,1.21-.29,2.31-.54,3.1-.73l.94-.22,.26-.06c.06-.02,.09-.02,.09-.03,0,0-.03,0-.09,.01l-.26,.05c-.22,.04-.55,.11-.95,.19-.8,.17-1.9,.41-3.11,.7-1.21,.29-2.3,.58-3.08,.8-.39,.11-.71,.2-.93,.27l-.25,.08c-.06,.02-.09,.03-.09,.03Z"/></g><g><path class="cls-16" d="M112.8,34.67s-.47,.22-.92,.89c-.45,.67-.86,1.71-1.1,2.9-.12,.6-.17,1.18-.2,1.7,0,.26-.01,.51,0,.75,.01,.23,.02,.45,.04,.65l.06,.53c.02,.16,.05,.29,.07,.4,.04,.22,.07,.34,.08,.34,.01,0,0-.13-.01-.35l-.04-.4-.03-.53c-.01-.2,0-.41-.01-.64,0-.23,.01-.48,.02-.74,.03-.52,.1-1.09,.21-1.68,.23-1.17,.63-2.2,1.03-2.87,.2-.33,.42-.57,.57-.73,.15-.15,.26-.22,.25-.24Z"/><path class="cls-16" d="M120.57,34.72s.13,.19,.36,.52c.24,.33,.54,.83,.81,1.5,.27,.67,.47,1.51,.6,2.46,.12,.95,.18,2.01,.25,3.12,.06,1.11,.06,2.17,.06,3.13,0,.96,0,1.83,0,2.56,0,.73,.02,1.32,.04,1.73,.02,.41,.05,.63,.06,.63,.02,0,.03-.23,.04-.63l.04-1.73c.02-.73,.04-1.6,.06-2.56,.01-.97,.02-2.03-.04-3.15-.07-1.11-.13-2.17-.27-3.14-.14-.96-.37-1.82-.67-2.5-.3-.68-.63-1.18-.9-1.49-.26-.32-.43-.47-.44-.46Z"/><path class="cls-16" d="M109.08,49.02s.02-.2,.03-.56c.01-.36,.02-.89,.03-1.54,0-.33,0-.68,0-1.06,0-.38,0-.79,.02-1.21,.03-.42,.14-.86,.44-1.19,.29-.34,.73-.56,1.21-.57,.47,0,.93,.19,1.26,.49,.34,.3,.53,.71,.64,1.11,.11,.41,.15,.82,.21,1.19,.06,.38,.12,.73,.17,1.05,.1,.64,.19,1.16,.25,1.52,.06,.36,.1,.56,.12,.55,.01,0,0-.2-.05-.56-.04-.36-.11-.88-.2-1.53-.04-.32-.09-.68-.14-1.05-.06-.38-.1-.78-.2-1.21-.11-.42-.31-.87-.68-1.2-.36-.32-.85-.55-1.38-.54-.53,0-1.02,.26-1.33,.63-.33,.38-.44,.86-.47,1.3-.03,.44,0,.84,0,1.23v1.06c.02,.65,.03,1.18,.04,1.54,.01,.36,.02,.56,.04,.56Z"/><path class="cls-16" d="M110.73,41.2c.06,.6,.25,1.27,.66,1.71-.36-.08-.74-.07-1.1,.02,.26-.52,.3-1.15,.29-1.73"/><path class="cls-16" d="M109.07,45.09s.05-.29,.27-.68c.11-.19,.27-.41,.5-.59,.22-.19,.51-.34,.84-.4,.33-.06,.65,0,.93,.09,.27,.1,.5,.25,.66,.4,.33,.3,.44,.57,.47,.56,.02,0-.05-.3-.38-.65-.16-.17-.4-.34-.69-.46-.29-.12-.65-.18-1.02-.11-.36,.07-.68,.24-.92,.45-.24,.21-.4,.45-.5,.66-.2,.43-.18,.74-.16,.74Z"/></g></g><g><path class="cls-9" d="M104.49,64.46c-1.02,0-1.93-.73-2.41-1.63s-.6-1.94-.65-2.96c-.13-2.69,.21-5.41,.98-7.99l4.46,.78-1.22,12.02-1.17-.22Z"/><g><polygon class="cls-16" points="122.55 65.96 108.01 65.43 104.49 48.4 119.8 49.25 122.55 65.96"/><path class="cls-15" d="M115.07,48.96l-.22-.43-1.16-.09s-.29-.76-1.95-.84c-1.49-.07-1.55,.68-1.55,.68h-.8v.36l5.68,.32Z"/></g><g><path class="cls-9" d="M106.96,60.47l-1.1-.32c-.21-.06-.43-.07-.64-.03h0c-.26,.05-.5,.18-.68,.36-.36,.36-.95,.95-1.04,1.13-.12,.26-.12,.71,0,.87s-.27,1.01-.22,1.3c.05,.28,.12,.57,.22,.68,.1,.12,0,.52,.25,.83,.25,.3,.47,.49,.47,.49,0,0,3.03,.14,3.32,0,.3-.14,.81-.68,.81-.68,0,0,.27-.49-.15-.54l1.72-.66c.21-.08,.33-.31,.25-.52-.03-.07-.07-.13-.15-.17,0,0,.77-.24,.95-.32,.36-.16,.49-.99-.25-.88-.39,.06-.92,.17-.92,.17,0,0,.28-.46-.11-.73-.24-.17-1.32,.04-1.32,.04l-1.42-1.01h0Z"/><path class="cls-3" d="M106.58,65.01s.41,0,.89-.13c.49-.13,.84-.35,.82-.37-.01-.02-.37,.16-.85,.29-.47,.14-.87,.19-.87,.22Z"/><path class="cls-3" d="M107.24,63.94s.64-.12,1.4-.31c.77-.2,1.39-.38,1.38-.4,0-.02-.63,.12-1.4,.31-.77,.2-1.39,.38-1.38,.4Z"/><path class="cls-3" d="M106.88,62.87s.68-.11,1.51-.31c.83-.19,1.5-.37,1.49-.39,0-.02-.68,.11-1.51,.31-.83,.19-1.5,.37-1.49,.39Z"/><path class="cls-3" d="M105.76,61.49s.15,.06,.39,.12l.43,.11,.25,.06c.09,.02,.19,.03,.29,.03,.1,0,.19-.03,.28-.05l.25-.06,.43-.1c.24-.06,.39-.11,.39-.12,0-.01-.16,.01-.4,.06l-.43,.08c-.16,.03-.34,.08-.52,.1-.18,.02-.35-.05-.52-.08l-.43-.09c-.25-.05-.4-.07-.4-.06Z"/><path class="cls-3" d="M105.56,62.07s-.05,.03-.08,.11c-.03,.08-.05,.21-.01,.34,.04,.13,.13,.22,.2,.27,.07,.05,.13,.05,.13,.04,.01-.02-.18-.12-.25-.34-.07-.23,.03-.41,.01-.42Z"/><path class="cls-3" d="M105.63,63.24s-.09,.11-.08,.28c0,.17,.09,.28,.11,.27,.02-.01-.01-.13-.02-.27,0-.14,.02-.26,0-.27Z"/><path class="cls-3" d="M105.61,64.51s-.07,.07-.05,.18c.02,.11,.09,.17,.11,.15,.02-.02,0-.08-.03-.17-.02-.08-.02-.16-.04-.16Z"/><path class="cls-3" d="M105.28,61.42s.11,0,.29-.01l.31-.04c.12-.02,.24-.04,.37-.02,.12,.02,.23,.09,.33,.15,.09,.06,.18,.13,.26,.18,.16,.1,.28,.1,.28,.1,0-.01-.1-.05-.24-.15-.14-.1-.31-.3-.61-.37-.07,0-.14,0-.21,0-.07,0-.13,.02-.19,.03l-.31,.06c-.18,.04-.28,.06-.28,.08Z"/></g><path class="cls-3" d="M103.53,64.52s-.03-.08-.08-.22c-.05-.14-.12-.34-.12-.6,0-.13,.03-.27,.06-.42,.04-.15,.1-.3,.14-.48,.04-.18-.01-.38-.04-.56-.03-.18,.01-.37,.1-.55,.08-.18,.2-.34,.31-.49,.12-.15,.23-.29,.35-.42,.23-.26,.47-.46,.72-.56,.24-.1,.46-.11,.6-.09,.15,.02,.22,.06,.22,.05,0,0-.02-.01-.05-.03-.04-.02-.09-.04-.17-.05-.15-.03-.38-.03-.63,.07-.26,.1-.52,.3-.75,.56-.12,.13-.24,.27-.36,.42-.12,.15-.24,.31-.33,.5-.09,.19-.13,.4-.1,.6,.03,.2,.08,.37,.04,.53-.03,.16-.1,.32-.13,.48-.04,.15-.06,.3-.06,.44,0,.27,.09,.48,.15,.62,.06,.14,.1,.21,.11,.2Z"/><g><path class="cls-9" d="M113.71,56.1l11.93,1.9-.53-6.23,6.64-1.28,.81,9.22,.14,2.11c.09,1.43-.56,2.81-1.73,3.64h0c-1.06,.75-2.42,.96-3.66,.56l-2.56-.84-12.51-4.45"/><g><path class="cls-9" d="M106.49,54.81c-.05-.21,.13-.4,.34-.4,.67,0,2.49,0,3.13,.19,.79,.23,3.75,1.49,3.75,1.49l-1.25,4.63-4.54,.05s-1.66-.76-1.68-1.09c-.01-.17,.04-.62,.04-.62l-.5-.27c-.75-.47-.27-1.38-.27-1.38,0,0-.51-.29-.54-.81-.03-.55,.4-.77,.4-.77,0,0-.21-.73,.18-.93,.38-.2,1.03,.06,1.03,.06-.05-.04-.08-.09-.09-.16Z"/><path class="cls-3" d="M106.22,54.89s.05,.02,.14,.05c.09,.03,.23,.06,.39,.08,.33,.06,.8,.11,1.31,.16,.51,.06,.97,.12,1.3,.2,.33,.08,.51,.18,.52,.16,0,0-.04-.03-.12-.08-.08-.04-.21-.1-.38-.14-.33-.1-.79-.17-1.3-.23-.51-.05-.98-.09-1.31-.14-.33-.04-.54-.08-.54-.07Z"/><path class="cls-3" d="M105.37,55.81s.11,.08,.32,.16c.2,.08,.5,.17,.83,.24,.33,.07,.63,.11,.85,.14,.22,.03,.35,.04,.36,.03,0-.03-.53-.12-1.18-.26-.33-.07-.62-.15-.82-.21-.21-.07-.33-.12-.34-.1Z"/><path class="cls-3" d="M105.5,57.42s.42,.21,.97,.33c.56,.13,1.02,.14,1.02,.12,0-.03-.45-.08-1-.21-.55-.12-.98-.27-.99-.24Z"/><path class="cls-3" d="M105.78,58.79s.32,.17,.75,.27c.43,.1,.79,.12,.79,.1,0-.03-.35-.08-.77-.18-.42-.1-.76-.21-.77-.19Z"/><path class="cls-3" d="M108.14,57.97s.05,.04,.14,.05c.09,0,.22-.01,.34-.09,.12-.08,.18-.2,.2-.29,.02-.09,.01-.15,0-.15-.02,0-.05,.22-.25,.37-.2,.14-.43,.09-.43,.12Z"/><path class="cls-3" d="M108.24,59.41s.18,.04,.33-.1c.16-.14,.17-.32,.14-.32-.03,0-.07,.14-.2,.25-.13,.12-.28,.15-.27,.17Z"/><path class="cls-3" d="M108.76,56.49s.12,.06,.23-.02c.12-.09,.11-.22,.09-.22-.02,0-.06,.08-.14,.15-.08,.07-.17,.07-.18,.1Z"/><path class="cls-3" d="M113.71,56.1s-.01,0-.04-.02l-.11-.05-.42-.19c-.37-.16-.9-.39-1.58-.67-.34-.14-.71-.29-1.12-.44-.21-.07-.42-.16-.65-.2-.23-.04-.47-.07-.72-.09-.5-.04-1.02-.06-1.57-.06h-.63c-.07,0-.16,0-.23,.04-.14,.07-.24,.24-.19,.41,.02,.04,.04,.05,.05,.06,.02,.01,.03,.02,.05,.03,.03,.02,.07,.03,.1,.05,.07,.03,.14,.05,.22,.07,.02,0,.05,0,.05-.03,0-.02,0-.05-.03-.05-.18-.05-.37-.1-.57-.13-.19-.03-.39-.05-.6-.02-.1,.02-.21,.05-.29,.13-.08,.08-.12,.18-.15,.29-.04,.21-.01,.42,.04,.62l.02-.05c-.1,.05-.18,.13-.25,.22-.18,.23-.22,.54-.13,.81,.09,.27,.29,.48,.52,.62l-.02-.06c-.12,.25-.18,.52-.14,.79,.03,.27,.21,.51,.43,.65h0l.5,.27-.02-.04c-.01,.12-.02,.24-.03,.36,0,.06,0,.12,0,.18,0,.03,0,.06,0,.09,0,.04,.02,.07,.04,.1,.07,.11,.17,.18,.26,.25,.09,.07,.19,.13,.28,.19,.38,.23,.76,.42,1.13,.59,0,0,.01,0,.02,0l3.3-.05,.91-.02h.24c.05-.01,.08-.01,.08-.01,0,0-.03,0-.08,0h-1.15c-.8,0-1.93,0-3.3,.02h.02c-.36-.17-.74-.36-1.12-.59-.09-.06-.19-.12-.28-.18-.09-.07-.18-.14-.24-.22-.01-.02-.02-.04-.02-.06,0-.03,0-.06,0-.08,0-.06,0-.12,0-.17,0-.12,.02-.23,.03-.35,0-.02,0-.03-.02-.04l-.5-.27h0c-.2-.13-.36-.34-.39-.59-.03-.24,.03-.51,.14-.74,.01-.02,0-.05-.02-.06-.21-.13-.4-.33-.48-.57-.08-.24-.04-.52,.12-.73,.06-.08,.14-.15,.22-.2,.02-.01,.03-.03,.02-.05-.05-.19-.07-.4-.04-.58,.02-.09,.06-.18,.12-.24,.06-.06,.15-.09,.25-.1,.19-.03,.38,0,.57,.02,.19,.03,.38,.07,.55,.12l.02-.08c-.07-.02-.14-.04-.2-.07-.03-.01-.07-.03-.1-.04-.03-.01-.06-.04-.07-.04,0-.06,0-.12,.03-.18,.03-.06,.08-.1,.13-.13,.06-.03,.11-.04,.19-.04h.63c.55,0,1.07,.02,1.57,.06,.25,.02,.49,.04,.71,.08,.23,.04,.44,.12,.64,.19,.41,.15,.78,.3,1.12,.43,.67,.27,1.21,.49,1.59,.64l.43,.17,.11,.04s.04,.01,.04,.01Z"/></g><path class="cls-3" d="M125.59,57.98s.47,.26,.88,.76c.42,.5,.56,1.02,.59,1.01,0,0-.01-.14-.09-.34-.08-.2-.22-.47-.43-.73-.21-.25-.45-.44-.64-.55-.18-.11-.31-.16-.32-.15Z"/></g></g><g><g><g><g><g><path class="cls-9" d="M110.01,21.08c.25-3.13,2.86-5.55,6-5.56h.31c3.37,.19,5.09,3.15,4.8,6.51l-.58,13.47c0,.23-.14,.43-.35,.52l-7.55,3.55,.23-7.07s-3.24-.5-3.28-3.73c-.02-1.56,.19-4.78,.42-7.7Z"/><path class="cls-3" d="M112.84,32.51s2.07,.12,4.24-1.25c0,0-.99,2.33-4.22,2.05l-.02-.8Z"/></g><g><g><g><path class="cls-16" d="M110.79,23.61c0,.24,.19,.45,.45,.47,.25,.01,.47-.17,.48-.42,0-.24-.19-.45-.45-.47-.25-.01-.47,.17-.48,.42Z"/><path class="cls-16" d="M110.71,22.66c.06,.06,.41-.2,.9-.2,.5,0,.86,.25,.92,.19,.03-.03-.03-.14-.19-.25-.16-.11-.42-.23-.73-.22-.31,0-.57,.12-.72,.23-.15,.12-.2,.23-.18,.25Z"/></g><g><path class="cls-16" d="M115.46,23.73c0,.24,.19,.45,.45,.47,.25,.01,.47-.17,.48-.42,0-.24-.19-.45-.45-.47-.25-.01-.47,.17-.48,.42Z"/><path class="cls-16" d="M115.59,22.75c.06,.06,.41-.2,.9-.2,.5,0,.86,.25,.92,.19,.03-.03-.03-.14-.19-.25-.16-.11-.42-.23-.73-.22-.31,0-.57,.12-.72,.23-.15,.12-.2,.23-.18,.25Z"/></g><path class="cls-16" d="M113.8,26.44s-.31-.08-.81-.14c-.13-.01-.25-.04-.27-.12-.03-.09,.02-.23,.08-.38,.12-.31,.24-.63,.37-.97,.52-1.38,.89-2.51,.84-2.53-.06-.02-.52,1.08-1.04,2.46-.12,.34-.24,.66-.36,.97-.05,.14-.13,.31-.06,.5,.03,.09,.13,.16,.21,.19,.08,.02,.15,.03,.22,.03,.5,.03,.82,.03,.82,0Z"/><path class="cls-16" d="M115.26,26.78c-.08,0-.08,.54-.54,.92-.46,.39-1.04,.33-1.04,.4,0,.03,.13,.1,.37,.11,.24,0,.59-.07,.87-.3,.28-.24,.4-.55,.42-.77,.02-.23-.04-.36-.08-.36Z"/></g><path class="cls-16" d="M115.46,20.8c.05,.14,.55,.07,1.13,.14,.58,.06,1.06,.23,1.13,.11,.03-.06-.05-.19-.24-.32-.19-.13-.49-.25-.84-.29-.35-.04-.67,.02-.88,.11-.21,.09-.32,.19-.3,.26Z"/><path class="cls-16" d="M110.89,21.23c.09,.11,.43,0,.84-.01,.41-.02,.76,.07,.84-.04,.04-.06-.02-.17-.17-.28-.15-.11-.4-.19-.68-.18-.28,0-.53,.11-.67,.23-.15,.12-.19,.23-.15,.29Z"/></g></g><g><path class="cls-9" d="M120.64,24.44c.06-.02,2.22-.66,2.16,1.55-.07,2.21-2.27,1.69-2.27,1.63,0-.06,.12-3.18,.12-3.18Z"/><path class="cls-3" d="M121.02,26.79s.04,.03,.1,.06c.06,.03,.17,.05,.29,.01,.24-.08,.44-.44,.47-.84,.01-.2-.02-.39-.09-.55-.06-.16-.16-.28-.28-.3-.12-.03-.2,.04-.23,.1-.03,.06-.02,.11-.03,.11,0,0-.05-.04-.03-.13,.01-.04,.04-.1,.09-.14,.05-.04,.13-.06,.21-.05,.17,.02,.32,.18,.39,.35,.08,.18,.13,.39,.12,.62-.03,.45-.27,.86-.59,.94-.16,.04-.29-.01-.35-.07-.07-.06-.08-.11-.07-.11Z"/></g><path class="cls-16" d="M119.19,17.86l-9.22,.2c.29-.64,.8-1.15,1.35-1.57,1.2-.91,2.67-1.48,4.18-1.5,1.5-.03,4.57,1.81,5.66,2.84,.87,.83,.87,1.55,.87,1.55,.14,1.2-.53,2.56-.8,3.73-.14,.61-.4,2.44-.4,2.44h0c-.51,0-.7-.41-.62-.91l.1-1.97s-1.73-1.23-.91-3.48c.13-.18,.41-1-.2-1.33Z"/></g><path class="cls-3" d="M117.25,24.86s.06-.02,.07-.05c0-.03-.01-.06-.04-.07-.03,0-.06,.02-.07,.05,0,.03,.01,.06,.04,.07Z"/><path class="cls-3" d="M116.3,24.64s.06-.02,.07-.06c0-.04-.01-.07-.04-.08-.03,0-.06,.02-.07,.06,0,.04,.01,.07,.04,.08Z"/><path class="cls-3" d="M115.66,24.63s.06-.03,.07-.08c0-.05-.01-.09-.04-.1-.03,0-.06,.03-.07,.08,0,.05,.01,.09,.04,.1Z"/><path class="cls-3" d="M116.78,25.45s.05-.02,.05-.04c0-.02-.02-.03-.05-.03-.03,0-.05,.02-.05,.04,0,.02,.02,.03,.05,.03Z"/><path class="cls-3" d="M115.91,25.25s.06-.02,.06-.06c0-.03-.02-.06-.05-.07-.03,0-.06,.02-.06,.06,0,.03,.02,.06,.05,.07Z"/><path class="cls-3" d="M111.38,24.72s.06-.02,.07-.05c0-.03-.01-.07-.04-.07-.03,0-.06,.02-.07,.05,0,.03,.01,.07,.04,.07Z"/><path class="cls-3" d="M110.73,24.66s.06-.03,.06-.06c0-.04-.02-.07-.05-.07-.03,0-.06,.03-.06,.06,0,.04,.02,.07,.05,.07Z"/><path class="cls-3" d="M111.95,24.74s.06-.01,.06-.04c0-.03-.01-.05-.04-.06-.03,0-.06,.01-.06,.04,0,.03,.01,.05,.04,.06Z"/><path class="cls-3" d="M111.47,25.39s.06,0,.08-.04c.01-.03,0-.07-.02-.08-.03-.01-.06,0-.08,.04-.01,.03,0,.07,.02,.08Z"/><path class="cls-3" d="M110.92,25.28s.05-.03,.04-.06c0-.02-.04-.04-.07-.03-.03,0-.05,.03-.04,.06,0,.02,.04,.04,.07,.03Z"/></g><path class="cls-16" d="M121.21,17.96c.24-.81,0-1.71-.52-2.37s-1.37-1.05-2.21-1.02c-.43,.02-.86,.14-1.29,.09-.8-.09-1.41-.73-2.15-1.04-1.15-.48-2.62-.04-3.32,.99-.28,.42-.46,.94-.89,1.2-.37,.23-.84,.21-1.26,.33-.84,.25-1.42,1.15-1.38,2.03,.04,.88,.66,1.69,1.47,2.03,.81,.35,1.78,.25,2.55-.18,.7-.39,1.32-1.05,2.11-1.02,.82,.02,1.54,.8,2.35,.64,.42-.08,.75-.41,1.06-.71,.31-.3,.67-.61,1.1-.63,.43-.03,.66,.57,.5,.97l1.86-1.32"/><path class="cls-15" d="M110.14,16.89s0,.01,.01,.03c.01,.02,.03,.05,.05,.09,.05,.08,.13,.18,.26,.3,.13,.12,.31,.24,.55,.32,.23,.08,.53,.12,.84,.05,.31-.06,.63-.23,.88-.5,.25-.28,.4-.65,.64-.97,.12-.16,.26-.31,.45-.4,.18-.09,.4-.14,.61-.13,.22,0,.43,.06,.63,.17,.19,.11,.35,.27,.46,.48,.11,.2,.19,.43,.33,.62,.13,.2,.35,.35,.59,.36,.24,.01,.46-.08,.64-.19,.19-.11,.35-.26,.49-.41,.28-.29,.57-.57,.91-.65,.35-.08,.68,.04,.93,.22,.25,.18,.41,.41,.51,.63,.1,.22,.16,.42,.19,.59,.03,.17,.05,.3,.06,.39,.01,.09,.02,.14,.02,.14,0,0,0-.01,0-.04,0-.02,0-.06,0-.1,0-.09-.02-.23-.04-.4-.03-.17-.08-.38-.18-.61-.1-.23-.26-.47-.52-.66-.25-.18-.61-.32-.98-.24-.38,.08-.67,.38-.96,.67-.14,.14-.29,.29-.48,.39-.18,.11-.38,.18-.59,.17-.21-.01-.4-.14-.52-.32-.13-.18-.2-.4-.32-.61-.11-.21-.29-.4-.5-.51-.21-.11-.44-.17-.67-.18-.23,0-.46,.05-.65,.15-.2,.1-.35,.26-.47,.43-.24,.34-.39,.7-.62,.97-.24,.27-.55,.42-.84,.49-.3,.07-.58,.04-.81-.04-.23-.07-.41-.19-.54-.3-.26-.22-.35-.4-.36-.4Z"/><path class="cls-15" d="M108.47,16.93s-.03,.06-.04,.18c-.01,.12,0,.29,.05,.49,.06,.2,.16,.44,.35,.65,.18,.21,.43,.4,.73,.53,.6,.26,1.2,.24,1.61,.18,.21-.03,.37-.07,.48-.1,.11-.03,.17-.05,.17-.06,0-.01-.25,.05-.66,.09-.4,.04-.99,.05-1.57-.2-.28-.13-.53-.3-.7-.5-.18-.2-.29-.42-.35-.62-.12-.39-.05-.65-.07-.65Z"/></g><g><path class="cls-13" d="M124.21,52.56c-.03,.37-.19,.7-.39,.96-.2,.26-.6,.51-.92,.49,0,0-.81,.07-1.24-.62-.39-.63-.49-1.93-.18-2.7,.22-.53,.71-1.02,1.28-1.04,.75-.02,1.22,.53,1.38,1.08"/><path class="cls-16" d="M124.14,50.72s-.02-.14-.14-.37c-.06-.11-.15-.24-.28-.37-.13-.13-.31-.25-.53-.31-.11-.03-.23-.06-.36-.06-.13,0-.26,0-.39,.05-.26,.08-.51,.27-.7,.5-.2,.23-.34,.53-.41,.86-.07,.32-.1,.67-.08,1.01,.03,.54,.14,1.07,.44,1.48,.15,.2,.35,.34,.57,.43,.21,.09,.43,.12,.64,.11h0c.17,0,.33-.05,.46-.11,.13-.07,.25-.15,.35-.24,.19-.19,.3-.39,.38-.56,.07-.17,.11-.32,.12-.42,0-.05,.01-.09,.01-.11,0-.03,0-.04,0-.04-.01,0-.01,.21-.17,.55-.08,.16-.19,.36-.38,.54-.09,.08-.21,.16-.34,.23-.13,.06-.28,.11-.43,.1h0c-.39,.01-.85-.13-1.14-.51-.28-.38-.38-.91-.41-1.43-.04-.68,.08-1.36,.46-1.81,.18-.23,.41-.4,.66-.48,.12-.04,.25-.06,.37-.05,.12,0,.24,.02,.34,.05,.21,.06,.39,.17,.52,.29,.13,.12,.22,.24,.29,.35,.13,.22,.16,.36,.17,.35Z"/><path class="cls-13" d="M124.61,52.59c-.03,.37-.19,.7-.39,.96-.2,.26-.6,.51-.92,.49,0,0-.81,.07-1.24-.62-.39-.63-.49-1.93-.18-2.7,.22-.53,.71-1.02,1.28-1.04,.75-.02,1.22,.53,1.38,1.08"/><path class="cls-16" d="M124.54,50.76s-.02-.14-.14-.37c-.06-.11-.15-.24-.28-.37-.13-.13-.31-.25-.53-.31-.11-.03-.23-.06-.36-.06-.13,0-.26,0-.39,.05-.26,.08-.51,.27-.7,.5-.2,.23-.34,.53-.41,.86-.07,.32-.1,.67-.08,1.01,.03,.54,.14,1.07,.44,1.48,.15,.2,.36,.34,.57,.43,.21,.09,.43,.12,.64,.11h0c.17,0,.33-.05,.46-.11,.13-.07,.25-.15,.35-.24,.19-.19,.3-.39,.38-.56,.07-.17,.11-.32,.12-.42,0-.05,.01-.09,.01-.11,0-.03,0-.04,0-.04-.01,0-.01,.21-.17,.55-.08,.16-.19,.36-.38,.54-.09,.08-.21,.16-.34,.23-.13,.06-.28,.11-.43,.1h0c-.39,.01-.85-.13-1.14-.51-.28-.38-.38-.91-.41-1.43-.04-.68,.08-1.36,.46-1.81,.18-.23,.41-.4,.66-.48,.12-.04,.25-.06,.37-.05,.12,0,.24,.02,.34,.05,.21,.06,.39,.17,.52,.29,.13,.12,.22,.24,.29,.35,.13,.22,.16,.36,.17,.35Z"/><path class="cls-13" d="M123.88,50.56c.37-.07,.76,.18,.92,.53,.16,.35,.12,.76,0,1.12-.06,.18-.15,.36-.28,.5-.13,.14-.32,.24-.51,.25-.28,0-.54-.19-.71-.42-.27-.37-.36-.87-.24-1.31,.08-.3,.3-.6,.6-.61"/><path class="cls-16" d="M123.66,50.62s-.02,0-.07,0c-.04,0-.11,.02-.19,.06-.15,.08-.32,.29-.39,.59-.07,.29-.06,.68,.11,1.05,.09,.18,.21,.36,.38,.5,.17,.14,.42,.23,.66,.16,.24-.07,.42-.24,.53-.43,.11-.19,.18-.39,.22-.59,.08-.39,.02-.78-.17-1.03-.18-.25-.43-.36-.6-.38-.08-.01-.15,0-.2,0-.04,0-.07,.02-.07,.02,0,.01,.09-.02,.25,.02,.16,.03,.39,.14,.55,.38,.17,.24,.22,.6,.14,.98-.04,.19-.11,.38-.21,.56-.11,.18-.27,.33-.48,.39-.21,.06-.42-.01-.58-.14-.16-.13-.28-.3-.36-.47-.17-.35-.18-.71-.12-1,.06-.29,.21-.49,.35-.57,.14-.09,.24-.08,.24-.09Z"/><path class="cls-16" d="M123.02,53.37s.03-.05,.09-.12c.06-.07,.16-.15,.29-.19,.13-.04,.26-.05,.36-.06,.1,0,.16-.01,.16-.03,0-.01-.06-.03-.16-.04-.1,0-.24-.01-.39,.03-.15,.05-.26,.15-.32,.24-.05,.09-.05,.16-.04,.16Z"/><path class="cls-16" d="M122.89,50.33s.03,.06,.11,.12c.08,.06,.21,.13,.36,.16,.15,.03,.3,0,.39-.02,.1-.03,.15-.07,.14-.08,0-.02-.24,.07-.52,.01-.28-.05-.46-.21-.48-.19Z"/></g></g><path class="cls-16" d="M129.62,76s-5.64-.1-12.59-.32c-6.95-.22-12.58-.44-12.58-.49,0-.05,5.64,.1,12.59,.32,6.95,.22,12.58,.44,12.58,.49Z"/></g><g><g><path class="cls-16" d="M76.49,136.09l2.87,6.56s-3.91,2.99-3.63,4.21l12.53-3.74-2.95-10.09-8.81,3.06Z"/><path class="cls-16" d="M79.83,142.24c0,.06,.3,.09,.58,.29,.29,.19,.43,.45,.49,.43,.06,0,0-.38-.36-.62-.36-.24-.72-.16-.71-.1Z"/><path class="cls-16" d="M79.55,144.03c.06,0,.05-.33-.2-.62-.26-.29-.58-.34-.59-.28-.02,.06,.22,.18,.43,.42,.21,.23,.31,.49,.37,.48Z"/></g><g><path class="cls-15" d="M82.45,136.12l.25,6.73s-6.76,2.52-6.83,3.77l13.07-.02,.04-10.51-6.53,.03Z"/><path class="cls-16" d="M81.12,143.36c-.01,.06,.26,.17,.48,.44,.23,.26,.28,.56,.34,.55,.06,0,.1-.36-.17-.69-.27-.33-.65-.36-.65-.3Z"/><path class="cls-16" d="M80.34,145c.06,.01,.15-.31-.02-.66-.16-.35-.46-.49-.49-.43-.04,.05,.16,.24,.29,.53,.14,.29,.16,.55,.22,.56Z"/></g><g><path class="cls-7" d="M71.28,39.06s-2.38,1.6-3.01,4.48c-.49,2.27-1.84,14.23-1.84,14.23l-2.36,4.6,1.54,3.67h0c1.32,.09,2.63-.28,3.7-1.06l1.04-.75,1.9-2.82-.97-22.34Z"/><path class="cls-6" d="M95.54,52.12l1.94-.34s-4.09-11.3-6.53-12.41c-.86-.39-1.41-.64-1.77-.8v-.03l-2.92-1.19-3.41-1.25h0l-.26-.1,.11,.1-6.84,.44-.53,.4-3.51,1.84h0s-1.56,.52-2.98,2.37c-1.42,1.85-3.49,11.27-3.49,11.27l4.59,1.89,1.14,7.61-2.91,14.54,24.99-.48-5.41-15.1,.84-7.54,6.95-1.21Z"/><g class="cls-18"><path d="M70.65,64.67c2.54,1.2,5.33,1.88,8.15,2,1,.04,2.06,0,2.9-.54,.36-.23,.66-.54,1.05-.69,.53-.21,1.13-.11,1.7-.05,1.32,.14,2.67,.06,3.97-.26,.19-.05,.4-.11,.53-.25,.14-.14,.17-.4,.02-.53-.09-.08-.22-.09-.34-.09-5.95-.3-11.89-.59-17.84-.89l-.14,1.31Z"/></g><path class="cls-16" d="M69.04,46.66s.4,2.34,.8,5.24c.39,2.9,.67,5.26,.63,5.26-.05,0-.4-2.34-.8-5.24-.39-2.9-.67-5.26-.63-5.26Z"/><path class="cls-16" d="M78.4,44.67s-.1-.08-.25-.24c-.15-.16-.37-.4-.64-.7l-.94-1.06c-.35-.4-.74-.84-1.11-1.34-.37-.5-.67-1.02-.84-1.54-.17-.52-.22-1.01-.18-1.42,.04-.41,.15-.73,.26-.93,.11-.2,.2-.3,.2-.29,.04,.01-.3,.43-.34,1.23-.02,.39,.03,.87,.21,1.36,.17,.49,.47,1,.83,1.49,.36,.49,.75,.93,1.09,1.33l.91,1.08c.26,.31,.46,.56,.6,.74,.14,.18,.21,.28,.2,.29Z"/><path class="cls-16" d="M84.38,36.65s0,.14-.04,.4c-.05,.25-.13,.62-.31,1.05-.33,.87-1.08,1.94-2.05,2.95-.97,1.02-1.86,1.92-2.5,2.58l-.77,.77c-.19,.18-.29,.27-.3,.26,0,0,.08-.12,.25-.31,.2-.22,.44-.48,.73-.8,.66-.7,1.52-1.6,2.47-2.61,.97-1.01,1.72-2.04,2.07-2.88,.36-.84,.42-1.41,.46-1.41Z"/><path class="cls-7" d="M88.41,53.36l.79,4.43-10.55,1.55,.61,4.85s13.03,.71,14.46,.4c1.82-.4,3.21-2.58,3.16-5.77-.02-1.26-.6-3.78-1.35-6.71l-7.13,1.24Z"/><path class="cls-16" d="M89.68,38.92s-.23,.02-.62,.15c-.39,.12-.93,.39-1.44,.92-.51,.52-.94,1.31-1.1,2.26-.09,.47-.11,.98-.07,1.51,.03,.53,.14,1.06,.26,1.61,.49,2.19,.92,4.18,1.25,5.64,.15,.72,.27,1.31,.34,1.72,.04,.2,.06,.36,.07,.47,.01,.11,.02,.17,.01,.17-.01,0-.06-.22-.15-.62-.1-.43-.23-1-.39-1.71-.33-1.44-.82-3.43-1.3-5.63-.12-.55-.23-1.1-.26-1.64-.03-.54,0-1.06,.09-1.55,.17-.98,.63-1.8,1.17-2.32,.53-.53,1.11-.79,1.51-.9,.2-.05,.36-.07,.47-.08,.11,0,.17,0,.17,0Z"/></g><path class="cls-16" d="M93.16,75.98s-5.61,.18-12.53,.29c-6.92,.11-12.53,.17-12.53,.12,0-.05,5.61-.18,12.53-.29,6.92-.11,12.53-.17,12.53-.12Z"/><g><g><path class="cls-6" d="M69.8,73.98l-5.57,29.4c-.63,3.35-.28,6.8,1.02,9.95l11.81,28.61,9.31-5.94-9.55-28.3,6.05-25.05-1.98-10.51-11.1,1.84Z"/><path class="cls-6" d="M74.36,81.43l4.26,33.8,.73,27.41,10.6,.16s-.38-27.77-.38-29.44v-27.38s1.52-2.13,2.13-3.35c.61-1.22,0-7.3,0-7.3,0,0-2.26-4.63-10.8-3.21-8.54,1.42-6.54,9.29-6.54,9.29Z"/><path class="cls-16" d="M79.35,142.65s0-.06-.01-.17l-.02-.5c-.02-.45-.04-1.09-.08-1.92-.06-1.67-.15-4.08-.25-7.05-.1-2.98-.22-6.52-.35-10.46-.07-1.97-.14-4.03-.24-6.17-.11-2.14-.23-4.36-.5-6.61-.13-1.13-.3-2.24-.48-3.33-.19-1.09-.38-2.17-.56-3.22-.35-2.12-.64-4.17-.89-6.12-.5-3.91-.85-7.44-1.18-10.4-.32-2.96-.61-5.36-.83-7.01-.11-.82-.2-1.46-.25-1.9l-.06-.49c-.01-.11-.02-.17-.02-.17,0,0,.01,.06,.03,.17l.08,.49c.07,.43,.17,1.07,.29,1.9,.24,1.65,.55,4.04,.88,7,.34,2.96,.71,6.49,1.21,10.4,.25,1.95,.54,4,.9,6.11,.19,1.06,.37,2.13,.57,3.22,.18,1.09,.35,2.21,.48,3.34,.27,2.26,.39,4.48,.49,6.62,.1,2.14,.17,4.21,.23,6.18,.12,3.94,.22,7.48,.31,10.46,.08,2.97,.15,5.38,.2,7.05,.02,.83,.04,1.47,.05,1.92v.5c0,.11,0,.17,0,.17Z"/><path class="cls-16" d="M82.68,142.65s-.83-14.04-1.75-31.37c-.92-17.33-1.62-31.38-1.58-31.38,.05,0,.83,14.04,1.75,31.37,.92,17.32,1.62,31.37,1.58,31.38Z"/><path class="cls-16" d="M86.32,77.68s-.06,.11-.22,.28c-.15,.17-.4,.4-.73,.63-.66,.47-1.77,.94-3.04,.88-1.27-.06-2.33-.64-2.94-1.18-.31-.27-.53-.52-.67-.7-.14-.18-.2-.3-.19-.3,.03-.02,.3,.41,.93,.91,.62,.5,1.65,1.04,2.87,1.1,1.23,.06,2.3-.37,2.97-.81,.68-.44,.99-.84,1.02-.81Z"/><path class="cls-16" d="M79.28,140.31s-.03-.05-.08-.15l-.21-.46c-.18-.41-.44-1.01-.78-1.78-.67-1.55-1.63-3.79-2.82-6.55-1.18-2.77-2.58-6.07-4.14-9.74-1.54-3.67-3.26-7.7-4.93-11.99l-.3-.81c-.08-.28-.16-.57-.18-.85-.07-.57-.07-1.14-.05-1.7,.04-1.12,.17-2.22,.31-3.3,.3-2.15,.69-4.21,1.09-6.16,.81-3.9,1.67-7.39,2.42-10.3,.75-2.92,1.4-5.27,1.85-6.89l.54-1.86,.15-.48c.03-.11,.06-.16,.06-.16,0,0-.01,.06-.04,.17l-.13,.49c-.12,.44-.29,1.06-.51,1.87-.44,1.63-1.07,3.98-1.8,6.9-.73,2.92-1.58,6.41-2.38,10.31-.4,1.95-.78,4.01-1.08,6.15-.14,1.07-.26,2.17-.31,3.28-.01,.56-.02,1.12,.05,1.67,.02,.28,.1,.55,.17,.82l.3,.8c1.67,4.28,3.38,8.31,4.92,11.98,1.54,3.67,2.94,6.97,4.11,9.75,1.17,2.77,2.12,5.01,2.77,6.57,.32,.77,.57,1.37,.75,1.79l.19,.47c.04,.11,.06,.16,.06,.16Z"/><path class="cls-16" d="M76.83,107.7c-.05,.06-.66-.68-1.36-1.61-.7-.93-1.23-1.71-1.2-1.74,.04-.03,.63,.71,1.33,1.64,.35,.46,.66,.89,.88,1.2,.22,.31,.35,.51,.34,.51Z"/><g class="cls-18"><polygon points="73.91 79.14 75.44 105.4 76.83 107.7 77.33 105.62 73.91 79.14"/></g></g><g class="cls-18"><polygon points="69.34 76.42 69.13 77.53 91.87 77.53 91.76 76 69.34 76.42"/></g></g><g><g><polygon class="cls-16" points="53 57.79 68.24 63.43 81.09 65.4 65.81 57.95 53 57.79"/><g><path class="cls-9" d="M59.52,63.88c-.12-.81-.4-1.6-.81-2.31-.08-.14-.17-.28-.21-.43s-.02-.34,.09-.45c.2-.21,.55-.12,.79,.04,.5,.33,.83,.87,1.03,1.44s.27,1.17,.34,1.76"/><g><path class="cls-9" d="M65.46,62.42h-.76c-.15-.16-.38-.3-.66-.38-.17-.05-.35,.04-.5,.2,.34-.56,.7-1.17,.77-1.34,.14-.33-.16-.57-.65-.57s-2.65,3.06-2.65,3.06c0,0,1.34-2.46,1.47-2.83,.32-.94-.7-1.01-1.07-.56-.46,.56-2.33,3.39-2.33,3.39,0,0-.35,.57-.11,1.12,.25,.55,.95,.33,.95,.33,0,0,0,.48,.5,.76,.55,.3,1.27-.05,1.27-.05l2.79,.63s.44-.04,1.01-.1c1.41-.14,2.55-1.22,2.76-2.63h0l-2.78-1.01Z"/><path class="cls-3" d="M63.58,62.2s-.34,.6-.82,1.3c-.24,.35-.46,.66-.63,.89-.17,.22-.27,.36-.28,.35,0,0,.08-.15,.23-.39,.15-.23,.37-.55,.61-.9,.24-.35,.46-.66,.62-.89l.19-.27c.05-.06,.07-.09,.08-.09Z"/><path class="cls-3" d="M63.41,65.31s.08-.18,.25-.46c.16-.27,.4-.65,.66-1.06,.13-.21,.25-.4,.35-.59,.11-.18,.1-.37,.06-.52-.08-.3-.25-.43-.24-.44,0,0,.05,.02,.11,.09,.06,.07,.14,.18,.19,.34,.05,.15,.06,.38-.05,.57-.1,.19-.22,.39-.35,.6-.26,.42-.5,.78-.68,1.05-.18,.27-.29,.43-.3,.42Z"/><path class="cls-3" d="M64.88,65.58s.04-.17,.15-.43l.2-.45c.07-.17,.16-.36,.2-.56,.05-.2,.02-.41-.09-.54-.05-.07-.13-.11-.2-.14-.07-.03-.14-.06-.21-.06-.13,0-.23,.08-.3,.1-.07,.04-.11,.05-.11,.05,0,0,.03-.03,.1-.08,.03-.02,.07-.05,.13-.08,.05-.02,.11-.06,.19-.06,.08,0,.16,.02,.24,.05,.08,.03,.17,.08,.23,.16,.13,.16,.16,.4,.11,.61-.05,.22-.14,.41-.22,.58-.08,.17-.15,.32-.22,.45-.13,.25-.19,.41-.2,.41Z"/><path class="cls-3" d="M65.39,62.95s.04,0,.12,.04c.07,.03,.18,.09,.29,.17,.23,.17,.5,.49,.6,.93,.1,.44-.01,.84-.15,1.09-.07,.13-.14,.22-.19,.28-.05,.06-.09,.09-.09,.08-.01-.01,.11-.14,.23-.39,.12-.25,.21-.64,.12-1.05-.09-.41-.34-.72-.55-.9-.21-.18-.38-.24-.37-.26Z"/></g><path class="cls-3" d="M60.48,61.34s-.26,.47-.63,1.01c-.37,.54-.68,.97-.7,.96-.02-.01,.26-.47,.63-1.01,.37-.54,.68-.97,.7-.96Z"/></g></g><g><path class="cls-9" d="M78.66,59.55l-1.74-.4-1.67-1.58c-.2-.19-.47-.31-.75-.32l-3.05-.18c-.3-.02-.6,.08-.83,.28l-2.18,1.84,9.5,4.63,1.3,.12-.58-4.39Z"/><path class="cls-3" d="M73.4,58.73s-.23-.03-.59-.07c-.36-.04-.88-.09-1.38,.14-.25,.11-.46,.27-.66,.41-.19,.14-.37,.28-.52,.38-.15,.1-.28,.18-.38,.22-.09,.04-.15,.06-.15,.05,0-.01,.2-.11,.49-.32,.15-.11,.31-.25,.5-.39,.19-.15,.41-.31,.67-.43,.26-.12,.53-.17,.78-.17,.25,0,.46,.02,.65,.05,.18,.03,.33,.06,.43,.09,.1,.02,.15,.04,.15,.05Z"/><path class="cls-3" d="M74.03,60.43s-.12-.04-.33-.06c-.2-.02-.49,0-.78,.11-.29,.11-.54,.26-.72,.37-.18,.11-.29,.18-.3,.17,0,0,.09-.09,.26-.22,.17-.12,.42-.29,.72-.4,.31-.11,.61-.13,.82-.09,.21,.04,.32,.12,.32,.12Z"/><path class="cls-3" d="M77.95,60.71s-.27-.35-.59-.78c-.32-.43-.6-.77-.58-.79,.02-.02,.33,.3,.65,.74,.33,.44,.54,.82,.52,.84Z"/></g><path class="cls-10" d="M73.15,57.26l3.86-3.6c.17-.16,.15-.42-.03-.56h0c-.14-.11-.34-.1-.47,.02l-4.53,4.06"/><g class="cls-18"><path d="M73.15,57.26l3.86-3.6c.17-.16,.15-.42-.03-.56h0c-.14-.11-.34-.1-.47,.02l-4.53,4.06"/></g></g><g><path class="cls-16" d="M72.43,22.99c-.35-1.42,.04-3,1.01-4.09,.73-.82,1.75-1.35,2.8-1.67,1.42-.42,2.99-.48,4.35,.1s2.47,1.85,2.62,3.32c.07,.67-.05,1.36,.16,2,.09,.28,.25,.56,.17,.84-.07,.26-.34,.43-.6,.46-.27,.03-.53-.05-.78-.16-.84-.36-1.53-.98-2.21-1.59"/><g><path class="cls-9" d="M72.4,23.71c.14-2.08,1.52-4.64,3.6-4.41l6.48,1.65c.63,.07,1.1,.61,1.09,1.24l-.73,15.63s-.02,0,0,0l-4.24,5.03s-2.71-3.15-2.88-4.11h0c-.02-.13-.05-.21-.05-.32-.14-1.1-.03-2.15-.03-2.15h0c-.01-1.26-.01-1.78-.01-1.77,0,0-2.66-.45-3.2-3.92-.27-1.73-.18-4.56-.03-6.87Z"/><g><g><g><g><path class="cls-16" d="M73.43,26.22c0,.24,.18,.44,.43,.45,.24,.01,.45-.17,.46-.4,0-.24-.18-.44-.43-.45-.25-.01-.45,.17-.46,.4Z"/><path class="cls-16" d="M73.01,25.18c.06,.06,.39-.19,.87-.19,.48,0,.83,.24,.88,.18,.03-.03-.03-.13-.18-.24-.15-.11-.41-.22-.71-.22-.3,0-.55,.11-.69,.22-.15,.11-.2,.22-.17,.24Z"/></g><g><path class="cls-16" d="M78.14,26.22c0,.24,.18,.44,.43,.45,.24,.01,.45-.17,.46-.4,0-.24-.18-.44-.43-.45-.25-.01-.45,.17-.46,.4Z"/><path class="cls-16" d="M77.73,25.28c.06,.06,.39-.19,.87-.19,.48,0,.83,.24,.88,.18,.03-.03-.03-.13-.18-.24-.15-.11-.41-.22-.71-.22-.3,0-.55,.11-.69,.22-.15,.11-.2,.22-.17,.24Z"/></g><path class="cls-16" d="M75.98,28.83s-.3-.08-.78-.14c-.12-.01-.24-.04-.26-.12-.03-.09,.02-.22,.08-.36,.12-.3,.24-.61,.36-.93,.51-1.33,.87-2.42,.82-2.44-.05-.02-.51,1.04-1.01,2.36-.12,.33-.24,.64-.35,.94-.05,.14-.13,.3-.06,.48,.03,.09,.12,.16,.2,.18,.08,.02,.15,.03,.21,.03,.49,.03,.79,.03,.79,0Z"/><path class="cls-3" d="M75.63,34.5s2.34,.16,4.65-1.23c0,0-1.17,2.4-4.65,2.07v-.84Z"/><path class="cls-3" d="M76.18,29.99c.17-.23,.48-.35,.77-.32,.21,.02,.42,.12,.54,.29,.13,.17,.15,.41,.04,.57-.13,.18-.4,.22-.63,.16-.23-.07-.43-.22-.61-.37-.05-.04-.1-.09-.14-.14-.03-.06-.04-.13,0-.18"/><path class="cls-16" d="M77.39,29.17c-.08,0-.08,.52-.53,.88-.45,.37-1,.31-1,.38,0,.03,.12,.1,.36,.11,.23,0,.57-.06,.84-.29,.27-.23,.39-.53,.41-.74,.02-.22-.04-.35-.07-.34Z"/></g><path class="cls-16" d="M77.51,24.44c.05,.13,.53,.07,1.09,.14,.56,.06,1.02,.22,1.09,.11,.03-.06-.05-.18-.23-.31-.18-.13-.47-.25-.81-.29-.34-.04-.65,.02-.85,.1-.21,.08-.31,.18-.29,.25Z"/><path class="cls-16" d="M73.19,23.79c.08,.11,.41,0,.81,0,.4-.02,.73,.07,.81-.04,.03-.06-.02-.16-.17-.27-.14-.1-.39-.19-.66-.18-.27,0-.51,.11-.65,.22-.14,.11-.19,.22-.15,.28Z"/></g><path class="cls-16" d="M86.57,30.24c-.9,.37-1.7-2.4-2.53-2.92-.83-.52-1.66,1.24-1.72,.27-.06-.86,.23-1.8-.21-2.53-.59-.97-2.12-1.01-2.71-1.98-.34-.56-.28-1.31-.65-1.86-.35-.51-1-.72-1.62-.82-.61-.1-1.26-.12-1.81-.4-.55-.28-.99-.93-.78-1.51,2.6-.19,5.23-.07,7.8,.36,.6,.1,1.23,.24,1.65,.67,.45,.46,.56,1.14,.66,1.77,.45,3.09,1.47,5.87,1.93,8.96"/></g></g><path class="cls-17" d="M72.35,24.17c.17-2.04,1.4-4.61,3.25-5.49,1.85-.87,4.03-.97,5.72,.19,1.82,1.26,2.31,3.36,2.54,5.57,.23,2.2-.12,2.99-.63,5.15l-.22,4.74c1.27,1.45,2.94-.19,3.18-.3s1.14-1.64,1.27-1.88c1.33-2.48-.72-2.84-.37-4.24,.35-1.39,.3-2.9-.26-4.23-.26-.63-.63-1.2-.85-1.85-.23-.7-.27-1.46-.56-2.15-.33-.77-.96-1.37-1.68-1.79-.72-.42-1.53-.66-2.34-.84-1.88-.42-3.12-1.14-4.93-.48-1.81,.66-3.07,1.61-3.91,3.97-.32,.91-.41,2.68-.22,3.63"/><path class="cls-16" d="M73.07,20.12s.03-.07,.11-.19c.08-.12,.21-.3,.39-.51,.36-.42,.97-1,1.87-1.45,.89-.45,2.11-.76,3.45-.57,1.32,.18,2.73,.85,3.75,2.03,1.02,1.18,1.47,2.64,1.69,3.94,.21,1.31,.24,2.51,.13,3.51-.11,1-.37,1.78-.6,2.29-.12,.26-.22,.45-.3,.57-.08,.12-.12,.19-.13,.19-.02,0,.15-.27,.37-.78,.21-.51,.45-1.29,.54-2.28,.09-.99,.06-2.18-.16-3.47-.23-1.28-.68-2.71-1.67-3.85-.99-1.14-2.36-1.8-3.64-1.98-1.29-.2-2.49,.1-3.37,.52-.89,.43-1.5,.98-1.87,1.38-.37,.41-.54,.67-.55,.66Z"/><path class="cls-16" d="M86.5,33.48s-.12,.18-.41,.34c-.29,.16-.75,.31-1.26,.26-.52-.05-.94-.28-1.19-.5-.25-.22-.36-.4-.34-.41,.02-.02,.15,.14,.41,.32,.26,.18,.66,.38,1.13,.43,.48,.05,.91-.07,1.19-.2,.29-.13,.45-.25,.47-.23Z"/><path class="cls-16" d="M85.06,31.57s-.34-.3-.76-.64c-.42-.35-.81-.57-.79-.62,.02-.04,.45,.12,.89,.48,.44,.36,.69,.75,.66,.78Z"/><path class="cls-16" d="M85.34,28.95s-.02-.44-.34-.83c-.31-.4-.75-.46-.74-.51,0-.02,.11-.04,.29,0,.17,.05,.4,.18,.58,.39,.18,.22,.25,.47,.26,.65,0,.18-.03,.29-.05,.29Z"/><path class="cls-16" d="M85.26,27.6s-.17-.15-.36-.29c-.2-.15-.39-.21-.39-.26,0-.05,.25-.05,.49,.12,.24,.17,.31,.41,.26,.43Z"/><path class="cls-16" d="M83.25,19.02s-.12,.13-.28,.25c-.16,.12-.28,.23-.32,.2-.04-.03,.04-.2,.22-.33,.18-.14,.37-.16,.38-.12Z"/><path class="cls-16" d="M82.75,18.87s-.03,.14-.14,.24c-.11,.1-.23,.15-.26,.11-.03-.04,.03-.14,.14-.24,.11-.1,.23-.15,.26-.11Z"/><g><path class="cls-9" d="M82.57,28c0-.26,.3-.87,.56-.91,.68-.1,1.91-.05,1.92,1.68,.01,2.37-2.37,1.89-2.37,1.82,0-.05-.11-1.71-.1-2.6Z"/><path class="cls-3" d="M83.39,29.7s.04,.03,.11,.06c.07,.03,.19,.05,.31,0,.25-.09,.46-.49,.47-.92,0-.22-.04-.42-.12-.59-.07-.17-.19-.29-.31-.32-.13-.03-.21,.05-.24,.11-.03,.07-.02,.11-.03,.12,0,0-.05-.04-.03-.14,0-.05,.04-.1,.09-.15,.06-.05,.14-.07,.23-.06,.18,.01,.35,.18,.43,.37,.09,.19,.15,.42,.15,.66-.01,.48-.26,.92-.6,1.03-.17,.04-.31,0-.38-.06-.07-.06-.09-.11-.08-.12Z"/></g></g></g><g><g><path class="cls-16" d="M37.44,16.85c.24-1.15,1.06-1.75,2.15-2.19s2.38-.3,3.35,.36c.65,.44,1.17,1.1,1.93,1.32,1.24,.36,2.61-.63,3.81-.15,.71,.29,1.16,1.1,1.01,1.85-.14,.75-.86,1.35-1.62,1.35,.81,.25,1.12,1.36,.69,2.1-.42,.73-1.36,1.05-2.2,.94-.84-.11-1.59-.57-2.25-1.1-.66-.53-1.26-1.14-1.96-1.61-.7-.48-1.53-.82-2.38-.73-1.14,.12-2.07,1.04-2.52,2.09-.45,1.05-.51,2.23-.51,3.37,0,1.15,.04,2.31-.24,3.42-.03,.13-.09,.28-.21,.32-.18,.07-.35-.12-.45-.29-1.15-1.87-1.92-3.97-2.26-6.13-.2-1.26-.23-2.46,.41-3.56,.64-1.1,2.35-1.98,3.25-1.36"/><g><g><path class="cls-12" d="M35.73,24.36c-.06-.02-2.31-.62-2.18,1.67,.14,2.28,2.4,1.67,2.4,1.61,0-.07-.22-3.28-.22-3.28Z"/><path class="cls-11" d="M35.21,26.81s-.04,.03-.1,.07c-.06,.03-.18,.06-.3,.02-.25-.07-.47-.44-.51-.86-.02-.21,.01-.41,.08-.58,.06-.17,.16-.29,.28-.32,.12-.04,.21,.03,.24,.09,.03,.06,.02,.11,.03,.11,0,0,.05-.04,.02-.13-.01-.04-.04-.1-.1-.14-.06-.04-.14-.06-.22-.04-.18,.02-.32,.19-.39,.38-.08,.19-.12,.41-.1,.64,.04,.46,.3,.88,.64,.95,.16,.03,.29-.02,.36-.08,.07-.06,.08-.11,.07-.12Z"/></g><g><g><path class="cls-12" d="M40.97,16.38c3.43-.24,6.4,2.38,6.58,5.81,.15,2.86,.28,5.95,.25,7.51-.07,3.34-3.42,3.84-3.42,3.84,0,0,.07,.99,.16,2.22,.17,2.48-1.75,4.6-4.23,4.7h0c-2.43,.09-4.48-1.81-4.57-4.24l-.5-13.47c-.12-3.32,2.41-6.14,5.72-6.37h0Z"/><path class="cls-11" d="M44.38,33.54s-2.05,.11-4.29-1.32c0,0,1.01,2.43,4.35,2.16l-.06-.84Z"/></g><g><g><g><path class="cls-16" d="M46.42,24.55c0,.25-.2,.47-.46,.48-.26,.01-.48-.18-.49-.43,0-.25,.2-.47,.46-.48,.26-.01,.48,.18,.49,.43Z"/><path class="cls-16" d="M46.73,23.38c-.06,.06-.42-.21-.93-.21-.51-.01-.89,.25-.95,.19-.03-.03,.03-.14,.2-.26,.16-.12,.44-.23,.76-.23,.32,0,.59,.12,.74,.25,.16,.12,.21,.24,.18,.26Z"/></g><g><path class="cls-16" d="M41.46,24.48c0,.25-.2,.47-.46,.48-.26,.01-.48-.18-.49-.43,0-.25,.2-.47,.46-.48,.26-.01,.48,.18,.49,.43Z"/><path class="cls-16" d="M41.68,23.44c-.06,.06-.42-.21-.93-.21-.51-.01-.89,.25-.95,.19-.03-.03,.03-.14,.2-.26,.16-.12,.44-.23,.76-.23,.32,0,.59,.12,.74,.25,.16,.12,.21,.24,.18,.26Z"/></g><path class="cls-16" d="M43.51,27.26s.32-.08,.84-.14c.13-.01,.26-.04,.28-.13,.03-.09-.02-.24-.08-.39-.12-.32-.25-.65-.38-1-.53-1.43-.91-2.6-.85-2.62,.06-.02,.53,1.12,1.06,2.54,.13,.35,.25,.69,.36,1.01,.05,.15,.13,.32,.06,.52-.04,.1-.13,.17-.22,.19-.08,.03-.16,.03-.22,.03-.52,.02-.84,.02-.85,0Z"/><path class="cls-16" d="M42,27.61c.08,0,.08,.55,.55,.95,.47,.4,1.07,.34,1.07,.42,0,.04-.13,.11-.38,.11-.25,0-.6-.08-.89-.32-.29-.24-.41-.57-.43-.8-.02-.23,.04-.37,.08-.37Z"/></g><path class="cls-16" d="M41.77,21.77c-.05,.14-.56,.07-1.17,.14-.6,.06-1.09,.23-1.17,.1-.04-.06,.05-.19,.25-.32,.2-.13,.51-.26,.87-.3,.36-.04,.69,.02,.91,.11,.22,.09,.33,.2,.31,.27Z"/><path class="cls-16" d="M46.65,21.85c-.09,.12-.44,0-.87-.02-.43-.02-.79,.07-.87-.05-.04-.06,.02-.18,.18-.29,.16-.11,.42-.2,.71-.19,.29,.01,.54,.12,.69,.24,.15,.12,.2,.24,.16,.3Z"/></g></g></g><path class="cls-16" d="M48.13,20.66c-.65,.94-3.22,.56-4.51-.41-.9-.68-1.69-1.19-2.79-1.46-.74-.18-1.53,.02-2.17,.43-.64,.4-1.14,1-1.57,1.62,.79,1.75,.45,3.78,.09,5.66-.04,.21-.09,.43-.25,.57-.27,.24-.71,.09-.97-.16-.42-.39-.61-.97-.75-1.53-.31-1.28-.42-2.61-.21-3.91,.21-1.3,.76-2.55,1.65-3.51,1.12-1.2,2.74-1.89,4.38-1.96,1.64-.07,3.28,.45,4.65,1.36,.63,.42,1.23,.94,1.58,1.62"/></g><g><g><g><path class="cls-2" d="M34.86,135.87l.16,6.73s-6.79,2.42-6.88,3.66l13.06,.17,.19-10.5-6.52-.07Z"/><g class="cls-19"><path class="cls-5" d="M39.06,142.08c.25,.07,.42,.36,.36,.61-.06,.25-.35,.43-.6,.36-.25-.07-.47-.41-.38-.65,.09-.25,.44-.43,.67-.31"/></g><g class="cls-19"><path class="cls-5" d="M41.2,146.43l-.02-1.06-12.51,.24s-.58,.25-.52,.66l13.06,.17Z"/></g><path class="cls-16" d="M34.81,142.53c0,.06,.32,.1,.63,.31,.32,.2,.47,.48,.53,.45,.06-.01-.03-.39-.41-.64-.38-.25-.77-.18-.75-.12Z"/><path class="cls-16" d="M33.43,143.08c-.02,.06,.26,.17,.47,.45,.22,.27,.27,.56,.34,.56,.06,.01,.11-.36-.16-.7-.27-.34-.64-.37-.65-.31Z"/><path class="cls-16" d="M32.63,144.71c.06,.01,.15-.3,0-.65-.16-.35-.46-.49-.48-.44-.04,.05,.15,.24,.28,.53,.13,.29,.15,.56,.21,.56Z"/><path class="cls-16" d="M34.94,140.99c.03,.06,.32-.03,.68,0,.36,.02,.64,.15,.67,.09,.04-.05-.23-.29-.66-.31-.42-.03-.73,.17-.7,.22Z"/></g><path class="cls-16" d="M34.94,139.63s.25,.07,.65,0c.2-.03,.44-.09,.69-.2,.12-.05,.25-.12,.38-.19,.06-.04,.13-.08,.2-.15,.07-.07,.11-.23,.03-.34-.07-.1-.18-.15-.28-.15-.1,0-.17,.01-.25,.03-.15,.03-.28,.08-.41,.13-.25,.11-.46,.25-.61,.39-.31,.28-.41,.51-.39,.53,.03,.02,.18-.18,.49-.4,.16-.11,.35-.23,.59-.32,.12-.05,.24-.08,.38-.11,.14-.03,.26-.03,.29,.03,.01,.02,.01,.03-.02,.07-.03,.04-.09,.07-.15,.11-.12,.07-.23,.14-.35,.19-.23,.11-.45,.18-.64,.23-.38,.1-.62,.11-.62,.15Z"/><path class="cls-16" d="M35.02,139.73s.15-.22,.18-.63c.01-.2,0-.45-.08-.72-.04-.13-.09-.27-.16-.4-.07-.13-.17-.3-.41-.34-.13,0-.24,.09-.28,.18-.04,.09-.05,.16-.07,.24-.03,.15-.03,.3,0,.44,.04,.28,.15,.51,.27,.68,.25,.34,.52,.42,.52,.4,.02-.03-.2-.16-.39-.49-.09-.16-.18-.37-.2-.62-.01-.12,0-.25,.02-.38,.02-.14,.08-.25,.13-.23,.06,0,.17,.11,.23,.22,.07,.12,.12,.24,.16,.36,.08,.24,.11,.46,.12,.65,.01,.38-.06,.62-.02,.63Z"/></g><g><g><path class="cls-2" d="M58.62,136.13l-.25,6.73s6.75,2.52,6.83,3.76l-13.06-.02-.04-10.5,6.52,.03Z"/><g class="cls-19"><path class="cls-5" d="M54.33,142.29c-.25,.07-.43,.35-.37,.61s.35,.44,.6,.37c.25-.06,.47-.4,.39-.65-.09-.25-.44-.44-.67-.32"/></g><g class="cls-19"><path class="cls-5" d="M52.14,146.6l.04-1.06,12.51,.42s.58,.25,.51,.66l-13.06-.02Z"/></g><path class="cls-16" d="M58.58,142.8c0,.06-.32,.09-.64,.3-.32,.2-.48,.47-.54,.45-.06-.01,.04-.39,.42-.63,.38-.24,.77-.17,.75-.11Z"/><path class="cls-16" d="M59.95,143.36c.01,.06-.26,.17-.48,.44-.22,.26-.28,.55-.34,.55-.06,0-.1-.36,.17-.69,.27-.33,.65-.36,.65-.3Z"/><path class="cls-16" d="M60.73,145c-.06,.01-.15-.31,.02-.65,.16-.35,.46-.49,.49-.43,.04,.05-.16,.24-.29,.53-.14,.29-.16,.55-.22,.56Z"/><path class="cls-16" d="M58.47,141.26c-.03,.06-.32-.03-.68,0-.36,.02-.64,.14-.67,.08-.04-.05,.24-.28,.66-.3,.42-.03,.72,.18,.69,.23Z"/></g><path class="cls-16" d="M58.5,139.9s-.25,.07-.65,0c-.2-.04-.44-.1-.68-.21-.12-.06-.25-.12-.38-.2-.06-.04-.13-.08-.2-.15-.07-.07-.11-.24-.03-.34,.07-.1,.19-.14,.28-.15,.1,0,.17,.02,.25,.03,.15,.04,.28,.08,.41,.14,.25,.11,.45,.26,.6,.4,.3,.28,.41,.52,.38,.53-.03,.02-.18-.18-.48-.41-.15-.12-.35-.24-.58-.33-.12-.05-.24-.09-.38-.12-.14-.04-.26-.04-.29,.02-.01,.02-.01,.03,.01,.07,.03,.04,.09,.07,.15,.11,.12,.08,.23,.14,.35,.2,.23,.11,.45,.19,.63,.24,.37,.11,.62,.12,.62,.16Z"/><path class="cls-16" d="M58.41,139.99s-.15-.22-.17-.63c-.01-.2,.01-.45,.09-.72,.04-.13,.1-.27,.17-.4,.08-.13,.17-.3,.42-.33,.13,0,.24,.1,.27,.18,.04,.09,.05,.16,.07,.24,.02,.15,.02,.3,0,.44-.04,.28-.16,.51-.28,.68-.26,.34-.52,.41-.53,.39-.02-.03,.2-.15,.4-.48,.1-.16,.18-.37,.21-.61,.01-.12,.01-.25-.01-.38-.02-.14-.07-.25-.12-.24-.06,0-.18,.1-.23,.21-.07,.12-.12,.24-.16,.35-.08,.24-.12,.46-.13,.65-.02,.38,.05,.62,.01,.63Z"/></g><polygon class="cls-16" points="50.91 71.21 60.79 142.13 51.2 141.94 40.59 82.52 42.93 142.22 32.42 141.58 28.73 70.78 50.91 71.21"/></g><g><path class="cls-14" d="M35.81,38.37l-.13-3.97s.79,3.63,4.92,3.58c3.94-.05,3.87-3.2,3.87-3.2l.14,1.6v6.46l-2.57,10.53-3.29,.42-3.63-14.4,.69-1.03Z"/><path class="cls-16" d="M44.1,37.1s-.01,.03-.05,.08c-.04,.05-.08,.14-.16,.23-.14,.2-.38,.46-.73,.71-.35,.26-.82,.49-1.37,.64-.55,.15-1.19,.21-1.85,.13-.66-.09-1.26-.29-1.78-.54-.52-.24-.95-.53-1.3-.78-.35-.26-.61-.49-.79-.65-.09-.08-.15-.15-.2-.19-.04-.05-.07-.07-.07-.07s.03,.02,.08,.06l.21,.18c.18,.16,.45,.38,.8,.63,.35,.25,.78,.52,1.3,.76,.51,.24,1.11,.44,1.76,.52,.65,.08,1.28,.02,1.82-.12,.55-.15,1.01-.37,1.36-.62,.35-.25,.59-.5,.74-.68,.15-.19,.22-.3,.23-.29Z"/></g><g><path class="cls-7" d="M41.46,91.49l.06-17.02-.07-22.23-5.59-13.66-.18-4.11-3.24,2.45s-4.72,16.23-4.79,15.67c-.07-.56,1.14,14.42,1.14,14.42l-1.86,25.25,14.53-.76Z"/><path class="cls-7" d="M45.91,36.21c-.95-1.66-1.44-1.49-1.44-1.49l.05,.59v1.24l-.45,5.34-3.02,10.01,.47,22.16,1.13,17.52,13.99-1.14-4.88-24.13,1.74-16.67-.12-9.18-7.47-4.25Z"/><path class="cls-16" d="M37.95,72.82s-.06,.13-.2,.34c-.14,.21-.37,.5-.69,.83-.63,.66-1.67,1.43-3.01,1.86-1.34,.42-2.64,.39-3.53,.22-.45-.08-.8-.19-1.04-.28-.24-.09-.36-.15-.36-.16,.01-.03,.53,.19,1.42,.32,.88,.14,2.15,.16,3.46-.26,1.31-.41,2.34-1.16,2.98-1.78,.65-.62,.95-1.1,.98-1.08Z"/><path class="cls-1" d="M35.08,76.02c-.04-.22-.09-.45-.17-.66l1.47-.86s-1.2-.88-2.86-.79c-.94,.05-1.88,.55-2.52,.97-.18,.08-.35,.19-.48,.33-.05,.03-.09,.05-.13,.09-.07,.06-.13,.12-.19,.18h0c-.3,.36-.43,.84-.51,1.3-.17,.99-.19,2-.06,3,.05,.38,.2,.83,.57,.9,.22,.04,.44-.08,.58-.27,0,.43,.05,.86,.13,1.28,.06,.32,.22,.71,.54,.72,.34,.01,.52-.4,.58-.74,.13-.72,.16-1.45,.09-2.18,.18,.37,.11,.81,.17,1.21s.38,.86,.78,.78c.4-.08,.52-.58,.56-.98,.11-1.06,.21-2.11,.32-3.17,.22,.35,.21,.8,.37,1.18,.16,.38,.68,.69,.98,.4,.2-.19,.17-.5,.12-.77-.11-.65-.23-1.29-.35-1.94Z"/><path class="cls-16" d="M36.03,84.71s-.1,.13-.31,.33c-.21,.2-.53,.47-.97,.75-.44,.27-1.01,.55-1.69,.68-.68,.12-1.48,.08-2.21-.28-.74-.35-1.23-1.01-1.49-1.65-.27-.64-.34-1.27-.37-1.78-.02-.52,0-.93,.02-1.22,.02-.29,.04-.45,.05-.44,.03,0-.01,.64,.05,1.66,.04,.51,.12,1.11,.39,1.73,.26,.61,.72,1.23,1.42,1.56,.69,.33,1.45,.38,2.11,.27,.66-.11,1.22-.37,1.65-.63,.87-.53,1.31-1,1.34-.97Z"/><path class="cls-16" d="M51.8,73.02s-.07,.07-.21,.16c-.14,.09-.36,.21-.63,.33-.55,.25-1.37,.48-2.3,.5-.93,.02-1.76-.18-2.32-.4-.28-.11-.5-.22-.65-.31-.15-.09-.22-.14-.22-.15,.01-.03,.34,.15,.9,.34,.56,.19,1.37,.36,2.27,.35,.9-.02,1.71-.23,2.26-.44,.55-.21,.87-.4,.89-.38Z"/><path class="cls-16" d="M41.51,75.48s-.01-.08-.02-.24l-.02-.7c0-.63-.02-1.5-.03-2.57-.03-2.18-.08-5.17-.13-8.47-.06-3.3-.11-6.29-.14-8.47-.01-1.07-.02-1.94-.03-2.57v-.7c0-.16,0-.24,.01-.24,0,0,.01,.08,.02,.24l.03,.7c.02,.62,.05,1.5,.09,2.57,.06,2.17,.14,5.16,.19,8.47,.06,3.31,.09,6.3,.08,8.47,0,1.08,0,1.96-.02,2.57l-.02,.7c0,.16-.01,.24-.02,.24Z"/><polygon class="cls-13" points="32.49 39.59 33.15 40.09 32.69 43.11 40.45 51.24 33.4 41.99 34 39.59 32.49 39.59"/><path class="cls-7" d="M41.53,61.37l-11.91-3.49-.39-9.05,3.27-11.92s-7.79,3.88-8.32,6.36c-.53,2.47-1.81,8.48-1.94,12.82-.12,3.88-.14,6.48,.75,7.72,1.49,2.08,7.87,3.43,14.24,3.12,4.48-.22,8.96-1.4,11.72-3.13"/><path class="cls-16" d="M40.6,51.44s-.01-.01-.04-.04l-.11-.13-.4-.52c-.35-.46-.85-1.11-1.48-1.92-1.24-1.63-2.95-3.86-4.84-6.34l-.36-.48v-.04c.2-.83,.4-1.63,.59-2.4l.04,.05c-.52,0-1.02,0-1.51,0h-.04v-.04c0-.98,0-1.88,0-2.67v-.02h.01c.98-.76,1.78-1.36,2.34-1.79l.64-.48,.17-.12s.06-.04,.06-.04c0,0-.02,.02-.05,.05l-.16,.13-.63,.5c-.55,.43-1.35,1.05-2.32,1.8v-.03c.01,.8,.02,1.69,.02,2.67l-.04-.04c.48,0,.99,0,1.51,0h.05v.05l-.61,2.4v-.04l.36,.48c1.88,2.48,3.59,4.72,4.82,6.35l1.45,1.93,.39,.53,.1,.14s.03,.05,.03,.05Z"/><path class="cls-7" d="M53.38,40.46s2.82,2.08,3.07,5.44c.2,2.72,.65,10.18,.74,11.8,.13,2.53-1.84,8.45-6.97,6.77-3.07-1.01-14.43-4.87-14.43-4.87l.76-4.82,13.48,.8,.27-11.24,3.09-3.88Z"/><path class="cls-12" d="M36.39,55.34s-3.81-.41-4.7-.2c-.85,.2-2.06,1.24-2.06,1.24l.02,1.51,6.14,1.72,.6-4.27Z"/><path class="cls-16" d="M41.18,51.75s0-.02,.02-.05l.06-.15,.23-.57c.2-.5,.49-1.21,.85-2.09l1.28-3.1c.12-.29,.24-.59,.39-.89,.14-.3,.31-.59,.49-.89,.36-.59,.77-1.17,1.21-1.75,.22-.28,.44-.56,.67-.83v.04l-.48-1.21-.02-.04h.04c.7-.25,1.36-.48,1.99-.69l-.02,.06c-.92-1.54-1.7-2.84-2.25-3.76-.27-.46-.51-.82-.75-.97-.12-.08-.23-.1-.3-.12l-.11-.03s.04,0,.11,.01c.07,.01,.18,.04,.31,.11,.13,.07,.26,.2,.38,.37,.13,.17,.26,.37,.4,.6,.56,.92,1.35,2.22,2.28,3.75l.02,.04-.04,.02c-.63,.21-1.29,.44-1.99,.68l.02-.05,.48,1.21v.04c-.23,.26-.46,.54-.67,.82-.44,.57-.85,1.16-1.21,1.74-.17,.29-.34,.58-.49,.88-.15,.29-.27,.59-.39,.88-.49,1.16-.92,2.21-1.29,3.09-.37,.87-.67,1.58-.88,2.08l-.24,.56-.07,.15s-.02,.05-.02,.05Z"/><path class="cls-16" d="M54.93,63.53s-.01,.02-.05,.05l-.15,.14c-.13,.12-.33,.29-.62,.47-.29,.18-.67,.36-1.13,.48-.47,.12-1.02,.17-1.62,.1-.3-.03-.61-.1-.93-.2-.32-.1-.63-.22-.97-.34-.67-.24-1.38-.49-2.13-.76-1.5-.53-3.16-1.09-4.91-1.66-3.5-1.15-6.68-2.12-8.99-2.81-1.15-.34-2.09-.62-2.74-.81l-.74-.22-.19-.06s-.07-.02-.06-.02c0,0,.02,0,.07,.01l.2,.05,.75,.21c.65,.18,1.59,.45,2.75,.78,2.31,.68,5.51,1.63,9,2.78,1.75,.57,3.41,1.14,4.91,1.67,.75,.27,1.46,.52,2.13,.76,.33,.12,.65,.25,.96,.35,.31,.1,.62,.16,.92,.2,.6,.07,1.14,.03,1.61-.09,.46-.11,.84-.29,1.13-.46,.29-.18,.49-.34,.62-.45l.15-.13s.05-.04,.05-.04Z"/><path class="cls-16" d="M29.65,57.91s-.21-.03-.56-.02c-.17,0-.37,.04-.59,.1-.22,.07-.44,.16-.66,.3-.44,.28-.74,.66-.92,.95-.18,.29-.26,.49-.27,.49,0,0,.01-.05,.05-.14,.03-.09,.09-.22,.18-.37,.17-.3,.47-.7,.93-.99,.23-.14,.46-.24,.69-.31,.22-.06,.43-.08,.61-.08,.17,0,.32,.01,.41,.04,.1,.02,.15,.03,.15,.04Z"/><path class="cls-16" d="M25.9,56.73s0-.02,.02-.04c.01-.03,.04-.06,.07-.11,.07-.09,.22-.17,.42-.21,.2-.04,.44-.03,.7,0,.26,.03,.54,.1,.83,.2,.57,.2,1.03,.53,1.32,.81,.14,.14,.24,.27,.31,.36,.06,.09,.09,.14,.09,.15-.01,.01-.15-.2-.43-.46-.29-.26-.74-.57-1.3-.77-.28-.1-.56-.17-.81-.2-.26-.04-.49-.05-.68-.02-.19,.03-.33,.1-.41,.17-.08,.07-.11,.13-.11,.12Z"/><path class="cls-16" d="M30.35,46.34s-.03-.09-.05-.25c-.02-.08-.06-.17-.1-.28-.05-.1-.1-.22-.18-.35-.14-.25-.35-.53-.61-.81-.26-.28-.57-.56-.93-.82-.72-.52-1.47-.82-2.03-.93-.28-.05-.52-.09-.68-.09-.16,0-.25-.01-.25-.02,0,0,.09,0,.25-.01,.16-.01,.4,.02,.69,.06,.57,.1,1.35,.4,2.07,.92,.36,.26,.67,.55,.94,.83,.26,.29,.46,.57,.6,.83,.07,.13,.12,.25,.17,.36,.03,.11,.06,.21,.08,.29,.02,.16,.03,.25,.02,.25Z"/><path class="cls-16" d="M52.96,60.18s0-.02,0-.06v-.17c0-.15-.01-.37-.04-.65-.05-.56-.14-1.38-.48-2.33-.08-.24-.18-.48-.33-.71-.15-.23-.36-.42-.63-.54-.54-.23-1.19-.2-1.86-.24-1.34-.06-2.8-.12-4.34-.18-3.59-.16-6.78-.29-8.79-.4l.03-.02-.28,1.73-.08,.46-.02,.12s0,.04,0,.04,0-.01,0-.04l.02-.12,.07-.46c.06-.41,.15-.99,.26-1.73v-.02h.03c2.01,.08,5.2,.22,8.79,.37,1.54,.07,3.01,.13,4.34,.19,.33,.02,.66,.02,.98,.05,.32,.03,.63,.08,.91,.2,.28,.12,.51,.33,.66,.56,.15,.24,.25,.49,.33,.73,.33,.96,.42,1.79,.46,2.35,.02,.28,.02,.5,.02,.65v.17s0,.06,0,.06Z"/><path class="cls-16" d="M50.39,49.62s.04,1.31,.04,2.92-.02,2.92-.04,2.92-.04-1.31-.04-2.92,.02-2.92,.04-2.92Z"/><path class="cls-16" d="M24.27,42.98s-.01,.04-.03,.11c-.02,.07-.06,.17-.1,.32-.08,.28-.18,.7-.29,1.24-.23,1.09-.5,2.69-.81,4.68-.15,1-.32,2.1-.48,3.29-.08,.59-.13,1.21-.18,1.85-.04,.64-.08,1.3-.1,1.98-.05,1.36-.08,2.8-.04,4.29,.01,.37,.03,.75,.06,1.13,0,.19,.04,.38,.06,.57,.04,.19,.07,.38,.14,.56,.12,.37,.29,.72,.54,1.02,.24,.3,.56,.56,.92,.71h0c.75,.39,1.56,.67,2.4,.92,.84,.25,1.7,.45,2.58,.63,1.96,.4,3.91,.64,5.79,.71,.94,.03,1.86,0,2.76-.07,.9-.06,1.78-.16,2.63-.28,1.7-.25,3.29-.62,4.72-1.1,1.43-.47,2.71-1.05,3.81-1.64v.05c-2.22-.79-4-1.42-5.23-1.85-.61-.22-1.09-.39-1.41-.5l-.36-.13c-.08-.03-.12-.05-.12-.05,0,0,.04,.01,.13,.04l.37,.12c.32,.11,.8,.28,1.41,.49,1.23,.43,3.02,1.05,5.24,1.83l.06,.02-.06,.03c-1.11,.6-2.38,1.17-3.82,1.65-1.44,.48-3.02,.86-4.73,1.11-.85,.13-1.73,.22-2.63,.29-.9,.07-1.83,.1-2.77,.07-1.89-.07-3.84-.3-5.81-.71-.88-.18-1.75-.38-2.58-.64-.84-.25-1.66-.53-2.41-.92h0c-.39-.15-.71-.42-.96-.73-.25-.31-.43-.68-.55-1.05-.06-.19-.1-.38-.14-.57-.02-.19-.06-.38-.06-.58-.03-.38-.04-.76-.06-1.14-.04-1.5,0-2.94,.05-4.3,.03-.68,.06-1.34,.11-1.98,.04-.64,.1-1.26,.18-1.86,.17-1.19,.33-2.29,.49-3.29,.32-2,.6-3.59,.84-4.68,.12-.54,.22-.96,.3-1.24,.04-.14,.08-.24,.1-.31,.03-.07,.04-.1,.04-.1Z"/><path class="cls-13" d="M29.63,56.8c1.99-2.2,1.9-6.13,.76-8.91-.11,3.01-.46,5.69-.73,8.61"/><path class="cls-16" d="M30.4,48.45s0,.03,0,.1l-.02,.28c-.02,.25-.05,.59-.08,1.01-.07,.86-.17,2.04-.27,3.33-.1,1.3-.19,2.47-.26,3.34-.03,.42-.06,.76-.08,1.01l-.02,.27c0,.06-.01,.1-.01,.1,0,0,0-.03,0-.1v-.28c.02-.24,.03-.59,.06-1.01,.05-.86,.13-2.04,.24-3.34,.11-1.3,.21-2.48,.3-3.33l.11-1.01,.03-.27c0-.06,.01-.1,.02-.09Z"/><g><path class="cls-16" d="M35.31,44.47s.04,.77,.04,1.71-.02,1.71-.04,1.71-.04-.77-.04-1.71,.02-1.71,.04-1.71Z"/><g><g><path class="cls-13" d="M34.01,50.15c.03,.35,.18,.66,.37,.91,.19,.24,.57,.48,.87,.46,0,0,.76,.07,1.18-.59,.37-.59,.46-1.83,.17-2.56-.21-.5-.67-.97-1.21-.98-.71-.02-1.16,.5-1.31,1.02"/><path class="cls-16" d="M34.07,48.41s.02-.14,.13-.35c.06-.11,.14-.23,.27-.35,.12-.12,.29-.23,.5-.3,.1-.03,.22-.05,.34-.05,.12,0,.25,0,.37,.05,.25,.08,.48,.25,.66,.47,.19,.22,.32,.5,.39,.81,.07,.31,.09,.63,.07,.96-.03,.51-.13,1.01-.41,1.4-.14,.19-.34,.33-.54,.4-.2,.08-.41,.11-.61,.1h0c-.16,0-.31-.05-.44-.11-.13-.06-.24-.14-.33-.23-.18-.18-.28-.37-.36-.53-.07-.16-.1-.3-.11-.39,0-.05,0-.08-.01-.11,0-.02,0-.04,0-.04,.01,0,.01,.2,.16,.52,.08,.15,.18,.35,.36,.51,.09,.08,.2,.15,.32,.21,.12,.06,.26,.1,.4,.1h0c.36,.01,.81-.13,1.08-.49,.26-.36,.36-.86,.39-1.35,.03-.64-.07-1.29-.44-1.71-.17-.21-.39-.38-.62-.46-.12-.04-.23-.05-.35-.05-.11,0-.22,.02-.32,.05-.2,.06-.37,.16-.49,.27-.12,.11-.21,.23-.27,.33-.12,.2-.15,.34-.16,.33Z"/></g><g><path class="cls-13" d="M33.63,50.18c.03,.35,.18,.66,.37,.91,.19,.24,.57,.48,.87,.46,0,0,.76,.07,1.18-.59,.37-.59,.46-1.83,.17-2.56-.21-.5-.67-.97-1.21-.98-.71-.02-1.16,.5-1.31,1.02"/><path class="cls-16" d="M33.69,48.44s.02-.14,.13-.35c.06-.11,.14-.23,.27-.35,.12-.12,.29-.23,.5-.3,.1-.03,.22-.05,.34-.05,.12,0,.25,0,.37,.05,.25,.08,.48,.25,.66,.47,.19,.22,.32,.5,.39,.81,.07,.31,.09,.63,.07,.96-.03,.51-.13,1.01-.41,1.4-.14,.19-.34,.33-.54,.4-.2,.08-.41,.11-.61,.1h0c-.16,0-.31-.05-.44-.11-.13-.06-.24-.14-.33-.23-.18-.18-.28-.37-.36-.53-.07-.16-.1-.3-.11-.39,0-.05,0-.08-.01-.11,0-.02,0-.04,0-.04,.01,0,.01,.2,.16,.52,.08,.15,.18,.35,.36,.51,.09,.08,.2,.15,.32,.21,.12,.06,.26,.1,.4,.1h0c.36,.01,.81-.13,1.08-.49,.26-.36,.36-.86,.39-1.35,.03-.64-.07-1.29-.44-1.71-.17-.21-.39-.38-.62-.46-.12-.04-.23-.05-.35-.05-.11,0-.22,.02-.32,.05-.2,.06-.37,.16-.49,.27-.12,.11-.21,.23-.27,.33-.12,.2-.15,.34-.16,.33Z"/></g><g><path class="cls-13" d="M34.32,48.26c-.35-.07-.72,.17-.87,.5-.15,.33-.12,.72,0,1.06,.06,.17,.14,.34,.27,.48s.3,.23,.48,.23c.27,0,.51-.18,.67-.39,.25-.35,.34-.82,.23-1.24-.07-.28-.28-.57-.57-.58"/><path class="cls-16" d="M34.53,48.31s.02,0,.06,0c.04,0,.1,.02,.18,.06,.14,.08,.3,.27,.37,.56,.07,.28,.06,.64-.1,.99-.08,.17-.2,.34-.36,.48-.16,.13-.4,.22-.62,.15-.22-.06-.39-.23-.5-.41-.11-.18-.17-.37-.21-.56-.08-.37-.01-.74,.16-.98,.17-.24,.41-.34,.56-.36,.08-.01,.14,0,.18,0,.04,0,.06,.01,.06,.02,0,0-.09-.02-.24,.02-.15,.03-.37,.13-.52,.36-.16,.22-.21,.57-.13,.93,.04,.18,.1,.36,.2,.53,.1,.17,.25,.31,.45,.37,.2,.06,.4-.01,.55-.13,.15-.12,.26-.28,.34-.44,.16-.33,.17-.68,.11-.94-.06-.27-.2-.46-.33-.54-.13-.08-.22-.08-.22-.09Z"/></g><path class="cls-16" d="M35.13,50.92s-.03-.05-.09-.12c-.05-.07-.15-.14-.28-.18-.13-.04-.25-.05-.34-.05-.09,0-.15-.01-.15-.03,0-.01,.06-.03,.15-.03,.09,0,.22-.01,.37,.03,.14,.04,.25,.14,.3,.22,.05,.09,.05,.15,.04,.15Z"/><path class="cls-16" d="M35.26,48.04s-.02,.06-.1,.12c-.07,.06-.2,.12-.34,.15-.15,.03-.28,0-.37-.02-.09-.03-.14-.07-.13-.07,0-.02,.22,.06,.49,.01,.27-.05,.44-.2,.46-.18Z"/></g></g><g><path class="cls-16" d="M46.38,36.45s.02,0,.05,.02c.03,.02,.08,.04,.14,.07,.12,.07,.29,.18,.48,.35,.38,.33,.83,.9,1.04,1.65,.22,.73,.34,1.42,.4,1.92,.03,.25,.04,.45,.05,.59,0,.14,0,.22,0,.22,0,0-.02-.08-.04-.21l-.08-.59c-.07-.5-.2-1.17-.42-1.9-.21-.73-.64-1.3-1-1.63-.37-.34-.65-.47-.64-.48Z"/><g><path class="cls-16" d="M44.36,54.26c.47-.02,.84-.49,1.31-.46,.35,.02,.64,.36,.61,.71-.03,.35-.38,.63-.72,.59-.49-.06-.78-.63-1.26-.75"/><path class="cls-16" d="M48.34,54.66c-.14,0-.29-.01-.44-.04l.03-.16c.58,.09,1.07,0,1.45-.28,.48-.35,.79-.98,.92-1.87v-.03c.06-.35,.13-7.27,.13-8.59,0-2.05-1.8-2.33-1.88-2.34-.07-.01-1.71-.29-2.58,1.95-.91,2.35-2.36,6.87-2.46,7.4-.01,.06-.03,.15-.05,.24-.15,.68-.47,2.09,.48,2.9,1.05,.91,1.88,.56,1.91,.54l.07,.15s-.95,.41-2.09-.57c-1.02-.88-.69-2.35-.53-3.06,.02-.09,.04-.17,.05-.23,.1-.53,1.56-5.08,2.47-7.43,.92-2.37,2.74-2.06,2.76-2.06,.02,0,2.01,.31,2.01,2.5,0,1.08-.07,8.24-.13,8.61v.03c-.14,.93-.47,1.6-.99,1.98-.32,.23-.69,.35-1.13,.35Z"/></g><path class="cls-16" d="M50.5,45.01s-.05-.35-.34-.81c-.14-.23-.36-.47-.64-.69-.28-.22-.64-.4-1.04-.49-.81-.19-1.58,.02-2.05,.27-.48,.25-.7,.53-.71,.51,0,0,.01-.02,.04-.05,.03-.03,.06-.08,.12-.13,.11-.11,.28-.25,.53-.38,.24-.14,.55-.26,.91-.32,.36-.07,.77-.07,1.18,.02,.41,.1,.78,.29,1.07,.51,.29,.23,.5,.49,.64,.72,.14,.24,.22,.45,.25,.6,.02,.07,.03,.13,.03,.17,0,.04,0,.06,0,.06Z"/></g><path class="cls-16" d="M54.62,57.95s-.04-.28-.22-.69c-.17-.41-.53-.95-1.1-1.32-.28-.18-.6-.27-.89-.32-.29-.05-.56-.07-.78-.08l-.53-.04c-.13-.01-.2-.02-.19-.03,0,0,.07,0,.2,0h.53c.23,.02,.5,.03,.79,.07,.3,.05,.63,.13,.92,.33,.59,.38,.94,.94,1.11,1.37,.08,.21,.13,.39,.15,.52,.02,.13,.02,.2,.02,.2Z"/><g><path class="cls-12" d="M46.46,55.25s1.59-2.41,2-2.73,3.88-1.88,4.29-1.63c.41,.25,.16,.8,.16,.8,0,0,1.47-.52,1.63-.31s.19,.55,0,.83c0,0,.81-.13,.81,.13s-.09,.56-.47,.84c-.38,.28-2.82,1.91-3.01,2.36l-.79-.05-4.61-.24Z"/><path class="cls-11" d="M51.04,54.56s.02-.06,.07-.15c.05-.09,.14-.23,.26-.38,.24-.3,.65-.67,1.15-.97,.51-.3,1.01-.5,1.36-.64,.18-.07,.33-.12,.43-.15s.16-.05,.16-.04c0,0-.05,.03-.15,.08l-.42,.18c-.35,.15-.84,.36-1.34,.66-.5,.3-.9,.65-1.15,.94-.25,.29-.37,.5-.38,.49Z"/><path class="cls-11" d="M49.02,54.52s.02-.07,.08-.18c.05-.11,.14-.27,.24-.47,.11-.19,.25-.42,.44-.65,.1-.11,.2-.23,.33-.33,.13-.09,.28-.18,.42-.26,.59-.34,1.14-.61,1.55-.77,.21-.08,.38-.13,.5-.17,.12-.03,.19-.04,.19-.03,0,.01-.26,.08-.67,.26-.41,.17-.95,.45-1.53,.79-.14,.09-.29,.17-.42,.26-.12,.09-.23,.21-.32,.31-.19,.22-.33,.44-.45,.63l-.27,.45c-.06,.11-.1,.16-.11,.16Z"/></g></g></g><path class="cls-16" d="M12.89,137.18s.02-.06,.07-.16l.21-.45c.18-.4,.41-1,.62-1.81,.41-1.61,.56-4.07-.05-6.98-.28-1.46-.74-3.03-1.3-4.69-.55-1.66-1.19-3.43-1.71-5.34-.51-1.9-.92-3.97-.84-6.14,.08-2.17,.72-4.34,1.43-6.5,.71-2.16,1.44-4.27,1.65-6.4,.25-2.12-.21-4.2-1.17-5.91-.94-1.72-2.11-3.2-3-4.73-.9-1.52-1.45-3.09-1.8-4.54-.67-2.94-.43-5.41-.11-7.04,.35-1.64,.73-2.49,.73-2.49,0,0-.01,.06-.04,.17l-.15,.48c-.13,.42-.3,1.04-.46,1.86-.29,1.63-.5,4.08,.18,6.99,.35,1.44,.91,2.99,1.81,4.49,.88,1.51,2.06,2.98,3.02,4.72,.99,1.73,1.46,3.88,1.21,6.03-.22,2.16-.96,4.29-1.66,6.45-.71,2.16-1.34,4.3-1.42,6.44-.08,2.13,.32,4.18,.82,6.08,.51,1.9,1.14,3.67,1.68,5.34,.55,1.67,1,3.25,1.27,4.72,.59,2.94,.42,5.42-.02,7.04-.22,.81-.47,1.41-.67,1.81l-.23,.44c-.05,.1-.08,.15-.09,.15Z"/><path class="cls-2" d="M10,89.58s-1.79-5.72,1.42-9.07c.11-.12,.31-.06,.34,.1,.17,.94,.39,3.82-1.76,8.97Z"/><path class="cls-16" d="M11.07,82.41s-.02,.41-.12,1.06c-.12,.73-.26,1.58-.41,2.52-.15,.94-.29,1.8-.4,2.52-.1,.65-.16,1.05-.19,1.04-.03,0-.03-.41,.03-1.06,.06-.65,.17-1.55,.34-2.54,.16-.99,.33-1.88,.47-2.52,.14-.64,.25-1.03,.28-1.03Z"/><path class="cls-2" d="M12.1,103.08s1.09-5.9,5.5-7.36c.15-.05,.3,.09,.25,.25-.29,.92-1.45,3.56-5.75,7.11Z"/><path class="cls-16" d="M16.4,97.24s-.21,.35-.6,.88c-.44,.59-.97,1.28-1.54,2.04-.57,.76-1.09,1.45-1.53,2.04-.39,.53-.63,.85-.66,.83-.02-.02,.17-.37,.53-.93,.36-.55,.88-1.29,1.49-2.09,.6-.8,1.17-1.5,1.6-2,.42-.5,.7-.8,.72-.78Z"/><path class="cls-2" d="M10.91,117.87s-.66-5.96,3.13-8.64c.13-.09,.32,0,.32,.16-.01,.96-.35,3.83-3.44,8.47Z"/><path class="cls-16" d="M13.33,111.04s-.1,.4-.32,1.01c-.25,.69-.55,1.5-.88,2.4-.33,.9-.62,1.71-.87,2.4-.22,.62-.35,1-.39,.99-.03,0,.05-.41,.23-1.04,.18-.63,.47-1.49,.82-2.43,.35-.94,.69-1.78,.95-2.38,.26-.6,.44-.97,.47-.96Z"/><path class="cls-2" d="M14.23,132.74s-.45-5.98,3.43-8.52c.14-.09,.32,0,.31,.17-.05,.96-.49,3.81-3.74,8.35Z"/><path class="cls-16" d="M16.89,126s-.11,.39-.36,1c-.28,.68-.61,1.48-.97,2.37-.36,.89-.68,1.69-.96,2.37-.24,.61-.39,.98-.42,.97-.03,0,.07-.4,.27-1.03,.21-.62,.52-1.47,.9-2.4,.38-.93,.75-1.75,1.03-2.34,.28-.59,.47-.95,.5-.94Z"/><path class="cls-2" d="M7.43,84.55s-5.31-2.78-5.42-7.41c0-.16,.18-.26,.31-.17,.79,.55,2.98,2.43,5.11,7.59Z"/><path class="cls-16" d="M3.11,78.73s.27,.3,.66,.83c.43,.6,.94,1.3,1.5,2.07,.56,.77,1.07,1.47,1.5,2.07,.39,.53,.63,.85,.61,.87-.02,.02-.31-.27-.73-.77-.42-.5-.98-1.22-1.56-2.03-.58-.81-1.09-1.56-1.45-2.11-.35-.55-.56-.9-.53-.92Z"/><path class="cls-2" d="M13.14,96.84s-5.47-2.45-5.86-7.07c-.01-.16,.16-.27,.3-.19,.82,.5,3.12,2.24,5.56,7.26Z"/><path class="cls-16" d="M8.48,91.29s.29,.29,.71,.79c.47,.57,1.02,1.24,1.62,1.98,.61,.74,1.16,1.4,1.63,1.97,.42,.5,.68,.81,.66,.83-.02,.02-.32-.25-.78-.73-.45-.48-1.05-1.16-1.68-1.93-.63-.77-1.19-1.49-1.57-2.02-.39-.53-.61-.87-.59-.89Z"/><path class="cls-2" d="M9.99,110.55s-3.76-4.67-2-8.96c.06-.15,.27-.17,.35-.03,.51,.82,1.76,3.42,1.64,9Z"/><path class="cls-16" d="M8.37,103.49s.13,.39,.27,1.03c.16,.72,.34,1.56,.54,2.5,.21,.93,.39,1.78,.55,2.5,.15,.64,.24,1.03,.21,1.04-.03,0-.17-.37-.36-1-.18-.63-.41-1.51-.62-2.49-.21-.98-.38-1.87-.48-2.52-.1-.65-.15-1.05-.12-1.06Z"/><path class="cls-2" d="M13.71,126.68s-5.43-2.54-5.74-7.17c-.01-.16,.16-.27,.3-.18,.81,.51,3.08,2.29,5.44,7.35Z"/><path class="cls-16" d="M9.14,121.06s.29,.29,.7,.8c.46,.58,.99,1.26,1.59,2,.6,.75,1.13,1.42,1.59,2,.41,.51,.67,.82,.64,.84-.02,.02-.32-.26-.76-.74-.44-.48-1.03-1.18-1.65-1.96-.62-.79-1.16-1.51-1.54-2.05-.38-.54-.6-.88-.57-.9Z"/><path class="cls-16" d="M24.53,103.11s0,.05,0,.13c0,.1,0,.23,0,.38-.02,.36-.04,.85-.06,1.45-.07,1.28-.17,3.06-.28,5.19h0c-.39,2.18-1.49,4.59-2.98,6.92-1.09,1.72-2.23,3.28-3.21,4.74-.99,1.45-1.83,2.79-2.41,3.98-.59,1.19-.93,2.21-1.13,2.92-.1,.36-.17,.64-.21,.83-.04,.19-.07,.29-.08,.29,0,0,0-.1,.04-.3,.03-.19,.09-.48,.17-.84,.17-.72,.5-1.76,1.07-2.97,.57-1.21,1.4-2.57,2.38-4.03,.98-1.46,2.11-3.03,3.2-4.74,1.48-2.32,2.58-4.69,2.98-6.83h0c.15-2.12,.27-3.9,.36-5.17,.05-.61,.09-1.09,.12-1.45l.04-.38c.01-.09,.02-.13,.02-.13Z"/><path class="cls-10" d="M21.3,116.75s2.3-5.54-.59-9.16c-.1-.13-.3-.09-.35,.07-.26,.93-.73,3.77,.94,9.1Z"/><path class="cls-16" d="M20.88,109.51s.1,.4,.18,1.05c.08,.65,.17,1.55,.24,2.55,.07,1,.11,1.9,.11,2.56,0,.66-.04,1.06-.06,1.06-.03,0-.06-.4-.09-1.06-.05-.73-.11-1.6-.17-2.55-.07-.95-.13-1.82-.18-2.55-.04-.65-.06-1.06-.02-1.06Z"/><path d="M21.3,116.75s2.3-5.54-.59-9.16c-.1-.13-.3-.09-.35,.07-.26,.93-.73,3.77,.94,9.1Z"/><path class="cls-10" d="M14.17,130.09s1.84-5.71-1.33-9.09c-.11-.12-.31-.06-.34,.1-.18,.94-.42,3.82,1.68,8.99Z"/><path class="cls-16" d="M13.17,122.91s.13,.39,.27,1.03c.13,.64,.3,1.53,.45,2.52,.15,.99,.26,1.89,.31,2.54,.05,.65,.05,1.06,.02,1.06-.03,0-.09-.4-.18-1.05-.11-.73-.24-1.58-.38-2.53-.14-.94-.27-1.8-.38-2.53-.09-.65-.14-1.05-.11-1.06Z"/><path d="M14.17,130.09s1.84-5.71-1.33-9.09c-.11-.12-.31-.06-.34,.1-.18,.94-.42,3.82,1.68,8.99Z"/><path class="cls-10" d="M24.22,109.98s4.91-3.44,4.42-8.05c-.02-.16-.21-.24-.33-.13-.71,.64-2.64,2.79-4.09,8.18Z"/><path d="M24.22,109.98s4.91-3.44,4.42-8.05c-.02-.16-.21-.24-.33-.13-.71,.64-2.64,2.79-4.09,8.18Z"/><path class="cls-16" d="M27.75,103.65s-.13,.39-.41,.98c-.28,.59-.69,1.4-1.16,2.28-.47,.88-.93,1.66-1.29,2.22-.35,.55-.6,.88-.62,.86-.03-.02,.17-.37,.49-.94,.35-.65,.77-1.4,1.22-2.24,.46-.84,.87-1.6,1.22-2.25,.32-.57,.52-.92,.55-.91Z"/><path class="cls-10" d="M16.15,124.43s5.92-.92,7.51-5.28c.06-.15-.08-.31-.24-.26-.92,.26-3.6,1.34-7.27,5.55Z"/><path d="M16.15,124.43s5.92-.92,7.51-5.28c.06-.15-.08-.31-.24-.26-.92,.26-3.6,1.34-7.27,5.55Z"/><path class="cls-16" d="M22.11,120.3s-.29,.29-.8,.7c-.51,.41-1.23,.96-2.05,1.54-.81,.58-1.57,1.08-2.13,1.42-.56,.34-.93,.52-.94,.5-.02-.03,.32-.26,.85-.63,.6-.42,1.31-.92,2.09-1.47,.78-.55,1.48-1.05,2.08-1.48,.54-.38,.87-.6,.89-.57Z"/><polygon class="cls-15" points="9.14 135.33 10.84 146.48 17.63 146.47 19.91 135.33 9.14 135.33"/><path class="cls-16" d="M18.92,139.64s-.02,.02-.06,.04c-.04,.02-.1,.06-.18,.1-.16,.08-.42,.18-.76,.23-.34,.05-.78,.04-1.25-.12-.47-.15-.98-.45-1.34-.97-.17-.26-.3-.58-.31-.93-.03-.34,.11-.76,.46-.96,.35-.2,.8-.13,1.14,.09,.35,.23,.55,.62,.65,1.02,.1,.41,.11,.83,.08,1.26-.03,.43-.11,.87-.28,1.29-.16,.42-.43,.82-.79,1.12-.36,.3-.81,.52-1.31,.55-.49,.02-.96-.15-1.36-.39-.4-.25-.73-.56-1.01-.92-.28-.35-.49-.77-.51-1.22-.02-.44,.13-.9,.48-1.18,.35-.29,.85-.27,1.2-.07,.36,.18,.63,.53,.69,.91,.13,.76-.32,1.45-.86,1.76-.56,.32-1.16,.33-1.64,.24-.49-.09-.87-.29-1.17-.46-.3-.17-.51-.33-.65-.44-.14-.11-.21-.17-.21-.18,0,0,.08,.05,.23,.15,.15,.1,.37,.25,.67,.41,.3,.16,.68,.34,1.15,.42,.46,.08,1.04,.06,1.55-.25,.5-.29,.9-.94,.77-1.62-.06-.33-.29-.63-.62-.79-.32-.17-.73-.18-1.02,.06-.29,.23-.43,.64-.41,1.04,.02,.4,.21,.79,.48,1.12,.27,.33,.59,.64,.97,.87,.37,.23,.81,.39,1.25,.37,.44-.02,.86-.22,1.19-.5,.33-.28,.58-.65,.74-1.05,.16-.4,.24-.82,.27-1.23,.03-.41,.02-.83-.07-1.21-.09-.38-.27-.73-.57-.93-.29-.2-.68-.26-.97-.1-.29,.16-.41,.5-.39,.82,.01,.32,.12,.62,.28,.87,.33,.49,.82,.79,1.27,.95,.45,.16,.87,.18,1.21,.14,.68-.08,.99-.32,1-.3Z"/><g><path class="cls-16" d="M61.8,1.24s-.05,0-.16,0h-.47c-.1,.02-.22,.02-.35,.03l-.42,.06-.49,.07-.54,.13c-.76,.2-1.69,.53-2.64,1.15-.95,.61-1.93,1.48-2.73,2.65-.78,1.18-1.39,2.67-1.55,4.34-.02,.42-.07,.84-.03,1.27,.02,.22,.01,.43,.04,.65,.03,.22,.07,.44,.1,.66,.18,.87,.44,1.76,.89,2.59,.44,.83,1,1.63,1.69,2.33,.7,.69,1.53,1.29,2.44,1.75,.91,.47,1.92,.79,2.98,.91,.26,.05,.53,.05,.79,.07,.27,.02,.53,.03,.8,.01,.54-.02,1.07-.09,1.61-.2,1.16-.25,2.24-.72,3.2-1.35h-.1c1.11,.45,2.2,.89,3.26,1.32l.19,.08-.06-.2c-.33-1.2-.65-2.36-.96-3.48l-.02,.09c.91-1.22,1.5-2.6,1.74-3.98,.12-.69,.17-1.38,.13-2.04-.01-.33-.03-.66-.09-.98l-.07-.48c-.03-.16-.08-.31-.11-.46-.63-2.45-2.14-4.26-3.63-5.3-.75-.53-1.49-.91-2.16-1.14-.17-.06-.33-.12-.49-.17-.16-.04-.31-.08-.46-.12l-.42-.1c-.14-.03-.27-.04-.39-.06-.25-.03-.46-.07-.65-.08l-.48-.02h-.29c-.07,0-.1,0-.1,0s.03,0,.1,.01l.29,.02c.13,0,.29,.02,.48,.03,.19,.01,.4,.06,.65,.1,.96,.18,2.4,.56,3.86,1.63,1.47,1.04,2.94,2.83,3.54,5.24,.04,.15,.08,.3,.11,.45l.07,.47c.06,.31,.07,.64,.09,.96,.04,.65-.01,1.33-.13,2-.24,1.35-.82,2.71-1.71,3.89l-.03,.04v.05c.32,1.13,.64,2.29,.96,3.48l.14-.12c-1.06-.43-2.15-.87-3.26-1.31l-.05-.02-.05,.03c-.93,.61-2,1.07-3.13,1.31-.52,.11-1.05,.18-1.57,.2-.26,.01-.52,0-.78-.01-.26-.02-.52-.01-.78-.07-1.03-.12-2.02-.44-2.91-.89-.9-.45-1.7-1.04-2.39-1.71-.68-.69-1.23-1.46-1.66-2.28-.44-.81-.7-1.69-.88-2.54-.03-.22-.07-.43-.1-.64-.03-.21-.03-.43-.04-.64-.04-.42,0-.84,.02-1.25,.15-1.64,.73-3.1,1.5-4.27,.78-1.17,1.74-2.03,2.67-2.64,.93-.62,1.84-.96,2.59-1.17,.19-.05,.37-.1,.54-.14l.48-.08,.41-.07c.13-.01,.24-.02,.35-.03l.47-.03c.11,0,.16-.02,.16-.02Z"/><g><path class="cls-10" d="M65.31,9.13c-.19-.86-1.01-1.61-1.9-1.52-.52,.05-.99,.37-1.31,.79-.14,.18-.23,.31-.31,.45-.07-.13-.17-.26-.31-.45-.32-.42-.78-.74-1.3-.79-.88-.09-1.7,.65-1.9,1.52-.2,.86,.13,1.78,.66,2.49,.53,.71,1.42,1.61,2.92,1.96,.99-.23,2.24-1.25,2.77-1.95s.86-1.62,.66-2.48Z"/><path class="cls-8" d="M65.14,10.73s0,0-.03,0h-.41l-1.21,.02,.02-.02-.37,1.35-.02,.08-.03-.08c-.21-.62-.45-1.31-.71-2.03l-.23-.66h.05c-.28,.48-.55,.94-.79,1.35h-.02c-.87,0-1.6,0-2.13,0h-.76s-.05-.01-.05-.02c0,0,.02,0,.05,0h.76l2.13-.02h-.02l.79-1.34,.03-.05,.02,.06,.23,.66c.25,.73,.49,1.42,.7,2.04h-.05c.14-.5,.27-.96,.38-1.35v-.02h1.23l.33,.02h.09s.03,0,.03,0Z"/></g></g></svg>